M48
;Layer_Color=9474304
;FILE_FORMAT=2:5
INCH,LZ
;TYPE=PLATED
T1F00S00C0.01181
T2F00S00C0.03150
T3F00S00C0.03622
T4F00S00C0.03937
T5F00S00C0.04016
T6F00S00C0.09055
T7F00S00C0.17717
;TYPE=NON_PLATED
T8F00S00C0.11811
%
T01
X0113386Y0040945
X0223228Y0103543
X0196801Y0101919
X0185433Y0105905
X0144488Y0103937
X0167717Y0246457
X0218504Y0237008
T02
X0023622Y0323031
Y0336811
X0123622
Y0323031
X0225984
Y0336811
T03
X0020472Y0052362
X0030315
X0038189
X0048031
T04
X0087795Y0019684
X0097638
X0130709
X0140551
X0173622
X0183465
X0216535
X0226378
X0226378Y0065748
X0216535
X0252362Y0093898
X0260236
X026811
X0275984
X0183465Y0065748
X0173622
X0140551
X0130709
X0097638
X0087795
X0052559Y0074803
Y0082677
Y0090551
Y0098425
X0018504Y0091535
Y0081693
T05
X0279528Y0123228
X0209449
X0179528Y0124016
X0109449
X0081102Y0124409
X0011024
Y028189
X0081102
X0109449Y0281496
X0179528
X0209449Y0280709
X0279528
T06
X0008386Y0041693
X0060118
T07
X026811Y0027165
Y0055512
X0162598Y0316142
Y0344488
X0062992
Y0316142
X0264567
Y0344488
T08
X0269045Y0148425
X0019685
Y0261417
X0269045
M30
