G04*
G04 #@! TF.GenerationSoftware,Altium Limited,Altium Designer,20.1.8 (145)*
G04*
G04 Layer_Physical_Order=1*
G04 Layer_Color=255*
%FSLAX25Y25*%
%MOIN*%
G70*
G04*
G04 #@! TF.SameCoordinates,1FDAB6DA-E141-4DA2-B8DD-458AA00E26A3*
G04*
G04*
G04 #@! TF.FilePolarity,Positive*
G04*
G01*
G75*
%ADD10C,0.01181*%
%ADD14C,0.01000*%
%ADD17C,0.01968*%
G04:AMPARAMS|DCode=19|XSize=31.5mil|YSize=31.5mil|CornerRadius=7.87mil|HoleSize=0mil|Usage=FLASHONLY|Rotation=270.000|XOffset=0mil|YOffset=0mil|HoleType=Round|Shape=RoundedRectangle|*
%AMROUNDEDRECTD19*
21,1,0.03150,0.01575,0,0,270.0*
21,1,0.01575,0.03150,0,0,270.0*
1,1,0.01575,-0.00787,-0.00787*
1,1,0.01575,-0.00787,0.00787*
1,1,0.01575,0.00787,0.00787*
1,1,0.01575,0.00787,-0.00787*
%
%ADD19ROUNDEDRECTD19*%
%ADD20R,0.03150X0.03150*%
%ADD21R,0.03740X0.01968*%
%ADD28C,0.05118*%
%ADD29R,0.05118X0.05118*%
%ADD37C,0.03937*%
%ADD38C,0.02953*%
%ADD39C,0.11811*%
%ADD40C,0.21717*%
%ADD41R,0.21717X0.21717*%
%ADD42R,0.06299X0.06299*%
%ADD43C,0.05906*%
%ADD44R,0.05906X0.05906*%
%ADD45R,0.05622X0.05622*%
%ADD46C,0.05622*%
%ADD47C,0.13055*%
%ADD48R,0.05906X0.05906*%
%ADD49C,0.02362*%
G36*
X279921Y284858D02*
X278949D01*
X269502Y294305D01*
X268683Y294852D01*
X267717Y295045D01*
X86873D01*
X83627Y298290D01*
Y340551D01*
X83435Y341517D01*
X82888Y342337D01*
X78951Y346274D01*
X78132Y346821D01*
X77165Y347013D01*
X74581D01*
X74305Y348164D01*
X73591Y349888D01*
X72615Y351480D01*
X71403Y352899D01*
X69984Y354111D01*
X68392Y355087D01*
X66668Y355801D01*
X64853Y356237D01*
X62992Y356383D01*
X61131Y356237D01*
X59316Y355801D01*
X57592Y355087D01*
X56001Y354111D01*
X54581Y352899D01*
X53369Y351480D01*
X52394Y349888D01*
X51679Y348164D01*
X51403Y347013D01*
X31299D01*
X30333Y346821D01*
X29514Y346274D01*
X23610Y340370D01*
X20063D01*
Y333252D01*
X27181D01*
Y336799D01*
X32345Y341963D01*
X51403D01*
X51679Y340812D01*
X52394Y339088D01*
X53369Y337496D01*
X54581Y336077D01*
X56001Y334865D01*
X57592Y333890D01*
X59316Y333175D01*
X61131Y332740D01*
X62992Y332593D01*
X64853Y332740D01*
X66668Y333175D01*
X68392Y333890D01*
X69984Y334865D01*
X71403Y336077D01*
X72615Y337496D01*
X73591Y339088D01*
X74305Y340812D01*
X74581Y341963D01*
X76120D01*
X78578Y339505D01*
Y297244D01*
Y286039D01*
X76953D01*
Y277740D01*
X85252D01*
Y286039D01*
X83627D01*
Y290523D01*
X84127Y290677D01*
X84860Y290187D01*
X85827Y289995D01*
X174151D01*
X177003Y287143D01*
Y285646D01*
X175378D01*
Y277346D01*
X183677D01*
Y285646D01*
X182053D01*
Y288189D01*
X181860Y289155D01*
X181633Y289495D01*
X181901Y289995D01*
X266671D01*
X275378Y281288D01*
Y276559D01*
X279921D01*
Y127378D01*
X275378D01*
Y125251D01*
X274016D01*
X273241Y125098D01*
X272585Y124659D01*
X259004Y111078D01*
X248425D01*
X247651Y110924D01*
X246995Y110486D01*
X239514Y103005D01*
X239076Y102349D01*
X238922Y101575D01*
Y49263D01*
X227508Y37850D01*
X104381D01*
X99661Y42570D01*
Y62318D01*
X100457Y62929D01*
X101091Y63755D01*
X101489Y64716D01*
X101625Y65748D01*
X101489Y66780D01*
X101091Y67742D01*
X100457Y68567D01*
X99661Y69178D01*
Y76327D01*
X106155Y82821D01*
X106594Y83478D01*
X106747Y84252D01*
Y88926D01*
X111665Y93843D01*
X116535D01*
X116731Y93882D01*
X119405D01*
Y97850D01*
X116731D01*
X116535Y97889D01*
X110827D01*
X110053Y97735D01*
X109396Y97297D01*
X103294Y91194D01*
X102855Y90538D01*
X102701Y89764D01*
Y85090D01*
X96207Y78596D01*
X95769Y77940D01*
X95615Y77165D01*
Y69178D01*
X94819Y68567D01*
X94185Y67742D01*
X93787Y66780D01*
X93651Y65748D01*
X93787Y64716D01*
X94185Y63755D01*
X94819Y62929D01*
X95615Y62318D01*
Y47270D01*
X95153Y47078D01*
X94344Y47887D01*
X93688Y48326D01*
X92913Y48480D01*
X81744D01*
X56415Y73808D01*
X56546Y74803D01*
X56410Y75835D01*
X56012Y76797D01*
X55378Y77622D01*
X54553Y78256D01*
X54037Y78470D01*
Y79011D01*
X54553Y79224D01*
X55378Y79858D01*
X56012Y80684D01*
X56410Y81645D01*
X56480Y82177D01*
X52559D01*
X48638D01*
X48708Y81645D01*
X49106Y80684D01*
X49740Y79858D01*
X50566Y79224D01*
X51082Y79011D01*
Y78470D01*
X50566Y78256D01*
X49740Y77622D01*
X49106Y76797D01*
X48708Y75835D01*
X48572Y74803D01*
X48708Y73771D01*
X49106Y72810D01*
X49740Y71984D01*
X50566Y71350D01*
X51527Y70952D01*
X52559Y70816D01*
X53554Y70947D01*
X79475Y45026D01*
X80131Y44588D01*
X80905Y44434D01*
X92075D01*
X96207Y40302D01*
X102113Y34396D01*
X102769Y33958D01*
X103543Y33804D01*
X137159D01*
X138528Y32434D01*
Y23114D01*
X137732Y22504D01*
X137099Y21678D01*
X136700Y20716D01*
X136564Y19684D01*
X136700Y18653D01*
X137099Y17691D01*
X137732Y16865D01*
X138558Y16232D01*
X139519Y15834D01*
X140551Y15698D01*
X141583Y15834D01*
X142545Y16232D01*
X143370Y16865D01*
X144004Y17691D01*
X144402Y18653D01*
X144538Y19684D01*
X144402Y20716D01*
X144004Y21678D01*
X143370Y22504D01*
X142574Y23114D01*
Y33272D01*
X142545Y33417D01*
X142863Y33804D01*
X228346D01*
X229121Y33958D01*
X229777Y34396D01*
X242375Y46995D01*
X242814Y47651D01*
X242968Y48425D01*
Y100737D01*
X249263Y107032D01*
X253781D01*
X258213Y102600D01*
Y97328D01*
X257417Y96717D01*
X256815Y95932D01*
X256759Y95932D01*
X256315Y96267D01*
Y97850D01*
X252862D01*
Y93898D01*
Y89945D01*
X256315D01*
Y91528D01*
X256759Y91864D01*
X256815Y91863D01*
X257417Y91079D01*
X258243Y90445D01*
X259204Y90047D01*
X260236Y89911D01*
X261268Y90047D01*
X262230Y90445D01*
X263055Y91079D01*
X263689Y91904D01*
X263903Y92420D01*
X264444D01*
X264657Y91904D01*
X265291Y91079D01*
X266117Y90445D01*
X267078Y90047D01*
X268110Y89911D01*
X269142Y90047D01*
X270104Y90445D01*
X270929Y91079D01*
X271563Y91904D01*
X271777Y92420D01*
X272318D01*
X272532Y91904D01*
X273165Y91079D01*
X273459Y90853D01*
Y85480D01*
X269638Y81659D01*
X255512D01*
X254546Y81467D01*
X253726Y80919D01*
X247821Y75014D01*
X247274Y74195D01*
X247081Y73228D01*
Y43959D01*
X226746Y23623D01*
X226378Y23671D01*
X225346Y23536D01*
X224384Y23137D01*
X223559Y22504D01*
X222925Y21678D01*
X222527Y20716D01*
X222391Y19684D01*
X222527Y18653D01*
X222925Y17691D01*
X223559Y16865D01*
X223853Y16640D01*
Y15219D01*
X221001Y12367D01*
X194352D01*
X187403Y19317D01*
X187451Y19684D01*
X187316Y20716D01*
X186917Y21678D01*
X186284Y22504D01*
X185458Y23137D01*
X184496Y23536D01*
X183465Y23671D01*
X182433Y23536D01*
X181471Y23137D01*
X180645Y22504D01*
X180012Y21678D01*
X179613Y20716D01*
X179478Y19684D01*
X179613Y18653D01*
X180012Y17691D01*
X180645Y16865D01*
X181471Y16232D01*
X182433Y15834D01*
X183465Y15698D01*
X183832Y15746D01*
X186749Y12829D01*
X186558Y12367D01*
X108526D01*
X101576Y19317D01*
X101625Y19684D01*
X101489Y20716D01*
X101091Y21678D01*
X100457Y22504D01*
X99631Y23137D01*
X98670Y23536D01*
X97638Y23671D01*
X96606Y23536D01*
X95644Y23137D01*
X94819Y22504D01*
X94185Y21678D01*
X93787Y20716D01*
X93651Y19684D01*
X93787Y18653D01*
X94185Y17691D01*
X94819Y16865D01*
X95644Y16232D01*
X96606Y15834D01*
X97638Y15698D01*
X98005Y15746D01*
X105377Y8374D01*
X105170Y7874D01*
X8857D01*
X8828Y34172D01*
X9861Y34274D01*
X11280Y34705D01*
X12588Y35404D01*
X13734Y36344D01*
X14675Y37491D01*
X15374Y38798D01*
X15638Y39670D01*
X52865D01*
X53130Y38798D01*
X53829Y37491D01*
X54770Y36344D01*
X55916Y35404D01*
X57223Y34705D01*
X58642Y34274D01*
X60118Y34129D01*
X61594Y34274D01*
X63013Y34705D01*
X64320Y35404D01*
X65467Y36344D01*
X66407Y37491D01*
X67106Y38798D01*
X67537Y40217D01*
X67682Y41693D01*
X67537Y43169D01*
X67106Y44587D01*
X66407Y45895D01*
X65467Y47041D01*
X64320Y47982D01*
X63013Y48681D01*
X61594Y49112D01*
X60118Y49257D01*
X58642Y49112D01*
X57223Y48681D01*
X55916Y47982D01*
X54770Y47041D01*
X53829Y45895D01*
X53130Y44587D01*
X52865Y43716D01*
X47664D01*
X47472Y44178D01*
X49462Y46168D01*
X49901Y46824D01*
X50055Y47598D01*
Y49111D01*
X50749Y49644D01*
X51360Y50440D01*
X51744Y51367D01*
X51875Y52362D01*
X51744Y53357D01*
X51360Y54284D01*
X50749Y55080D01*
X49953Y55691D01*
X49026Y56075D01*
X48031Y56206D01*
X47037Y56075D01*
X46110Y55691D01*
X45314Y55080D01*
X44703Y54284D01*
X44319Y53357D01*
X44188Y52362D01*
X44319Y51367D01*
X44703Y50440D01*
X45314Y49644D01*
X46008Y49111D01*
Y48436D01*
X41288Y43716D01*
X15638D01*
X15374Y44587D01*
X14675Y45895D01*
X13734Y47041D01*
X12588Y47982D01*
X11280Y48681D01*
X9861Y49112D01*
X9503Y49147D01*
Y120028D01*
X9735Y120260D01*
X15173D01*
Y128559D01*
X8724D01*
X8559Y277386D01*
X8913Y277740D01*
X15173D01*
Y286039D01*
X8550D01*
X8472Y356733D01*
X8825Y357087D01*
X279921D01*
Y284858D01*
D02*
G37*
G36*
X275378Y119079D02*
X279921D01*
Y96070D01*
X279471Y95907D01*
X279421Y95912D01*
X278803Y96717D01*
X277978Y97350D01*
X277016Y97749D01*
X275984Y97885D01*
X274952Y97749D01*
X273991Y97350D01*
X273165Y96717D01*
X272532Y95891D01*
X272318Y95375D01*
X271777D01*
X271563Y95891D01*
X270929Y96717D01*
X270104Y97350D01*
X269142Y97749D01*
X268110Y97885D01*
X267078Y97749D01*
X266117Y97350D01*
X265291Y96717D01*
X264657Y95891D01*
X264444Y95375D01*
X263903D01*
X263689Y95891D01*
X263055Y96717D01*
X262259Y97328D01*
Y103438D01*
X262105Y104212D01*
X261667Y104869D01*
X259985Y106551D01*
X260150Y107093D01*
X260617Y107186D01*
X261273Y107625D01*
X274854Y121205D01*
X275378D01*
Y119079D01*
D02*
G37*
G36*
X279921Y91725D02*
Y59254D01*
X279423Y59188D01*
X278709Y60912D01*
X277733Y62503D01*
X276521Y63923D01*
X275102Y65135D01*
X273510Y66110D01*
X271786Y66825D01*
X269971Y67260D01*
X268110Y67407D01*
X266249Y67260D01*
X264435Y66825D01*
X262710Y66110D01*
X261119Y65135D01*
X259699Y63923D01*
X258487Y62503D01*
X257512Y60912D01*
X256798Y59188D01*
X256362Y57373D01*
X256215Y55512D01*
X256362Y53651D01*
X256798Y51836D01*
X257512Y50112D01*
X258487Y48520D01*
X259699Y47101D01*
X261119Y45889D01*
X262710Y44913D01*
X264435Y44199D01*
X266249Y43763D01*
X268110Y43617D01*
X269971Y43763D01*
X271786Y44199D01*
X273510Y44913D01*
X275102Y45889D01*
X276521Y47101D01*
X277733Y48520D01*
X278709Y50112D01*
X279423Y51836D01*
X279921Y51770D01*
Y39024D01*
X256252D01*
Y15307D01*
X279921D01*
Y7874D01*
X224357D01*
X224149Y8374D01*
X228163Y12388D01*
X228711Y13207D01*
X228903Y14173D01*
Y16640D01*
X229197Y16865D01*
X229831Y17691D01*
X230229Y18653D01*
X230365Y19684D01*
X230316Y20052D01*
X251392Y41127D01*
X251939Y41947D01*
X252131Y42913D01*
Y72183D01*
X256558Y76609D01*
X270684D01*
X271650Y76801D01*
X272469Y77349D01*
X277770Y82649D01*
X278317Y83468D01*
X278509Y84434D01*
Y90853D01*
X278803Y91079D01*
X279421Y91884D01*
X279471Y91888D01*
X279921Y91725D01*
D02*
G37*
%LPC*%
G36*
X264567Y356383D02*
X262706Y356237D01*
X260891Y355801D01*
X259167Y355087D01*
X257575Y354111D01*
X256156Y352899D01*
X254944Y351480D01*
X253969Y349888D01*
X253254Y348164D01*
X253091Y347482D01*
X233661D01*
X232887Y347380D01*
X232164Y347081D01*
X231544Y346605D01*
X225309Y340370D01*
X222425D01*
Y333252D01*
X229543D01*
Y336136D01*
X234902Y341494D01*
X253091D01*
X253254Y340812D01*
X253969Y339088D01*
X254944Y337496D01*
X256156Y336077D01*
X257575Y334865D01*
X259167Y333890D01*
X260891Y333175D01*
X262706Y332740D01*
X264567Y332593D01*
X266428Y332740D01*
X268243Y333175D01*
X269967Y333890D01*
X271559Y334865D01*
X272978Y336077D01*
X274190Y337496D01*
X275165Y339088D01*
X275880Y340812D01*
X276315Y342627D01*
X276462Y344488D01*
X276315Y346349D01*
X275880Y348164D01*
X275165Y349888D01*
X274190Y351480D01*
X272978Y352899D01*
X271559Y354111D01*
X269967Y355087D01*
X268243Y355801D01*
X266428Y356237D01*
X264567Y356383D01*
D02*
G37*
G36*
X162598D02*
X160738Y356237D01*
X158923Y355801D01*
X157198Y355087D01*
X155607Y354111D01*
X154187Y352899D01*
X152975Y351480D01*
X152000Y349888D01*
X151286Y348164D01*
X151122Y347482D01*
X131299D01*
X130524Y347380D01*
X129802Y347081D01*
X129182Y346605D01*
X122947Y340370D01*
X120063D01*
Y333252D01*
X127181D01*
Y336136D01*
X132539Y341494D01*
X151122D01*
X151286Y340812D01*
X152000Y339088D01*
X152975Y337496D01*
X154187Y336077D01*
X155607Y334865D01*
X157198Y333890D01*
X158923Y333175D01*
X160738Y332740D01*
X162598Y332593D01*
X164459Y332740D01*
X166274Y333175D01*
X167999Y333890D01*
X169590Y334865D01*
X171009Y336077D01*
X172222Y337496D01*
X173197Y339088D01*
X173911Y340812D01*
X174347Y342627D01*
X174493Y344488D01*
X174347Y346349D01*
X173911Y348164D01*
X173197Y349888D01*
X172222Y351480D01*
X171009Y352899D01*
X169590Y354111D01*
X167999Y355087D01*
X166274Y355801D01*
X164459Y356237D01*
X162598Y356383D01*
D02*
G37*
G36*
X23622Y326621D02*
X22693Y326499D01*
X21827Y326140D01*
X21084Y325570D01*
X20513Y324826D01*
X20155Y323961D01*
X20032Y323031D01*
X20155Y322102D01*
X20513Y321237D01*
X21084Y320493D01*
X21827Y319923D01*
X22693Y319564D01*
X23622Y319442D01*
X24551Y319564D01*
X25417Y319923D01*
X26160Y320493D01*
X26731Y321237D01*
X27090Y322102D01*
X27212Y323031D01*
X27090Y323961D01*
X26731Y324826D01*
X26160Y325570D01*
X25417Y326140D01*
X24551Y326499D01*
X23622Y326621D01*
D02*
G37*
G36*
X276425Y328000D02*
X252709D01*
Y319136D01*
X234114D01*
X229476Y323774D01*
X229452Y323961D01*
X229093Y324826D01*
X228523Y325570D01*
X227779Y326140D01*
X226913Y326499D01*
X225984Y326621D01*
X225055Y326499D01*
X224189Y326140D01*
X223446Y325570D01*
X222875Y324826D01*
X222517Y323961D01*
X222492Y323774D01*
X217854Y319136D01*
X174457D01*
Y328000D01*
X150740D01*
Y319136D01*
X131752D01*
X127114Y323774D01*
X127090Y323961D01*
X126731Y324826D01*
X126160Y325570D01*
X125417Y326140D01*
X124551Y326499D01*
X123622Y326621D01*
X122693Y326499D01*
X121827Y326140D01*
X121084Y325570D01*
X120513Y324826D01*
X120155Y323961D01*
X120032Y323031D01*
X120155Y322102D01*
X120513Y321237D01*
X121084Y320493D01*
X121827Y319923D01*
X122693Y319564D01*
X122880Y319539D01*
X128395Y314025D01*
X129015Y313549D01*
X129737Y313250D01*
X130512Y313148D01*
X150740D01*
Y304283D01*
X174457D01*
Y313148D01*
X219094D01*
X219869Y313250D01*
X220591Y313549D01*
X221212Y314025D01*
X225984Y318797D01*
X230757Y314025D01*
X231377Y313549D01*
X232099Y313250D01*
X232874Y313148D01*
X252709D01*
Y304283D01*
X276425D01*
Y328000D01*
D02*
G37*
G36*
X74850D02*
X51134D01*
Y304283D01*
X74850D01*
Y328000D01*
D02*
G37*
G36*
X113598Y285646D02*
X105299D01*
Y277346D01*
X113598D01*
Y285646D01*
D02*
G37*
G36*
X213598Y284858D02*
X205299D01*
Y276559D01*
X213598D01*
Y284858D01*
D02*
G37*
G36*
X269045Y268356D02*
X267692Y268223D01*
X266390Y267828D01*
X265190Y267187D01*
X264139Y266324D01*
X263276Y265272D01*
X262635Y264073D01*
X262240Y262771D01*
X262106Y261417D01*
X262240Y260064D01*
X262635Y258762D01*
X263276Y257562D01*
X264139Y256511D01*
X265190Y255648D01*
X266390Y255007D01*
X267692Y254612D01*
X269045Y254478D01*
X270399Y254612D01*
X271701Y255007D01*
X272900Y255648D01*
X273952Y256511D01*
X274815Y257562D01*
X275456Y258762D01*
X275851Y260064D01*
X275984Y261417D01*
X275851Y262771D01*
X275456Y264073D01*
X274815Y265272D01*
X273952Y266324D01*
X272900Y267187D01*
X271701Y267828D01*
X270399Y268223D01*
X269045Y268356D01*
D02*
G37*
G36*
X19685D02*
X18331Y268223D01*
X17030Y267828D01*
X15830Y267187D01*
X14778Y266324D01*
X13916Y265272D01*
X13274Y264073D01*
X12879Y262771D01*
X12746Y261417D01*
X12879Y260064D01*
X13274Y258762D01*
X13916Y257562D01*
X14778Y256511D01*
X15830Y255648D01*
X17030Y255007D01*
X18331Y254612D01*
X19685Y254478D01*
X21039Y254612D01*
X22341Y255007D01*
X23540Y255648D01*
X24592Y256511D01*
X25455Y257562D01*
X26096Y258762D01*
X26491Y260064D01*
X26624Y261417D01*
X26491Y262771D01*
X26096Y264073D01*
X25455Y265272D01*
X24592Y266324D01*
X23540Y267187D01*
X22341Y267828D01*
X21039Y268223D01*
X19685Y268356D01*
D02*
G37*
G36*
X168217Y248581D02*
Y246957D01*
X169841D01*
X169771Y247308D01*
X169289Y248029D01*
X168568Y248511D01*
X168217Y248581D01*
D02*
G37*
G36*
X167217D02*
X166866Y248511D01*
X166144Y248029D01*
X165662Y247308D01*
X165592Y246957D01*
X167217D01*
Y248581D01*
D02*
G37*
G36*
X169841Y245957D02*
X168217D01*
Y244332D01*
X168568Y244402D01*
X169289Y244884D01*
X169771Y245606D01*
X169841Y245957D01*
D02*
G37*
G36*
X167217D02*
X165592D01*
X165662Y245606D01*
X166144Y244884D01*
X166866Y244402D01*
X167217Y244332D01*
Y245957D01*
D02*
G37*
G36*
X219004Y239132D02*
Y237508D01*
X220628D01*
X220559Y237859D01*
X220076Y238580D01*
X219355Y239062D01*
X219004Y239132D01*
D02*
G37*
G36*
X218004D02*
X217653Y239062D01*
X216931Y238580D01*
X216449Y237859D01*
X216380Y237508D01*
X218004D01*
Y239132D01*
D02*
G37*
G36*
X220628Y236508D02*
X219004D01*
Y234883D01*
X219355Y234953D01*
X220076Y235435D01*
X220559Y236157D01*
X220628Y236508D01*
D02*
G37*
G36*
X218004D02*
X216380D01*
X216449Y236157D01*
X216931Y235435D01*
X217653Y234953D01*
X218004Y234883D01*
Y236508D01*
D02*
G37*
G36*
X269045Y155364D02*
X267692Y155231D01*
X266390Y154836D01*
X265190Y154195D01*
X264139Y153332D01*
X263276Y152280D01*
X262635Y151081D01*
X262240Y149779D01*
X262106Y148425D01*
X262240Y147072D01*
X262635Y145770D01*
X263276Y144570D01*
X264139Y143519D01*
X265190Y142656D01*
X266390Y142015D01*
X267692Y141620D01*
X269045Y141486D01*
X270399Y141620D01*
X271701Y142015D01*
X272900Y142656D01*
X273952Y143519D01*
X274815Y144570D01*
X275456Y145770D01*
X275851Y147072D01*
X275984Y148425D01*
X275851Y149779D01*
X275456Y151081D01*
X274815Y152280D01*
X273952Y153332D01*
X272900Y154195D01*
X271701Y154836D01*
X270399Y155231D01*
X269045Y155364D01*
D02*
G37*
G36*
X19685D02*
X18331Y155231D01*
X17030Y154836D01*
X15830Y154195D01*
X14778Y153332D01*
X13916Y152280D01*
X13274Y151081D01*
X12879Y149779D01*
X12746Y148425D01*
X12879Y147072D01*
X13274Y145770D01*
X13916Y144570D01*
X14778Y143519D01*
X15830Y142656D01*
X17030Y142015D01*
X18331Y141620D01*
X19685Y141486D01*
X21039Y141620D01*
X22341Y142015D01*
X23540Y142656D01*
X24592Y143519D01*
X25455Y144570D01*
X26096Y145770D01*
X26491Y147072D01*
X26624Y148425D01*
X26491Y149779D01*
X26096Y151081D01*
X25455Y152280D01*
X24592Y153332D01*
X23540Y154195D01*
X22341Y154836D01*
X21039Y155231D01*
X19685Y155364D01*
D02*
G37*
G36*
X113598Y128165D02*
X109949D01*
Y124516D01*
X113598D01*
Y128165D01*
D02*
G37*
G36*
X108949D02*
X105299D01*
Y124516D01*
X108949D01*
Y128165D01*
D02*
G37*
G36*
X213598Y127378D02*
X209949D01*
Y123728D01*
X213598D01*
Y127378D01*
D02*
G37*
G36*
X208949D02*
X205299D01*
Y123728D01*
X208949D01*
Y127378D01*
D02*
G37*
G36*
X85252Y128559D02*
X76953D01*
Y126433D01*
X54331D01*
X53557Y126279D01*
X52900Y125840D01*
X33609Y106549D01*
X33170Y105892D01*
X33016Y105118D01*
Y76429D01*
X19042Y62454D01*
X18603Y61798D01*
X18449Y61024D01*
Y56173D01*
X16661D01*
Y48551D01*
X24284D01*
Y56173D01*
X22496D01*
Y60186D01*
X36470Y74160D01*
X36909Y74816D01*
X37062Y75590D01*
Y104280D01*
X55169Y122386D01*
X76953D01*
Y120260D01*
X85252D01*
Y128559D01*
D02*
G37*
G36*
X113598Y123516D02*
X109949D01*
Y119866D01*
X113598D01*
Y123516D01*
D02*
G37*
G36*
X108949D02*
X105299D01*
Y119866D01*
X108949D01*
Y123516D01*
D02*
G37*
G36*
X213598Y122728D02*
X209949D01*
Y119079D01*
X213598D01*
Y122728D01*
D02*
G37*
G36*
X208949D02*
X205299D01*
Y119079D01*
X208949D01*
Y122728D01*
D02*
G37*
G36*
X56512Y102378D02*
X53059D01*
Y98925D01*
X56512D01*
Y102378D01*
D02*
G37*
G36*
X52059D02*
X48606D01*
Y98925D01*
X52059D01*
Y102378D01*
D02*
G37*
G36*
X128593Y98870D02*
X128305D01*
Y96760D01*
X130415D01*
Y97047D01*
X130276Y97745D01*
X129881Y98336D01*
X129290Y98731D01*
X128593Y98870D01*
D02*
G37*
G36*
X127305D02*
X127018D01*
X126320Y98731D01*
X125729Y98336D01*
X125334Y97745D01*
X125195Y97047D01*
Y96760D01*
X127305D01*
Y98870D01*
D02*
G37*
G36*
X94095Y98870D02*
X93807D01*
Y96760D01*
X95917D01*
Y97047D01*
X95778Y97745D01*
X95383Y98336D01*
X94792Y98731D01*
X94095Y98870D01*
D02*
G37*
G36*
X92807D02*
X92520D01*
X91822Y98731D01*
X91231Y98336D01*
X90836Y97745D01*
X90697Y97047D01*
Y96760D01*
X92807D01*
Y98870D01*
D02*
G37*
G36*
X251862Y97850D02*
X248410D01*
Y94398D01*
X251862D01*
Y97850D01*
D02*
G37*
G36*
X185433Y108900D02*
X179528D01*
X178753Y108798D01*
X178031Y108499D01*
X177410Y108023D01*
X174317Y104929D01*
X173841Y104309D01*
X173542Y103587D01*
X173440Y102812D01*
Y87739D01*
X173542Y86964D01*
X173841Y86242D01*
X174317Y85622D01*
X179773Y80166D01*
X180393Y79690D01*
X180692Y79567D01*
X181115Y79391D01*
X181890Y79289D01*
X188524D01*
X191888Y75925D01*
Y61811D01*
X191990Y61036D01*
X192289Y60314D01*
X192765Y59694D01*
X204576Y47883D01*
X205196Y47407D01*
X205918Y47108D01*
X206693Y47006D01*
X220472D01*
X221247Y47108D01*
X221970Y47407D01*
X222590Y47883D01*
X228495Y53788D01*
X228971Y54408D01*
X229270Y55131D01*
X229372Y55905D01*
Y63157D01*
X229831Y63755D01*
X230229Y64716D01*
X230365Y65748D01*
X230229Y66780D01*
X229831Y67742D01*
X229197Y68567D01*
X228371Y69201D01*
X227410Y69599D01*
X226378Y69735D01*
X225346Y69599D01*
X224384Y69201D01*
X223559Y68567D01*
X222925Y67742D01*
X222527Y66780D01*
X222391Y65748D01*
X222527Y64716D01*
X222925Y63755D01*
X223384Y63157D01*
Y57146D01*
X219232Y52994D01*
X207933D01*
X197876Y63051D01*
Y77165D01*
X197774Y77940D01*
X197475Y78662D01*
X196999Y79282D01*
X191881Y84401D01*
X191261Y84876D01*
X190539Y85176D01*
X189764Y85278D01*
X183130D01*
X179428Y88980D01*
Y101572D01*
X180768Y102911D01*
X182833D01*
Y97062D01*
X182935Y96287D01*
X182957Y96234D01*
Y93882D01*
X188697D01*
Y96234D01*
X188719Y96287D01*
X188821Y97062D01*
Y105512D01*
X188719Y106287D01*
X188420Y107009D01*
X187944Y107629D01*
X187550Y108023D01*
X186930Y108499D01*
X186208Y108798D01*
X185433Y108900D01*
D02*
G37*
G36*
X95917Y95760D02*
X93807D01*
Y93650D01*
X94095D01*
X94792Y93789D01*
X95383Y94184D01*
X95778Y94775D01*
X95917Y95472D01*
Y95760D01*
D02*
G37*
G36*
X92807D02*
X90697D01*
Y95472D01*
X90836Y94775D01*
X91231Y94184D01*
X91822Y93789D01*
X92520Y93650D01*
X92807D01*
Y95760D01*
D02*
G37*
G36*
X158268Y106931D02*
X144488D01*
X143713Y106829D01*
X142991Y106530D01*
X142371Y106054D01*
X141895Y105434D01*
X141596Y104712D01*
X141494Y103937D01*
X141596Y103162D01*
X141895Y102440D01*
X142371Y101820D01*
X142991Y101344D01*
X143713Y101045D01*
X144488Y100943D01*
X157027D01*
X159309Y98661D01*
Y97244D01*
X159411Y96469D01*
X159693Y95788D01*
Y95472D01*
X159832Y94775D01*
X160227Y94184D01*
X160818Y93789D01*
X161516Y93650D01*
X163091D01*
X163788Y93789D01*
X164379Y94184D01*
X164774Y94775D01*
X164913Y95472D01*
Y95788D01*
X165195Y96469D01*
X165297Y97244D01*
Y99902D01*
X165195Y100677D01*
X164896Y101399D01*
X164420Y102019D01*
X160385Y106054D01*
X159765Y106530D01*
X159043Y106829D01*
X158268Y106931D01*
D02*
G37*
G36*
X130415Y95760D02*
X128305D01*
Y93650D01*
X128593D01*
X129290Y93789D01*
X129881Y94184D01*
X130276Y94775D01*
X130415Y95472D01*
Y95760D01*
D02*
G37*
G36*
X127305D02*
X125195D01*
Y95472D01*
X125334Y94775D01*
X125729Y94184D01*
X126320Y93789D01*
X127018Y93650D01*
X127305D01*
Y95760D01*
D02*
G37*
G36*
X227559Y112049D02*
X203937D01*
X203162Y111947D01*
X202440Y111648D01*
X201820Y111172D01*
X194684Y104036D01*
X194208Y103416D01*
X193909Y102694D01*
X193807Y101919D01*
Y96260D01*
X193909Y95485D01*
X194208Y94763D01*
X194684Y94143D01*
X195304Y93667D01*
X195878Y93429D01*
X195779Y92929D01*
X194226D01*
Y92277D01*
X188697D01*
Y92732D01*
X182957D01*
Y88764D01*
X188697D01*
Y89219D01*
X194226D01*
Y87779D01*
X199376D01*
Y92766D01*
X199376Y92929D01*
X199737Y93266D01*
X202106D01*
X204093Y91280D01*
Y75197D01*
X204194Y74422D01*
X204494Y73700D01*
X204970Y73080D01*
X212583Y65466D01*
Y61795D01*
X220488D01*
Y69701D01*
X216817D01*
X210081Y76437D01*
Y92520D01*
X209979Y93295D01*
X209680Y94017D01*
X209204Y94637D01*
X205464Y98377D01*
X204843Y98853D01*
X204121Y99152D01*
X203346Y99254D01*
X199795D01*
Y100679D01*
X205177Y106061D01*
X220871D01*
X221012Y105561D01*
X218355Y102905D01*
X217879Y102285D01*
X217580Y101562D01*
X217478Y100787D01*
Y95473D01*
X217580Y94697D01*
X217602Y94644D01*
Y93488D01*
X218253D01*
X218355Y93355D01*
X218975Y92879D01*
X219074Y92839D01*
X218975Y92339D01*
X217602D01*
Y88370D01*
X223342D01*
Y88825D01*
X228724D01*
Y87779D01*
X233874D01*
Y92929D01*
X228724D01*
Y91884D01*
X223342D01*
Y92339D01*
X221970D01*
X221871Y92839D01*
X221970Y92879D01*
X222590Y93355D01*
X222692Y93488D01*
X223342D01*
Y94644D01*
X223364Y94697D01*
X223467Y95473D01*
Y99547D01*
X225345Y101426D01*
X225821Y102046D01*
X226120Y102768D01*
X226222Y103543D01*
X226120Y104318D01*
X225821Y105040D01*
X225422Y105561D01*
X225576Y106061D01*
X226319D01*
X228502Y103878D01*
Y96457D01*
X228604Y95682D01*
X228689Y95476D01*
Y95472D01*
X228828Y94775D01*
X229223Y94184D01*
X229814Y93789D01*
X230512Y93650D01*
X230515D01*
X230721Y93565D01*
X231496Y93463D01*
X232271Y93565D01*
X232993Y93864D01*
X233613Y94340D01*
X234089Y94960D01*
X234388Y95682D01*
X234490Y96457D01*
Y105118D01*
X234388Y105893D01*
X234213Y106316D01*
X234089Y106615D01*
X233613Y107235D01*
X229676Y111172D01*
X229056Y111648D01*
X228334Y111947D01*
X227559Y112049D01*
D02*
G37*
G36*
X164878Y92929D02*
X159728D01*
Y92277D01*
X154051D01*
Y92732D01*
X148311D01*
Y88764D01*
X154051D01*
Y89219D01*
X159728D01*
Y87779D01*
X164878D01*
Y92929D01*
D02*
G37*
G36*
X130380D02*
X125230D01*
Y92277D01*
X119405D01*
Y92732D01*
X113665D01*
Y88764D01*
X119405D01*
Y89219D01*
X125230D01*
Y87779D01*
X130380D01*
Y92929D01*
D02*
G37*
G36*
X95882Y92929D02*
X90732D01*
Y92277D01*
X84760D01*
Y92732D01*
X79020D01*
Y88764D01*
X84760D01*
Y89219D01*
X90732D01*
Y87779D01*
X95882D01*
Y92929D01*
D02*
G37*
G36*
X251862Y93398D02*
X248410D01*
Y89945D01*
X251862D01*
Y93398D01*
D02*
G37*
G36*
X22457Y95488D02*
X14551D01*
Y87583D01*
X22457D01*
Y95488D01*
D02*
G37*
G36*
X18504Y85680D02*
X17472Y85544D01*
X16511Y85146D01*
X15685Y84512D01*
X15051Y83686D01*
X14653Y82725D01*
X14517Y81693D01*
X14653Y80661D01*
X15051Y79699D01*
X15685Y78874D01*
X16511Y78240D01*
X17472Y77842D01*
X18504Y77706D01*
X19536Y77842D01*
X20497Y78240D01*
X21323Y78874D01*
X21957Y79699D01*
X22355Y80661D01*
X22491Y81693D01*
X22355Y82725D01*
X21957Y83686D01*
X21323Y84512D01*
X20497Y85146D01*
X19536Y85544D01*
X18504Y85680D01*
D02*
G37*
G36*
X134661Y69701D02*
X131209D01*
Y66248D01*
X134661D01*
Y69701D01*
D02*
G37*
G36*
X130209D02*
X126756D01*
Y66248D01*
X130209D01*
Y69701D01*
D02*
G37*
G36*
X177575D02*
X174122D01*
Y66248D01*
X177575D01*
Y69701D01*
D02*
G37*
G36*
X173122D02*
X169669D01*
Y66248D01*
X173122D01*
Y69701D01*
D02*
G37*
G36*
X91748D02*
X88295D01*
Y66248D01*
X91748D01*
Y69701D01*
D02*
G37*
G36*
X87295D02*
X83842D01*
Y66248D01*
X87295D01*
Y69701D01*
D02*
G37*
G36*
X177575Y65248D02*
X174122D01*
Y61795D01*
X177575D01*
Y65248D01*
D02*
G37*
G36*
X173122D02*
X169669D01*
Y61795D01*
X173122D01*
Y65248D01*
D02*
G37*
G36*
X134661Y65248D02*
X131209D01*
Y61795D01*
X134661D01*
Y65248D01*
D02*
G37*
G36*
X130209D02*
X126756D01*
Y61795D01*
X130209D01*
Y65248D01*
D02*
G37*
G36*
X91748Y65248D02*
X88295D01*
Y61795D01*
X91748D01*
Y65248D01*
D02*
G37*
G36*
X87295D02*
X83842D01*
Y61795D01*
X87295D01*
Y65248D01*
D02*
G37*
G36*
X38189Y56206D02*
X37194Y56075D01*
X36267Y55691D01*
X35471Y55080D01*
X34860Y54284D01*
X34512Y53443D01*
X34252Y53397D01*
X33992Y53443D01*
X33644Y54284D01*
X33033Y55080D01*
X32237Y55691D01*
X31310Y56075D01*
X30315Y56206D01*
X29320Y56075D01*
X28393Y55691D01*
X27597Y55080D01*
X26986Y54284D01*
X26602Y53357D01*
X26471Y52362D01*
X26602Y51367D01*
X26986Y50440D01*
X27597Y49644D01*
X28393Y49033D01*
X29320Y48649D01*
X30315Y48518D01*
X31310Y48649D01*
X32237Y49033D01*
X33033Y49644D01*
X33644Y50440D01*
X33992Y51281D01*
X34252Y51328D01*
X34512Y51281D01*
X34860Y50440D01*
X35471Y49644D01*
X36267Y49033D01*
X37194Y48649D01*
X38189Y48518D01*
X39184Y48649D01*
X40111Y49033D01*
X40907Y49644D01*
X41518Y50440D01*
X41902Y51367D01*
X42033Y52362D01*
X41902Y53357D01*
X41518Y54284D01*
X40907Y55080D01*
X40111Y55691D01*
X39184Y56075D01*
X38189Y56206D01*
D02*
G37*
G36*
X183677Y128165D02*
X175378D01*
Y122160D01*
X167357Y114139D01*
X166257Y113039D01*
X90158D01*
X89537Y112916D01*
X89011Y112564D01*
X80743Y104296D01*
X80392Y103770D01*
X80268Y103150D01*
Y97850D01*
X79020D01*
Y97685D01*
X68110D01*
X67490Y97561D01*
X66963Y97210D01*
X61927Y92173D01*
X56166D01*
X56012Y92545D01*
X55378Y93370D01*
X54593Y93972D01*
X54593Y94028D01*
X54928Y94472D01*
X56512D01*
Y97925D01*
X52559D01*
X48606D01*
Y94472D01*
X50190D01*
X50525Y94028D01*
X50525Y93972D01*
X49740Y93370D01*
X49106Y92545D01*
X48708Y91583D01*
X48572Y90551D01*
X48708Y89519D01*
X49106Y88558D01*
X49740Y87732D01*
X50566Y87098D01*
X51082Y86885D01*
Y86344D01*
X50566Y86130D01*
X49740Y85496D01*
X49106Y84671D01*
X48708Y83709D01*
X48638Y83177D01*
X52559D01*
X56480D01*
X56410Y83709D01*
X56012Y84671D01*
X55378Y85496D01*
X54553Y86130D01*
X54037Y86344D01*
Y86885D01*
X54553Y87098D01*
X55378Y87732D01*
X56012Y88558D01*
X56166Y88929D01*
X62598D01*
X63219Y89053D01*
X63745Y89404D01*
X68782Y94441D01*
X79020D01*
Y93882D01*
X84760D01*
Y97850D01*
X83512D01*
Y102478D01*
X90829Y109796D01*
X166882D01*
Y84646D01*
X167006Y84025D01*
X167357Y83499D01*
X181239Y69617D01*
X181175Y68974D01*
X180645Y68567D01*
X180012Y67742D01*
X179614Y66780D01*
X179478Y65748D01*
X179614Y64716D01*
X180012Y63755D01*
X180645Y62929D01*
X181471Y62295D01*
X181843Y62141D01*
Y56183D01*
X176100Y50441D01*
X149884D01*
X142173Y58152D01*
Y62141D01*
X142545Y62295D01*
X143370Y62929D01*
X144004Y63755D01*
X144402Y64716D01*
X144538Y65748D01*
X144402Y66780D01*
X144004Y67742D01*
X143370Y68567D01*
X142545Y69201D01*
X141583Y69599D01*
X140551Y69735D01*
X139519Y69599D01*
X138558Y69201D01*
X137732Y68567D01*
X137099Y67742D01*
X136700Y66780D01*
X136564Y65748D01*
X136700Y64716D01*
X137099Y63755D01*
X137732Y62929D01*
X138558Y62295D01*
X138929Y62141D01*
Y57480D01*
X139053Y56860D01*
X139404Y56334D01*
X148066Y47672D01*
X148592Y47321D01*
X149213Y47197D01*
X176772D01*
X177392Y47321D01*
X177918Y47672D01*
X184611Y54365D01*
X184963Y54891D01*
X185086Y55512D01*
Y62141D01*
X185458Y62295D01*
X186284Y62929D01*
X186917Y63755D01*
X187316Y64716D01*
X187451Y65748D01*
X187316Y66780D01*
X186917Y67742D01*
X186284Y68567D01*
X185458Y69201D01*
X184991Y69394D01*
Y69781D01*
X184867Y70401D01*
X184516Y70927D01*
X170126Y85317D01*
Y112320D01*
X177671Y119866D01*
X183677D01*
Y128165D01*
D02*
G37*
G36*
X151181Y98391D02*
X142717D01*
X141750Y98199D01*
X140931Y97651D01*
X138766Y95486D01*
X138218Y94667D01*
X138026Y93701D01*
Y81361D01*
X137143Y80478D01*
X118898D01*
X117931Y80286D01*
X117112Y79738D01*
X111600Y74226D01*
X111053Y73407D01*
X110861Y72441D01*
Y40945D01*
X111053Y39979D01*
X111600Y39160D01*
X112420Y38612D01*
X113386Y38420D01*
X114352Y38612D01*
X115171Y39160D01*
X115718Y39979D01*
X115911Y40945D01*
Y71395D01*
X119943Y75428D01*
X138189D01*
X139155Y75620D01*
X139974Y76167D01*
X142337Y78530D01*
X142884Y79349D01*
X143076Y80315D01*
Y92655D01*
X143762Y93341D01*
X151181D01*
X152147Y93533D01*
X152669Y93882D01*
X154051D01*
Y97850D01*
X152669D01*
X152147Y98199D01*
X151181Y98391D01*
D02*
G37*
G36*
X134661Y23637D02*
X131209D01*
Y20185D01*
X134661D01*
Y23637D01*
D02*
G37*
G36*
X130209D02*
X126756D01*
Y20185D01*
X130209D01*
Y23637D01*
D02*
G37*
G36*
X220488D02*
X212583D01*
Y15732D01*
X220488D01*
Y23637D01*
D02*
G37*
G36*
X177575D02*
X169669D01*
Y15732D01*
X177575D01*
Y23637D01*
D02*
G37*
G36*
X134661Y19184D02*
X131209D01*
Y15732D01*
X134661D01*
Y19184D01*
D02*
G37*
G36*
X130209D02*
X126756D01*
Y15732D01*
X130209D01*
Y19184D01*
D02*
G37*
G36*
X91748Y23637D02*
X83842D01*
Y15732D01*
X91748D01*
Y23637D01*
D02*
G37*
%LPD*%
D10*
X168504Y84646D02*
X183369Y69781D01*
X168504Y84646D02*
Y112992D01*
X183369Y65843D02*
Y69781D01*
Y65843D02*
X183465Y65748D01*
Y55512D02*
Y65748D01*
X168504Y112992D02*
X179528Y124016D01*
X166929Y111417D02*
X168504Y112992D01*
X81890Y103150D02*
X90158Y111417D01*
X166929D01*
X81890Y95866D02*
Y103150D01*
X68110Y96063D02*
X81693D01*
X52559Y90551D02*
X62598D01*
X68110Y96063D01*
X176772Y48819D02*
X183465Y55512D01*
X149213Y48819D02*
X176772D01*
X140551Y57480D02*
X149213Y48819D01*
X140551Y57480D02*
Y65748D01*
D14*
X62992Y344488D02*
X65114Y342366D01*
X231299Y96260D02*
X231496Y96457D01*
X151181Y90748D02*
X161909D01*
X162303Y90354D01*
X220472Y90354D02*
X231299D01*
X231299Y90354D01*
X185827Y90748D02*
X196407D01*
X196801Y90354D01*
X116535Y90748D02*
X127411D01*
X127805Y90354D01*
X81890Y90748D02*
X92913D01*
X93307Y90354D01*
X81693Y96063D02*
X81890Y95866D01*
D17*
X137997Y35827D02*
X228346D01*
X240945Y48425D01*
Y101575D01*
X248425Y109055D01*
X140551Y19684D02*
Y33272D01*
X103543Y35827D02*
X137997D01*
X97638Y41732D02*
X103543Y35827D01*
X137997D02*
X140551Y33272D01*
X97638Y65748D02*
Y77165D01*
Y41732D02*
Y65748D01*
X92913Y46457D02*
X97638Y41732D01*
X80905Y46457D02*
X92913D01*
X260236Y93898D02*
Y103438D01*
X254619Y109055D02*
X260236Y103438D01*
X248425Y109055D02*
X254619D01*
X259842D01*
X7480Y42598D02*
X8386Y41693D01*
X7480Y42598D02*
Y120866D01*
X11024Y124409D01*
X20472Y52362D02*
Y61024D01*
X35039Y75590D02*
Y105118D01*
X20472Y61024D02*
X35039Y75590D01*
Y105118D02*
X54331Y124409D01*
X81102D01*
X52559Y74803D02*
X80905Y46457D01*
X110827Y95866D02*
X116535D01*
X104724Y89764D02*
X110827Y95866D01*
X104724Y84252D02*
Y89764D01*
X97638Y77165D02*
X104724Y84252D01*
X259842Y109055D02*
X274016Y123228D01*
X279528D01*
X42126Y41693D02*
X60118D01*
X8386D02*
X42126D01*
X48031Y47598D02*
Y52362D01*
X42126Y41693D02*
X48031Y47598D01*
D19*
X127805Y96260D02*
D03*
X231299D02*
D03*
X196801D02*
D03*
X162303D02*
D03*
X93307Y96260D02*
D03*
D20*
X127805Y90354D02*
D03*
X231299D02*
D03*
X196801D02*
D03*
X162303D02*
D03*
X93307Y90354D02*
D03*
D21*
X116535Y95866D02*
D03*
Y90748D02*
D03*
X220472Y95473D02*
D03*
Y90354D02*
D03*
X185827Y95866D02*
D03*
Y90748D02*
D03*
X151181Y95866D02*
D03*
Y90748D02*
D03*
X81890Y95866D02*
D03*
Y90748D02*
D03*
D28*
X23622Y323031D02*
D03*
X123622D02*
D03*
X225984D02*
D03*
D29*
X23622Y336811D02*
D03*
X123622D02*
D03*
X225984D02*
D03*
D37*
X231496Y96457D02*
Y105118D01*
X203937Y109055D02*
X227559D01*
X231496Y105118D01*
X176434Y87739D02*
X181890Y82284D01*
X189764D01*
X176434Y87739D02*
Y102812D01*
X194882Y61811D02*
Y77165D01*
X189764Y82284D02*
X194882Y77165D01*
X179528Y105905D02*
X185433D01*
X176434Y102812D02*
X179528Y105905D01*
X185433D02*
X185827Y105512D01*
Y97062D02*
Y105512D01*
X144488Y103937D02*
X158268D01*
X162303Y97244D02*
Y99902D01*
X158268Y103937D02*
X162303Y99902D01*
X220472Y100787D02*
X223228Y103543D01*
X220472Y95473D02*
Y100787D01*
X196801Y101919D02*
X203937Y109055D01*
X194882Y61811D02*
X206693Y50000D01*
X220472D01*
X226378Y55905D01*
Y65748D01*
X196801Y96260D02*
Y101919D01*
X207087Y75197D02*
X216535Y65748D01*
X203346Y96260D02*
X207087Y92520D01*
Y75197D02*
Y92520D01*
X196801Y96260D02*
X203346D01*
X162598Y316142D02*
X219094D01*
X225984Y323031D01*
Y336811D02*
X233661Y344488D01*
X264567D01*
X225984Y323031D02*
X232874Y316142D01*
X264567D01*
X123622Y323031D02*
X130512Y316142D01*
X162598D01*
X123622Y336811D02*
X131299Y344488D01*
X162598D01*
D38*
X113386Y40945D02*
Y72441D01*
X118898Y77953D01*
X226378Y19684D02*
X249606Y42913D01*
Y73228D02*
X255512Y79134D01*
X249606Y42913D02*
Y73228D01*
X255512Y79134D02*
X270684D01*
X275984Y84434D01*
Y93898D01*
X179528Y281496D02*
Y288189D01*
X85827Y292520D02*
X175197D01*
X179528Y288189D01*
X175197Y292520D02*
X267717D01*
X77165Y344488D02*
X81102Y340551D01*
X62992Y344488D02*
X77165D01*
X81102Y297244D02*
Y340551D01*
X118898Y77953D02*
X138189D01*
X140551Y80315D02*
Y93701D01*
X138189Y77953D02*
X140551Y80315D01*
X142717Y95866D02*
X151181D01*
X140551Y93701D02*
X142717Y95866D01*
X97638Y19684D02*
X107480Y9843D01*
X193307D01*
X226378Y14173D02*
Y19684D01*
X222047Y9843D02*
X226378Y14173D01*
X193307Y9843D02*
X222047D01*
X183465Y19684D02*
X193307Y9843D01*
X81102Y281890D02*
Y297244D01*
X85827Y292520D01*
X267717D02*
X279528Y280709D01*
X23622Y336811D02*
X31299Y344488D01*
X62992D01*
D39*
X269045Y148425D02*
D03*
Y261417D02*
D03*
X19685Y148425D02*
D03*
Y261417D02*
D03*
D40*
X268110Y55512D02*
D03*
X62992Y344488D02*
D03*
X162598D02*
D03*
X264567D02*
D03*
D41*
X268110Y27165D02*
D03*
X62992Y316142D02*
D03*
X162598D02*
D03*
X264567D02*
D03*
D42*
X109449Y281496D02*
D03*
Y124016D02*
D03*
X179528Y281496D02*
D03*
Y124016D02*
D03*
X279528Y123228D02*
D03*
Y280709D02*
D03*
X209449Y123228D02*
D03*
Y280709D02*
D03*
X11024Y281890D02*
D03*
Y124409D02*
D03*
X81102Y281890D02*
D03*
Y124409D02*
D03*
D43*
X52559Y74803D02*
D03*
Y90551D02*
D03*
Y82677D02*
D03*
X97638Y65748D02*
D03*
X140551Y19684D02*
D03*
X97638D02*
D03*
X275984Y93898D02*
D03*
X260236D02*
D03*
X268110D02*
D03*
X140551Y65748D02*
D03*
X183465D02*
D03*
X226378D02*
D03*
X18504Y81693D02*
D03*
X226378Y19684D02*
D03*
X183465D02*
D03*
D44*
X52559Y98425D02*
D03*
X87795Y65748D02*
D03*
X130709Y19684D02*
D03*
X87795D02*
D03*
X130709Y65748D02*
D03*
X173622D02*
D03*
X216535D02*
D03*
X216535Y19684D02*
D03*
X173622D02*
D03*
D45*
X20472Y52362D02*
D03*
D46*
X30315D02*
D03*
X38189D02*
D03*
X48031D02*
D03*
D47*
X8386Y41693D02*
D03*
X60118D02*
D03*
D48*
X252362Y93898D02*
D03*
X18504Y91535D02*
D03*
D49*
X167717Y246457D02*
D03*
X144488Y103937D02*
D03*
X113386Y40945D02*
D03*
X218504Y237008D02*
D03*
X223228Y103543D02*
D03*
X185433Y105905D02*
D03*
X196801Y101919D02*
D03*
M02*
