G04*
G04 #@! TF.GenerationSoftware,Altium Limited,Altium Designer,20.1.8 (145)*
G04*
G04 Layer_Color=8388736*
%FSLAX25Y25*%
%MOIN*%
G70*
G04*
G04 #@! TF.SameCoordinates,1FDAB6DA-E141-4DA2-B8DD-458AA00E26A3*
G04*
G04*
G04 #@! TF.FilePolarity,Negative*
G04*
G01*
G75*
G04:AMPARAMS|DCode=22|XSize=39.5mil|YSize=39.5mil|CornerRadius=11.87mil|HoleSize=0mil|Usage=FLASHONLY|Rotation=270.000|XOffset=0mil|YOffset=0mil|HoleType=Round|Shape=RoundedRectangle|*
%AMROUNDEDRECTD22*
21,1,0.03950,0.01575,0,0,270.0*
21,1,0.01575,0.03950,0,0,270.0*
1,1,0.02375,-0.00787,-0.00787*
1,1,0.02375,-0.00787,0.00787*
1,1,0.02375,0.00787,0.00787*
1,1,0.02375,0.00787,-0.00787*
%
%ADD22ROUNDEDRECTD22*%
%ADD23R,0.03950X0.03950*%
%ADD24R,0.04540X0.02769*%
%ADD25C,0.12611*%
%ADD26C,0.22517*%
%ADD27R,0.22517X0.22517*%
%ADD28C,0.05118*%
%ADD29R,0.05118X0.05118*%
%ADD30R,0.07099X0.07099*%
%ADD31C,0.06706*%
%ADD32R,0.06706X0.06706*%
%ADD33R,0.06422X0.06422*%
%ADD34C,0.06422*%
%ADD35C,0.13855*%
%ADD36R,0.06706X0.06706*%
D22*
X127805Y96260D02*
D03*
X231299D02*
D03*
X196801D02*
D03*
X162303D02*
D03*
X93307Y96260D02*
D03*
D23*
X127805Y90354D02*
D03*
X231299D02*
D03*
X196801D02*
D03*
X162303D02*
D03*
X93307Y90354D02*
D03*
D24*
X116535Y95866D02*
D03*
Y90748D02*
D03*
X220472Y95473D02*
D03*
Y90354D02*
D03*
X185827Y95866D02*
D03*
Y90748D02*
D03*
X151181Y95866D02*
D03*
Y90748D02*
D03*
X81890Y95866D02*
D03*
Y90748D02*
D03*
D25*
X269045Y148425D02*
D03*
Y261417D02*
D03*
X19685Y148425D02*
D03*
Y261417D02*
D03*
D26*
X268110Y55512D02*
D03*
X62992Y344488D02*
D03*
X162598D02*
D03*
X264567D02*
D03*
D27*
X268110Y27165D02*
D03*
X62992Y316142D02*
D03*
X162598D02*
D03*
X264567D02*
D03*
D28*
X23622Y323031D02*
D03*
X123622D02*
D03*
X225984D02*
D03*
D29*
X23622Y336811D02*
D03*
X123622D02*
D03*
X225984D02*
D03*
D30*
X109449Y281496D02*
D03*
Y124016D02*
D03*
X179528Y281496D02*
D03*
Y124016D02*
D03*
X279528Y123228D02*
D03*
Y280709D02*
D03*
X209449Y123228D02*
D03*
Y280709D02*
D03*
X11024Y281890D02*
D03*
Y124409D02*
D03*
X81102Y281890D02*
D03*
Y124409D02*
D03*
D31*
X52559Y74803D02*
D03*
Y90551D02*
D03*
Y82677D02*
D03*
X97638Y65748D02*
D03*
X140551Y19684D02*
D03*
X97638D02*
D03*
X275984Y93898D02*
D03*
X260236D02*
D03*
X268110D02*
D03*
X140551Y65748D02*
D03*
X183465D02*
D03*
X226378D02*
D03*
X18504Y81693D02*
D03*
X226378Y19684D02*
D03*
X183465D02*
D03*
D32*
X52559Y98425D02*
D03*
X87795Y65748D02*
D03*
X130709Y19684D02*
D03*
X87795D02*
D03*
X130709Y65748D02*
D03*
X173622D02*
D03*
X216535D02*
D03*
X216535Y19684D02*
D03*
X173622D02*
D03*
D33*
X20472Y52362D02*
D03*
D34*
X30315D02*
D03*
X38189D02*
D03*
X48031D02*
D03*
D35*
X8386Y41693D02*
D03*
X60118D02*
D03*
D36*
X252362Y93898D02*
D03*
X18504Y91535D02*
D03*
M02*
