G04*
G04 #@! TF.GenerationSoftware,Altium Limited,Altium Designer,20.1.8 (145)*
G04*
G04 Layer_Physical_Order=2*
G04 Layer_Color=16711680*
%FSLAX25Y25*%
%MOIN*%
G70*
G04*
G04 #@! TF.SameCoordinates,1FDAB6DA-E141-4DA2-B8DD-458AA00E26A3*
G04*
G04*
G04 #@! TF.FilePolarity,Positive*
G04*
G01*
G75*
%ADD14C,0.01000*%
%ADD17C,0.01968*%
%ADD28C,0.05118*%
%ADD29R,0.05118X0.05118*%
%ADD37C,0.03937*%
%ADD38C,0.02953*%
%ADD39C,0.11811*%
%ADD40C,0.21717*%
%ADD41R,0.21717X0.21717*%
%ADD42R,0.06299X0.06299*%
%ADD43C,0.05906*%
%ADD44R,0.05906X0.05906*%
%ADD45R,0.05622X0.05622*%
%ADD46C,0.05622*%
%ADD47C,0.13055*%
%ADD48R,0.05906X0.05906*%
%ADD49C,0.02362*%
%ADD50R,0.01968X0.03937*%
G36*
X60890Y356693D02*
X60949Y356193D01*
X59316Y355801D01*
X57592Y355087D01*
X56001Y354111D01*
X54581Y352899D01*
X53369Y351480D01*
X52394Y349888D01*
X51679Y348164D01*
X51244Y346349D01*
X51097Y344488D01*
X51244Y342627D01*
X51679Y340812D01*
X52394Y339088D01*
X53369Y337496D01*
X54581Y336077D01*
X56001Y334865D01*
X57592Y333890D01*
X59316Y333175D01*
X61131Y332740D01*
X62992Y332593D01*
X64853Y332740D01*
X66668Y333175D01*
X68392Y333890D01*
X69984Y334865D01*
X71403Y336077D01*
X72615Y337496D01*
X73591Y339088D01*
X74305Y340812D01*
X74741Y342627D01*
X74887Y344488D01*
X74741Y346349D01*
X74305Y348164D01*
X73591Y349888D01*
X72615Y351480D01*
X71403Y352899D01*
X69984Y354111D01*
X68392Y355087D01*
X66668Y355801D01*
X65035Y356193D01*
X65094Y356693D01*
X160496Y356693D01*
X160555Y356193D01*
X158923Y355801D01*
X157198Y355087D01*
X155607Y354111D01*
X154187Y352899D01*
X152975Y351480D01*
X152000Y349888D01*
X151286Y348164D01*
X151122Y347482D01*
X150000D01*
X149225Y347380D01*
X148503Y347081D01*
X147883Y346605D01*
X140009Y338731D01*
X139533Y338111D01*
X139234Y337389D01*
X139132Y336614D01*
Y124409D01*
X139234Y123635D01*
X139533Y122912D01*
X140009Y122292D01*
X158513Y103788D01*
X159133Y103313D01*
X159432Y103189D01*
X159855Y103013D01*
X160630Y102911D01*
X185433D01*
X186208Y103013D01*
X186930Y103313D01*
X187550Y103788D01*
X188026Y104408D01*
X188325Y105131D01*
X188427Y105905D01*
X188325Y106680D01*
X188026Y107403D01*
X187550Y108023D01*
X186930Y108499D01*
X186208Y108798D01*
X185433Y108900D01*
X161870D01*
X145120Y125650D01*
Y335374D01*
X150783Y341037D01*
X151264Y340901D01*
X151286Y340812D01*
X152000Y339088D01*
X152975Y337496D01*
X154187Y336077D01*
X155607Y334865D01*
X157198Y333890D01*
X158923Y333175D01*
X160738Y332740D01*
X162598Y332593D01*
X164459Y332740D01*
X166274Y333175D01*
X167999Y333890D01*
X169590Y334865D01*
X171009Y336077D01*
X172222Y337496D01*
X173197Y339088D01*
X173911Y340812D01*
X174347Y342627D01*
X174493Y344488D01*
X174347Y346349D01*
X173911Y348164D01*
X173197Y349888D01*
X172222Y351480D01*
X171009Y352899D01*
X169590Y354111D01*
X167999Y355087D01*
X166274Y355801D01*
X164641Y356193D01*
X164701Y356693D01*
X262465Y356693D01*
X262524Y356193D01*
X260891Y355801D01*
X259167Y355087D01*
X257575Y354111D01*
X256156Y352899D01*
X254944Y351480D01*
X253969Y349888D01*
X253254Y348164D01*
X252818Y346349D01*
X252672Y344488D01*
X252818Y342627D01*
X253254Y340812D01*
X253969Y339088D01*
X254944Y337496D01*
X256156Y336077D01*
X257575Y334865D01*
X259167Y333890D01*
X260891Y333175D01*
X262706Y332740D01*
X264567Y332593D01*
X266428Y332740D01*
X268243Y333175D01*
X269967Y333890D01*
X271559Y334865D01*
X272978Y336077D01*
X274190Y337496D01*
X275165Y339088D01*
X275880Y340812D01*
X276315Y342627D01*
X276462Y344488D01*
X276315Y346349D01*
X275880Y348164D01*
X275165Y349888D01*
X274190Y351480D01*
X272978Y352899D01*
X271559Y354111D01*
X269967Y355087D01*
X268243Y355801D01*
X266610Y356193D01*
X266669Y356693D01*
X285827D01*
X285827Y7874D01*
X5311Y7874D01*
X5282Y34279D01*
X5782Y34617D01*
X6910Y34274D01*
X8386Y34129D01*
X9861Y34274D01*
X11280Y34705D01*
X12588Y35404D01*
X13734Y36344D01*
X14675Y37491D01*
X15374Y38798D01*
X15804Y40217D01*
X15950Y41693D01*
X15804Y43169D01*
X15374Y44587D01*
X14675Y45895D01*
X13734Y47041D01*
X12588Y47982D01*
X11280Y48681D01*
X9861Y49112D01*
X8386Y49257D01*
X6910Y49112D01*
X5766Y48764D01*
X5266Y49093D01*
X5245Y67426D01*
X5707Y67618D01*
X11269Y62056D01*
X11889Y61580D01*
X12188Y61456D01*
X12611Y61281D01*
X13386Y61179D01*
X62933D01*
X77607Y46505D01*
X78227Y46029D01*
X78949Y45730D01*
X79724Y45628D01*
X220216D01*
X240796Y25048D01*
X241416Y24572D01*
X242139Y24273D01*
X242913Y24171D01*
X256252D01*
Y15307D01*
X279969D01*
Y39024D01*
X256252D01*
Y30160D01*
X244154D01*
X223574Y50739D01*
X219530Y54783D01*
Y61795D01*
X220488D01*
Y69701D01*
X212583D01*
Y61795D01*
X213541D01*
Y53543D01*
X213643Y52768D01*
X213913Y52116D01*
X213719Y51616D01*
X80965D01*
X66290Y66290D01*
X65670Y66766D01*
X64948Y67065D01*
X64173Y67167D01*
X14626D01*
X10081Y71713D01*
Y84193D01*
X14051Y88163D01*
X14551Y87956D01*
Y87583D01*
X22457D01*
Y95488D01*
X14551D01*
Y94529D01*
X13189D01*
X12414Y94428D01*
X11991Y94252D01*
X11692Y94128D01*
X11072Y93653D01*
X5684Y88265D01*
X5222Y88456D01*
X4926Y356339D01*
X5280Y356693D01*
X60890D01*
D02*
G37*
%LPC*%
G36*
X127181Y340370D02*
X120063D01*
Y333252D01*
X127181D01*
Y340370D01*
D02*
G37*
G36*
X27181D02*
X20063D01*
Y333252D01*
X27181D01*
Y340370D01*
D02*
G37*
G36*
X24122Y326555D02*
Y323532D01*
X27146D01*
X27090Y323961D01*
X26731Y324826D01*
X26160Y325570D01*
X25417Y326140D01*
X24551Y326499D01*
X24122Y326555D01*
D02*
G37*
G36*
X23122Y326555D02*
X22693Y326499D01*
X21827Y326140D01*
X21084Y325570D01*
X20513Y324826D01*
X20155Y323961D01*
X20098Y323532D01*
X23122D01*
Y326555D01*
D02*
G37*
G36*
Y322532D02*
X20098D01*
X20155Y322102D01*
X20513Y321237D01*
X21084Y320493D01*
X21827Y319923D01*
X22693Y319564D01*
X23122Y319508D01*
Y322532D01*
D02*
G37*
G36*
X27146D02*
X24122D01*
Y319508D01*
X24551Y319564D01*
X25417Y319923D01*
X26160Y320493D01*
X26731Y321237D01*
X27090Y322102D01*
X27146Y322532D01*
D02*
G37*
G36*
X123622Y326621D02*
X122693Y326499D01*
X121827Y326140D01*
X121084Y325570D01*
X120513Y324826D01*
X120155Y323961D01*
X120032Y323031D01*
X120155Y322102D01*
X120513Y321237D01*
X121084Y320493D01*
X121827Y319923D01*
X122693Y319564D01*
X123622Y319442D01*
X124551Y319564D01*
X125417Y319923D01*
X126160Y320493D01*
X126731Y321237D01*
X127090Y322102D01*
X127212Y323031D01*
X127090Y323961D01*
X126731Y324826D01*
X126160Y325570D01*
X125417Y326140D01*
X124551Y326499D01*
X123622Y326621D01*
D02*
G37*
G36*
X74850Y328000D02*
X63492D01*
Y316642D01*
X74850D01*
Y328000D01*
D02*
G37*
G36*
X62492D02*
X51134D01*
Y316642D01*
X62492D01*
Y328000D01*
D02*
G37*
G36*
X276425D02*
X252709D01*
Y304283D01*
X276425D01*
Y328000D01*
D02*
G37*
G36*
X174457D02*
X150740D01*
Y304283D01*
X174457D01*
Y328000D01*
D02*
G37*
G36*
X74850Y315642D02*
X63492D01*
Y304283D01*
X74850D01*
Y315642D01*
D02*
G37*
G36*
X62492D02*
X51134D01*
Y304283D01*
X62492D01*
Y315642D01*
D02*
G37*
G36*
X15173Y286039D02*
X11524D01*
Y282390D01*
X15173D01*
Y286039D01*
D02*
G37*
G36*
X10524D02*
X6874D01*
Y282390D01*
X10524D01*
Y286039D01*
D02*
G37*
G36*
X113598Y285646D02*
X109949D01*
Y281996D01*
X113598D01*
Y285646D01*
D02*
G37*
G36*
X108949D02*
X105299D01*
Y281996D01*
X108949D01*
Y285646D01*
D02*
G37*
G36*
X213598Y284858D02*
X209949D01*
Y281209D01*
X213598D01*
Y284858D01*
D02*
G37*
G36*
X208949D02*
X205299D01*
Y281209D01*
X208949D01*
Y284858D01*
D02*
G37*
G36*
X85252Y286039D02*
X76953D01*
Y277740D01*
X85252D01*
Y286039D01*
D02*
G37*
G36*
X15173Y281390D02*
X11524D01*
Y277740D01*
X15173D01*
Y281390D01*
D02*
G37*
G36*
X10524D02*
X6874D01*
Y277740D01*
X10524D01*
Y281390D01*
D02*
G37*
G36*
X183677Y285646D02*
X175378D01*
Y277346D01*
X183677D01*
Y285646D01*
D02*
G37*
G36*
X113598Y280996D02*
X109949D01*
Y277346D01*
X113598D01*
Y280996D01*
D02*
G37*
G36*
X108949D02*
X105299D01*
Y277346D01*
X108949D01*
Y280996D01*
D02*
G37*
G36*
X283677Y284858D02*
X275378D01*
Y283234D01*
X260630D01*
X259664Y283041D01*
X258844Y282494D01*
X247821Y271470D01*
X247274Y270651D01*
X247081Y269685D01*
Y129134D01*
X247274Y128168D01*
X247821Y127348D01*
X273459Y101710D01*
Y96943D01*
X273165Y96717D01*
X272532Y95891D01*
X272318Y95375D01*
X271777D01*
X271563Y95891D01*
X270929Y96717D01*
X270104Y97350D01*
X269142Y97749D01*
X268610Y97819D01*
Y93898D01*
Y89977D01*
X269142Y90047D01*
X270104Y90445D01*
X270929Y91079D01*
X271563Y91904D01*
X271777Y92420D01*
X272318D01*
X272532Y91904D01*
X273165Y91079D01*
X273991Y90445D01*
X274952Y90047D01*
X275984Y89911D01*
X277016Y90047D01*
X277978Y90445D01*
X278803Y91079D01*
X279437Y91904D01*
X279835Y92866D01*
X279971Y93898D01*
X279835Y94929D01*
X279437Y95891D01*
X278803Y96717D01*
X278509Y96943D01*
Y102756D01*
X278317Y103722D01*
X277770Y104541D01*
X252131Y130180D01*
Y268639D01*
X261676Y278184D01*
X275378D01*
Y276559D01*
X283677D01*
Y284858D01*
D02*
G37*
G36*
X213598Y280209D02*
X209949D01*
Y276559D01*
X213598D01*
Y280209D01*
D02*
G37*
G36*
X208949D02*
X205299D01*
Y276559D01*
X208949D01*
Y280209D01*
D02*
G37*
G36*
X269045Y268356D02*
X267692Y268223D01*
X266390Y267828D01*
X265190Y267187D01*
X264139Y266324D01*
X263276Y265272D01*
X262635Y264073D01*
X262240Y262771D01*
X262106Y261417D01*
X262240Y260064D01*
X262635Y258762D01*
X263276Y257562D01*
X264139Y256511D01*
X265190Y255648D01*
X266390Y255007D01*
X267692Y254612D01*
X269045Y254478D01*
X270399Y254612D01*
X271701Y255007D01*
X272900Y255648D01*
X273952Y256511D01*
X274815Y257562D01*
X275456Y258762D01*
X275851Y260064D01*
X275984Y261417D01*
X275851Y262771D01*
X275456Y264073D01*
X274815Y265272D01*
X273952Y266324D01*
X272900Y267187D01*
X271701Y267828D01*
X270399Y268223D01*
X269045Y268356D01*
D02*
G37*
G36*
X19685D02*
X18331Y268223D01*
X17030Y267828D01*
X15830Y267187D01*
X14778Y266324D01*
X13916Y265272D01*
X13274Y264073D01*
X12879Y262771D01*
X12746Y261417D01*
X12879Y260064D01*
X13274Y258762D01*
X13916Y257562D01*
X14778Y256511D01*
X15830Y255648D01*
X17030Y255007D01*
X18331Y254612D01*
X19685Y254478D01*
X21039Y254612D01*
X22341Y255007D01*
X23540Y255648D01*
X24592Y256511D01*
X25455Y257562D01*
X26096Y258762D01*
X26491Y260064D01*
X26624Y261417D01*
X26491Y262771D01*
X26096Y264073D01*
X25455Y265272D01*
X24592Y266324D01*
X23540Y267187D01*
X22341Y267828D01*
X21039Y268223D01*
X19685Y268356D01*
D02*
G37*
G36*
X179027Y249425D02*
X173606D01*
Y248480D01*
X168615D01*
X168568Y248511D01*
X167717Y248680D01*
X166866Y248511D01*
X166144Y248029D01*
X165662Y247308D01*
X165493Y246457D01*
X165662Y245606D01*
X166144Y244884D01*
X166866Y244402D01*
X167717Y244233D01*
X168568Y244402D01*
X168615Y244434D01*
X173606D01*
Y243488D01*
X179027D01*
Y246457D01*
Y249425D01*
D02*
G37*
G36*
X222850D02*
X221366D01*
Y246957D01*
X222850D01*
Y249425D01*
D02*
G37*
G36*
Y245957D02*
X221366D01*
Y243488D01*
X222850D01*
Y245957D01*
D02*
G37*
G36*
X225984Y326621D02*
X225055Y326499D01*
X224189Y326140D01*
X223446Y325570D01*
X222875Y324826D01*
X222517Y323961D01*
X222394Y323031D01*
X222517Y322102D01*
X222875Y321237D01*
X222990Y321087D01*
Y272894D01*
X199547Y249451D01*
X184646D01*
X184451Y249425D01*
X180027D01*
Y246457D01*
Y243488D01*
X184451D01*
X184646Y243463D01*
X193458D01*
X193525Y243430D01*
X193872Y242963D01*
X193807Y242471D01*
Y101919D01*
X193909Y101144D01*
X194208Y100422D01*
X194684Y99802D01*
X195304Y99326D01*
X196026Y99027D01*
X196801Y98925D01*
X197576Y99027D01*
X198298Y99326D01*
X198918Y99802D01*
X199394Y100422D01*
X199693Y101144D01*
X199795Y101919D01*
Y241230D01*
X202028Y243463D01*
X211811D01*
X212006Y243488D01*
X214906D01*
Y238583D01*
X215060Y237808D01*
X215499Y237152D01*
X216438Y236212D01*
X216449Y236157D01*
X216931Y235435D01*
X217653Y234953D01*
X218504Y234784D01*
X219355Y234953D01*
X220076Y235435D01*
X220559Y236157D01*
X220728Y237008D01*
X220559Y237859D01*
X220076Y238580D01*
X219355Y239062D01*
X219300Y239073D01*
X218952Y239421D01*
Y243488D01*
X220366D01*
Y246457D01*
Y249425D01*
X212006D01*
X211811Y249451D01*
X208669D01*
X208478Y249913D01*
X228101Y269536D01*
X228577Y270157D01*
X228876Y270879D01*
X228978Y271654D01*
Y321087D01*
X229093Y321237D01*
X229452Y322102D01*
X229574Y323031D01*
X229452Y323961D01*
X229093Y324826D01*
X228523Y325570D01*
X227779Y326140D01*
X226913Y326499D01*
X225984Y326621D01*
D02*
G37*
G36*
X269045Y155364D02*
X267692Y155231D01*
X266390Y154836D01*
X265190Y154195D01*
X264139Y153332D01*
X263276Y152280D01*
X262635Y151081D01*
X262240Y149779D01*
X262106Y148425D01*
X262240Y147072D01*
X262635Y145770D01*
X263276Y144570D01*
X264139Y143519D01*
X265190Y142656D01*
X266390Y142015D01*
X267692Y141620D01*
X269045Y141486D01*
X270399Y141620D01*
X271701Y142015D01*
X272900Y142656D01*
X273952Y143519D01*
X274815Y144570D01*
X275456Y145770D01*
X275851Y147072D01*
X275984Y148425D01*
X275851Y149779D01*
X275456Y151081D01*
X274815Y152280D01*
X273952Y153332D01*
X272900Y154195D01*
X271701Y154836D01*
X270399Y155231D01*
X269045Y155364D01*
D02*
G37*
G36*
X19685D02*
X18331Y155231D01*
X17030Y154836D01*
X15830Y154195D01*
X14778Y153332D01*
X13916Y152280D01*
X13274Y151081D01*
X12879Y149779D01*
X12746Y148425D01*
X12879Y147072D01*
X13274Y145770D01*
X13916Y144570D01*
X14778Y143519D01*
X15830Y142656D01*
X17030Y142015D01*
X18331Y141620D01*
X19685Y141486D01*
X21039Y141620D01*
X22341Y142015D01*
X23540Y142656D01*
X24592Y143519D01*
X25455Y144570D01*
X26096Y145770D01*
X26491Y147072D01*
X26624Y148425D01*
X26491Y149779D01*
X26096Y151081D01*
X25455Y152280D01*
X24592Y153332D01*
X23540Y154195D01*
X22341Y154836D01*
X21039Y155231D01*
X19685Y155364D01*
D02*
G37*
G36*
X85252Y128559D02*
X76953D01*
Y120260D01*
X85252D01*
Y128559D01*
D02*
G37*
G36*
X15173D02*
X6874D01*
Y120260D01*
X15173D01*
Y128559D01*
D02*
G37*
G36*
X183677Y128165D02*
X175378D01*
Y119866D01*
X183677D01*
Y128165D01*
D02*
G37*
G36*
X113598D02*
X105299D01*
Y119866D01*
X113598D01*
Y128165D01*
D02*
G37*
G36*
X283677Y127378D02*
X275378D01*
Y119079D01*
X283677D01*
Y127378D01*
D02*
G37*
G36*
X213598D02*
X205299D01*
Y119079D01*
X213598D01*
Y127378D01*
D02*
G37*
G36*
X144988Y106061D02*
Y104437D01*
X146613D01*
X146543Y104788D01*
X146061Y105509D01*
X145339Y105992D01*
X144988Y106061D01*
D02*
G37*
G36*
X143988D02*
X143637Y105992D01*
X142916Y105509D01*
X142434Y104788D01*
X142364Y104437D01*
X143988D01*
Y106061D01*
D02*
G37*
G36*
X146613Y103437D02*
X144988D01*
Y101813D01*
X145339Y101883D01*
X146061Y102365D01*
X146543Y103086D01*
X146613Y103437D01*
D02*
G37*
G36*
X143988D02*
X142364D01*
X142434Y103086D01*
X142916Y102365D01*
X143637Y101883D01*
X143988Y101813D01*
Y103437D01*
D02*
G37*
G36*
X260236Y97885D02*
X259204Y97749D01*
X258243Y97350D01*
X257417Y96717D01*
X256815Y95932D01*
X256759Y95932D01*
X256315Y96267D01*
Y97850D01*
X248410D01*
Y89945D01*
X256315D01*
Y91528D01*
X256759Y91864D01*
X256815Y91863D01*
X257417Y91079D01*
X258243Y90445D01*
X259204Y90047D01*
X260236Y89911D01*
X261268Y90047D01*
X262230Y90445D01*
X263055Y91079D01*
X263689Y91904D01*
X263903Y92420D01*
X264444D01*
X264657Y91904D01*
X265291Y91079D01*
X266117Y90445D01*
X267078Y90047D01*
X267610Y89977D01*
Y93898D01*
Y97819D01*
X267078Y97749D01*
X266117Y97350D01*
X265291Y96717D01*
X264657Y95891D01*
X264444Y95375D01*
X263903D01*
X263689Y95891D01*
X263055Y96717D01*
X262230Y97350D01*
X261268Y97749D01*
X260236Y97885D01*
D02*
G37*
G36*
X229543Y340370D02*
X222425D01*
Y333252D01*
X229543D01*
Y333817D01*
X230453D01*
X236376Y327894D01*
Y95283D01*
X235914Y95092D01*
X225345Y105660D01*
X224725Y106136D01*
X224003Y106435D01*
X223228Y106537D01*
X222453Y106435D01*
X221731Y106136D01*
X221111Y105660D01*
X220635Y105040D01*
X220336Y104318D01*
X220234Y103543D01*
X220336Y102768D01*
X220635Y102046D01*
X221111Y101426D01*
X236376Y86161D01*
Y73228D01*
X236478Y72453D01*
X236777Y71731D01*
X237253Y71111D01*
X253635Y54729D01*
X254255Y54254D01*
X254554Y54130D01*
X254977Y53954D01*
X255752Y53852D01*
X256346D01*
X256362Y53651D01*
X256798Y51836D01*
X257512Y50112D01*
X258487Y48520D01*
X259699Y47101D01*
X261119Y45889D01*
X262710Y44913D01*
X264435Y44199D01*
X266249Y43763D01*
X268110Y43617D01*
X269971Y43763D01*
X271786Y44199D01*
X273510Y44913D01*
X275102Y45889D01*
X276521Y47101D01*
X277733Y48520D01*
X278709Y50112D01*
X279423Y51836D01*
X279859Y53651D01*
X280005Y55512D01*
X279859Y57373D01*
X279423Y59188D01*
X278709Y60912D01*
X277733Y62503D01*
X276521Y63923D01*
X275102Y65135D01*
X273510Y66110D01*
X271786Y66825D01*
X269971Y67260D01*
X268110Y67407D01*
X266249Y67260D01*
X264435Y66825D01*
X262710Y66110D01*
X261119Y65135D01*
X259699Y63923D01*
X258487Y62503D01*
X257512Y60912D01*
X257253Y60287D01*
X256663Y60170D01*
X242364Y74469D01*
Y87402D01*
Y329134D01*
X242262Y329909D01*
X241963Y330631D01*
X241487Y331251D01*
X233810Y338928D01*
X233190Y339404D01*
X232468Y339703D01*
X231693Y339805D01*
X229543D01*
Y340370D01*
D02*
G37*
G36*
X56512Y102378D02*
X48606D01*
Y94472D01*
X50190D01*
X50525Y94028D01*
X50525Y93972D01*
X49740Y93370D01*
X49106Y92545D01*
X48708Y91583D01*
X48572Y90551D01*
X48708Y89519D01*
X49106Y88558D01*
X49740Y87732D01*
X50566Y87098D01*
X51082Y86885D01*
Y86344D01*
X50566Y86130D01*
X49740Y85496D01*
X49106Y84671D01*
X48708Y83709D01*
X48572Y82677D01*
X48708Y81645D01*
X49106Y80684D01*
X49740Y79858D01*
X50566Y79224D01*
X51082Y79011D01*
Y78470D01*
X50566Y78256D01*
X49740Y77622D01*
X49106Y76797D01*
X48708Y75835D01*
X48572Y74803D01*
X48708Y73771D01*
X49106Y72810D01*
X49740Y71984D01*
X50566Y71350D01*
X51527Y70952D01*
X52559Y70816D01*
X53591Y70952D01*
X54553Y71350D01*
X55378Y71984D01*
X56012Y72810D01*
X56410Y73771D01*
X56546Y74803D01*
X56410Y75835D01*
X56012Y76797D01*
X55378Y77622D01*
X54553Y78256D01*
X54037Y78470D01*
Y79011D01*
X54553Y79224D01*
X55378Y79858D01*
X56012Y80684D01*
X56410Y81645D01*
X56546Y82677D01*
X56410Y83709D01*
X56012Y84671D01*
X55378Y85496D01*
X54553Y86130D01*
X54037Y86344D01*
Y86885D01*
X54553Y87098D01*
X55378Y87732D01*
X56012Y88558D01*
X56410Y89519D01*
X56546Y90551D01*
X56410Y91583D01*
X56012Y92545D01*
X55378Y93370D01*
X54593Y93972D01*
X54593Y94028D01*
X54928Y94472D01*
X56512D01*
Y102378D01*
D02*
G37*
G36*
X177575Y69701D02*
X169669D01*
Y61795D01*
X177575D01*
Y69701D01*
D02*
G37*
G36*
X134661D02*
X126756D01*
Y61795D01*
X134661D01*
Y69701D01*
D02*
G37*
G36*
X91748D02*
X83842D01*
Y61795D01*
X91748D01*
Y69701D01*
D02*
G37*
G36*
X67323Y112837D02*
X42913D01*
X42138Y112735D01*
X41715Y112559D01*
X41416Y112435D01*
X40796Y111960D01*
X31741Y102905D01*
X31265Y102285D01*
X30966Y101562D01*
X30864Y100787D01*
Y88642D01*
X26909Y84687D01*
X21095D01*
X20497Y85146D01*
X19536Y85544D01*
X18504Y85680D01*
X17472Y85544D01*
X16511Y85146D01*
X15685Y84512D01*
X15051Y83686D01*
X14653Y82725D01*
X14517Y81693D01*
X14653Y80661D01*
X15051Y79699D01*
X15685Y78874D01*
X16511Y78240D01*
X17472Y77842D01*
X18504Y77706D01*
X19536Y77842D01*
X20497Y78240D01*
X21095Y78699D01*
X28150D01*
X28925Y78801D01*
X29647Y79100D01*
X30267Y79576D01*
X35975Y85284D01*
X36451Y85905D01*
X36750Y86627D01*
X36852Y87402D01*
Y99547D01*
X44154Y106848D01*
X66083D01*
X74171Y98760D01*
Y85827D01*
X74273Y85052D01*
X74572Y84330D01*
X75048Y83710D01*
X81741Y77017D01*
X82361Y76541D01*
X83083Y76242D01*
X83858Y76140D01*
X220413D01*
X223384Y73169D01*
Y68339D01*
X222925Y67742D01*
X222527Y66780D01*
X222391Y65748D01*
X222527Y64716D01*
X222925Y63755D01*
X223559Y62929D01*
X224384Y62295D01*
X225346Y61897D01*
X226378Y61761D01*
X227410Y61897D01*
X228371Y62295D01*
X229197Y62929D01*
X229831Y63755D01*
X230229Y64716D01*
X230365Y65748D01*
X230229Y66780D01*
X229831Y67742D01*
X229372Y68339D01*
Y74410D01*
X229270Y75184D01*
X228971Y75906D01*
X228495Y76527D01*
X223771Y81251D01*
X223151Y81727D01*
X222428Y82026D01*
X221654Y82128D01*
X85098D01*
X80159Y87067D01*
Y100000D01*
X80057Y100775D01*
X79758Y101497D01*
X79282Y102117D01*
X69440Y111960D01*
X68820Y112435D01*
X68098Y112735D01*
X67323Y112837D01*
D02*
G37*
G36*
X183465Y69735D02*
X182433Y69599D01*
X181471Y69201D01*
X180645Y68567D01*
X180012Y67742D01*
X179614Y66780D01*
X179478Y65748D01*
X179614Y64716D01*
X180012Y63755D01*
X180645Y62929D01*
X181471Y62295D01*
X182433Y61897D01*
X183465Y61761D01*
X184496Y61897D01*
X185458Y62295D01*
X186284Y62929D01*
X186917Y63755D01*
X187316Y64716D01*
X187451Y65748D01*
X187316Y66780D01*
X186917Y67742D01*
X186284Y68567D01*
X185458Y69201D01*
X184496Y69599D01*
X183465Y69735D01*
D02*
G37*
G36*
X140551D02*
X139519Y69599D01*
X138558Y69201D01*
X137732Y68567D01*
X137099Y67742D01*
X136700Y66780D01*
X136564Y65748D01*
X136700Y64716D01*
X137099Y63755D01*
X137732Y62929D01*
X138558Y62295D01*
X139519Y61897D01*
X140551Y61761D01*
X141583Y61897D01*
X142545Y62295D01*
X143370Y62929D01*
X144004Y63755D01*
X144402Y64716D01*
X144538Y65748D01*
X144402Y66780D01*
X144004Y67742D01*
X143370Y68567D01*
X142545Y69201D01*
X141583Y69599D01*
X140551Y69735D01*
D02*
G37*
G36*
X97638D02*
X96606Y69599D01*
X95644Y69201D01*
X94819Y68567D01*
X94185Y67742D01*
X93787Y66780D01*
X93651Y65748D01*
X93787Y64716D01*
X94185Y63755D01*
X94819Y62929D01*
X95644Y62295D01*
X96606Y61897D01*
X97638Y61761D01*
X98670Y61897D01*
X99631Y62295D01*
X100457Y62929D01*
X101091Y63755D01*
X101489Y64716D01*
X101625Y65748D01*
X101489Y66780D01*
X101091Y67742D01*
X100457Y68567D01*
X99631Y69201D01*
X98670Y69599D01*
X97638Y69735D01*
D02*
G37*
G36*
X38189Y56206D02*
X37194Y56075D01*
X36267Y55691D01*
X35471Y55080D01*
X34860Y54284D01*
X34512Y53443D01*
X34252Y53397D01*
X33992Y53443D01*
X33644Y54284D01*
X33033Y55080D01*
X32237Y55691D01*
X31310Y56075D01*
X30315Y56206D01*
X29320Y56075D01*
X28393Y55691D01*
X27597Y55080D01*
X26986Y54284D01*
X26602Y53357D01*
X26471Y52362D01*
X26602Y51367D01*
X26986Y50440D01*
X27597Y49644D01*
X28393Y49033D01*
X29320Y48649D01*
X30315Y48518D01*
X31310Y48649D01*
X32237Y49033D01*
X33033Y49644D01*
X33644Y50440D01*
X33992Y51281D01*
X34252Y51328D01*
X34512Y51281D01*
X34860Y50440D01*
X35471Y49644D01*
X36267Y49033D01*
X37194Y48649D01*
X38189Y48518D01*
X39184Y48649D01*
X40111Y49033D01*
X40907Y49644D01*
X41518Y50440D01*
X41902Y51367D01*
X42033Y52362D01*
X41902Y53357D01*
X41518Y54284D01*
X40907Y55080D01*
X40111Y55691D01*
X39184Y56075D01*
X38189Y56206D01*
D02*
G37*
G36*
X24284Y56173D02*
X16661D01*
Y48551D01*
X24284D01*
Y56173D01*
D02*
G37*
G36*
X48031Y56206D02*
X47037Y56075D01*
X46110Y55691D01*
X45314Y55080D01*
X44703Y54284D01*
X44319Y53357D01*
X44188Y52362D01*
X44319Y51367D01*
X44703Y50440D01*
X45314Y49644D01*
X46110Y49033D01*
X47037Y48649D01*
X48031Y48518D01*
X49026Y48649D01*
X49953Y49033D01*
X50749Y49644D01*
X51360Y50440D01*
X51744Y51367D01*
X51875Y52362D01*
X51744Y53357D01*
X51360Y54284D01*
X50749Y55080D01*
X49953Y55691D01*
X49026Y56075D01*
X48031Y56206D01*
D02*
G37*
G36*
X60118Y49257D02*
X58642Y49112D01*
X57223Y48681D01*
X55916Y47982D01*
X54770Y47041D01*
X53829Y45895D01*
X53130Y44587D01*
X52700Y43169D01*
X52554Y41693D01*
X52700Y40217D01*
X53130Y38798D01*
X53829Y37491D01*
X54770Y36344D01*
X55916Y35404D01*
X57223Y34705D01*
X58642Y34274D01*
X60118Y34129D01*
X61594Y34274D01*
X63013Y34705D01*
X64320Y35404D01*
X65467Y36344D01*
X66407Y37491D01*
X67106Y38798D01*
X67537Y40217D01*
X67682Y41693D01*
X67537Y43169D01*
X67106Y44587D01*
X66407Y45895D01*
X65467Y47041D01*
X64320Y47982D01*
X63013Y48681D01*
X61594Y49112D01*
X60118Y49257D01*
D02*
G37*
G36*
X220488Y23637D02*
X217035D01*
Y20185D01*
X220488D01*
Y23637D01*
D02*
G37*
G36*
X216035D02*
X212583D01*
Y20185D01*
X216035D01*
Y23637D01*
D02*
G37*
G36*
X91748D02*
X88295D01*
Y20185D01*
X91748D01*
Y23637D01*
D02*
G37*
G36*
X87295D02*
X83842D01*
Y20185D01*
X87295D01*
Y23637D01*
D02*
G37*
G36*
X177575D02*
X174122D01*
Y20185D01*
X177575D01*
Y23637D01*
D02*
G37*
G36*
X173122D02*
X169669D01*
Y20185D01*
X173122D01*
Y23637D01*
D02*
G37*
G36*
X220488Y19184D02*
X217035D01*
Y15732D01*
X220488D01*
Y19184D01*
D02*
G37*
G36*
X216035D02*
X212583D01*
Y15732D01*
X216035D01*
Y19184D01*
D02*
G37*
G36*
X177575Y19184D02*
X174122D01*
Y15732D01*
X177575D01*
Y19184D01*
D02*
G37*
G36*
X173122D02*
X169669D01*
Y15732D01*
X173122D01*
Y19184D01*
D02*
G37*
G36*
X134661Y23637D02*
X126756D01*
Y15732D01*
X134661D01*
Y23637D01*
D02*
G37*
G36*
X91748Y19184D02*
X88295D01*
Y15732D01*
X91748D01*
Y19184D01*
D02*
G37*
G36*
X87295D02*
X83842D01*
Y15732D01*
X87295D01*
Y19184D01*
D02*
G37*
G36*
X226378Y23671D02*
X225346Y23536D01*
X224384Y23137D01*
X223559Y22504D01*
X222925Y21678D01*
X222527Y20716D01*
X222391Y19684D01*
X222527Y18653D01*
X222925Y17691D01*
X223559Y16865D01*
X224384Y16232D01*
X225346Y15834D01*
X226378Y15698D01*
X227410Y15834D01*
X228371Y16232D01*
X229197Y16865D01*
X229831Y17691D01*
X230229Y18653D01*
X230365Y19684D01*
X230229Y20716D01*
X229831Y21678D01*
X229197Y22504D01*
X228371Y23137D01*
X227410Y23536D01*
X226378Y23671D01*
D02*
G37*
G36*
X183465D02*
X182433Y23536D01*
X181471Y23137D01*
X180645Y22504D01*
X180012Y21678D01*
X179613Y20716D01*
X179478Y19684D01*
X179613Y18653D01*
X180012Y17691D01*
X180645Y16865D01*
X181471Y16232D01*
X182433Y15834D01*
X183465Y15698D01*
X184496Y15834D01*
X185458Y16232D01*
X186284Y16865D01*
X186917Y17691D01*
X187316Y18653D01*
X187451Y19684D01*
X187316Y20716D01*
X186917Y21678D01*
X186284Y22504D01*
X185458Y23137D01*
X184496Y23536D01*
X183465Y23671D01*
D02*
G37*
G36*
X140551D02*
X139519Y23536D01*
X138558Y23137D01*
X137732Y22504D01*
X137099Y21678D01*
X136700Y20716D01*
X136564Y19684D01*
X136700Y18653D01*
X137099Y17691D01*
X137732Y16865D01*
X138558Y16232D01*
X139519Y15834D01*
X140551Y15698D01*
X141583Y15834D01*
X142545Y16232D01*
X143370Y16865D01*
X144004Y17691D01*
X144402Y18653D01*
X144538Y19684D01*
X144402Y20716D01*
X144004Y21678D01*
X143370Y22504D01*
X142545Y23137D01*
X141583Y23536D01*
X140551Y23671D01*
D02*
G37*
G36*
X113386Y43470D02*
X112420Y43278D01*
X111600Y42730D01*
X95852Y26982D01*
X95305Y26163D01*
X95113Y25197D01*
Y22729D01*
X94819Y22504D01*
X94185Y21678D01*
X93787Y20716D01*
X93651Y19684D01*
X93787Y18653D01*
X94185Y17691D01*
X94819Y16865D01*
X95644Y16232D01*
X96606Y15834D01*
X97638Y15698D01*
X98670Y15834D01*
X99631Y16232D01*
X100457Y16865D01*
X101091Y17691D01*
X101489Y18653D01*
X101625Y19684D01*
X101489Y20716D01*
X101091Y21678D01*
X100457Y22504D01*
X100163Y22729D01*
Y24151D01*
X115171Y39160D01*
X115718Y39979D01*
X115911Y40945D01*
X115718Y41911D01*
X115171Y42730D01*
X114352Y43278D01*
X113386Y43470D01*
D02*
G37*
%LPD*%
D14*
X218504Y237008D02*
Y237008D01*
X212598Y246850D02*
X212992Y246457D01*
X266776Y56846D02*
X268110Y55512D01*
X226378Y65748D02*
X226378Y65748D01*
D17*
X167717Y246457D02*
X175591D01*
X216929Y238583D02*
Y246457D01*
Y238583D02*
X218504Y237008D01*
D28*
X23622Y323031D02*
D03*
X123622D02*
D03*
X225984D02*
D03*
D29*
X23622Y336811D02*
D03*
X123622D02*
D03*
X225984D02*
D03*
D37*
X200787Y246457D02*
X211811D01*
X239370Y73228D02*
Y87402D01*
Y73228D02*
X255752Y56846D01*
X239370Y87402D02*
Y329134D01*
X223228Y103543D02*
X239370Y87402D01*
X196801Y242471D02*
X200787Y246457D01*
X160630Y105905D02*
X185433D01*
X142126Y124409D02*
Y336614D01*
Y124409D02*
X160630Y105905D01*
X142126Y336614D02*
X150000Y344488D01*
X162598D01*
X196801Y101919D02*
Y242471D01*
X225984Y336811D02*
X231693D01*
X239370Y329134D01*
X184646Y246457D02*
X200787D01*
X225984Y271654D02*
Y323031D01*
X200787Y246457D02*
X225984Y271654D01*
X255752Y56846D02*
X266776D01*
X221457Y48622D02*
X242913Y27165D01*
X216535Y53543D02*
X221457Y48622D01*
X79724D02*
X221457D01*
X64173Y64173D02*
X79724Y48622D01*
X13386Y64173D02*
X64173D01*
X7087Y70473D02*
Y85433D01*
Y70473D02*
X13386Y64173D01*
X7087Y85433D02*
X13189Y91535D01*
X18504D01*
X67323Y109843D02*
X77165Y100000D01*
X42913Y109843D02*
X67323D01*
X77165Y85827D02*
Y100000D01*
X33858Y87402D02*
Y100787D01*
X42913Y109843D01*
X77165Y85827D02*
X83858Y79134D01*
X18504Y81693D02*
X28150D01*
X33858Y87402D01*
X83858Y79134D02*
X221654D01*
X226378Y65748D02*
Y74410D01*
X221654Y79134D02*
X226378Y74410D01*
X242913Y27165D02*
X268110D01*
X216535Y53543D02*
Y65748D01*
D38*
X249606Y129134D02*
Y269685D01*
X260630Y280709D02*
X279528D01*
X249606Y269685D02*
X260630Y280709D01*
X249606Y129134D02*
X275984Y102756D01*
X97638Y25197D02*
X113386Y40945D01*
X97638Y19684D02*
Y25197D01*
X275984Y93898D02*
Y102756D01*
D39*
X269045Y148425D02*
D03*
Y261417D02*
D03*
X19685Y148425D02*
D03*
Y261417D02*
D03*
D40*
X268110Y55512D02*
D03*
X62992Y344488D02*
D03*
X162598D02*
D03*
X264567D02*
D03*
D41*
X268110Y27165D02*
D03*
X62992Y316142D02*
D03*
X162598D02*
D03*
X264567D02*
D03*
D42*
X109449Y281496D02*
D03*
Y124016D02*
D03*
X179528Y281496D02*
D03*
Y124016D02*
D03*
X279528Y123228D02*
D03*
Y280709D02*
D03*
X209449Y123228D02*
D03*
Y280709D02*
D03*
X11024Y281890D02*
D03*
Y124409D02*
D03*
X81102Y281890D02*
D03*
Y124409D02*
D03*
D43*
X52559Y74803D02*
D03*
Y90551D02*
D03*
Y82677D02*
D03*
X97638Y65748D02*
D03*
X140551Y19684D02*
D03*
X97638D02*
D03*
X275984Y93898D02*
D03*
X260236D02*
D03*
X268110D02*
D03*
X140551Y65748D02*
D03*
X183465D02*
D03*
X226378D02*
D03*
X18504Y81693D02*
D03*
X226378Y19684D02*
D03*
X183465D02*
D03*
D44*
X52559Y98425D02*
D03*
X87795Y65748D02*
D03*
X130709Y19684D02*
D03*
X87795D02*
D03*
X130709Y65748D02*
D03*
X173622D02*
D03*
X216535D02*
D03*
X216535Y19684D02*
D03*
X173622D02*
D03*
D45*
X20472Y52362D02*
D03*
D46*
X30315D02*
D03*
X38189D02*
D03*
X48031D02*
D03*
D47*
X8386Y41693D02*
D03*
X60118D02*
D03*
D48*
X252362Y93898D02*
D03*
X18504Y91535D02*
D03*
D49*
X167717Y246457D02*
D03*
X144488Y103937D02*
D03*
X113386Y40945D02*
D03*
X218504Y237008D02*
D03*
X223228Y103543D02*
D03*
X185433Y105905D02*
D03*
X196801Y101919D02*
D03*
D50*
X183465Y246457D02*
D03*
X179527D02*
D03*
X175591D02*
D03*
X212992D02*
D03*
X216929D02*
D03*
X220866D02*
D03*
M02*
