G04*
G04 #@! TF.GenerationSoftware,Altium Limited,Altium Designer,20.1.8 (145)*
G04*
G04 Layer_Color=32896*
%FSLAX25Y25*%
%MOIN*%
G70*
G04*
G04 #@! TF.SameCoordinates,1FDAB6DA-E141-4DA2-B8DD-458AA00E26A3*
G04*
G04*
G04 #@! TF.FilePolarity,Positive*
G04*
G01*
G75*
%ADD12C,0.00787*%
%ADD17C,0.01968*%
G36*
X214078Y216538D02*
X215321D01*
Y216399D01*
X216289D01*
Y216261D01*
X216980D01*
Y216123D01*
X217533D01*
Y215985D01*
X218086D01*
Y215847D01*
X218500D01*
Y215708D01*
X218915D01*
Y215570D01*
X219329D01*
Y215432D01*
X219744D01*
Y215294D01*
X220020D01*
Y215156D01*
X220435D01*
Y215017D01*
X220711D01*
Y214879D01*
X220988D01*
Y214741D01*
X221402D01*
Y214603D01*
X221679D01*
Y214465D01*
X221955D01*
Y214326D01*
X222232D01*
Y214188D01*
X222508D01*
Y214050D01*
X222646D01*
Y213912D01*
X222923D01*
Y213774D01*
X223199D01*
Y213635D01*
X223337D01*
Y213497D01*
X223614D01*
Y213359D01*
X223890D01*
Y213221D01*
X224028D01*
Y213083D01*
X224305D01*
Y212944D01*
X224443D01*
Y212806D01*
X224581D01*
Y212668D01*
X224857D01*
Y212530D01*
X224996D01*
Y212392D01*
X225272D01*
Y212253D01*
X225410D01*
Y212115D01*
X225548D01*
Y211977D01*
X225687D01*
Y211839D01*
X225963D01*
Y211701D01*
X226101D01*
Y211562D01*
X226239D01*
Y211424D01*
X226378D01*
Y211286D01*
X226516D01*
Y211148D01*
X226654D01*
Y211010D01*
X226792D01*
Y210871D01*
X226930D01*
Y210733D01*
X227069D01*
Y210595D01*
X227207D01*
Y210457D01*
X227345D01*
Y210319D01*
X227483D01*
Y210180D01*
X227621D01*
Y210042D01*
X227760D01*
Y209904D01*
X227898D01*
Y209766D01*
X228036D01*
Y209628D01*
X228174D01*
Y209489D01*
X228312D01*
Y209351D01*
X228451D01*
Y209213D01*
X228589D01*
Y209075D01*
X228727D01*
Y208937D01*
Y208798D01*
X228865D01*
Y208660D01*
X229003D01*
Y208522D01*
X229142D01*
Y208384D01*
X229280D01*
Y208246D01*
Y208107D01*
X229418D01*
Y207969D01*
X229556D01*
Y207831D01*
X229694D01*
Y207693D01*
Y207555D01*
X229833D01*
Y207416D01*
X229971D01*
Y207278D01*
Y207140D01*
X230109D01*
Y207002D01*
X230247D01*
Y206863D01*
Y206725D01*
X230385D01*
Y206587D01*
X230524D01*
Y206449D01*
Y206311D01*
X230662D01*
Y206173D01*
Y206034D01*
X230800D01*
Y205896D01*
Y205758D01*
X230938D01*
Y205620D01*
X231076D01*
Y205482D01*
Y205343D01*
X231215D01*
Y205205D01*
Y205067D01*
X231353D01*
Y204929D01*
Y204790D01*
X231491D01*
Y204652D01*
Y204514D01*
X231629D01*
Y204376D01*
Y204238D01*
X231767D01*
Y204099D01*
Y203961D01*
Y203823D01*
X231906D01*
Y203685D01*
Y203547D01*
X232044D01*
Y203409D01*
Y203270D01*
X232182D01*
Y203132D01*
Y202994D01*
Y202856D01*
X232320D01*
Y202717D01*
Y202579D01*
Y202441D01*
X232458D01*
Y202303D01*
Y202165D01*
Y202027D01*
X232597D01*
Y201888D01*
Y201750D01*
Y201612D01*
X232735D01*
Y201474D01*
Y201336D01*
Y201197D01*
X232873D01*
Y201059D01*
Y200921D01*
Y200783D01*
Y200644D01*
X233011D01*
Y200506D01*
Y200368D01*
Y200230D01*
Y200092D01*
X233149D01*
Y199953D01*
Y199815D01*
Y199677D01*
Y199539D01*
Y199401D01*
X233288D01*
Y199262D01*
Y199124D01*
Y198986D01*
Y198848D01*
Y198710D01*
Y198572D01*
X233426D01*
Y198433D01*
Y198295D01*
Y198157D01*
Y198019D01*
Y197880D01*
Y197742D01*
Y197604D01*
Y197466D01*
X233564D01*
Y197328D01*
Y197189D01*
Y197051D01*
Y196913D01*
Y196775D01*
Y196637D01*
Y196499D01*
Y196360D01*
Y196222D01*
Y196084D01*
Y195946D01*
Y195808D01*
Y195669D01*
Y195531D01*
Y195393D01*
Y195255D01*
Y195116D01*
Y194978D01*
Y194840D01*
Y194702D01*
Y194564D01*
Y194425D01*
Y194287D01*
Y194149D01*
Y194011D01*
Y193873D01*
Y193735D01*
Y193596D01*
Y193458D01*
Y193320D01*
Y193182D01*
Y193043D01*
X233426D01*
Y192905D01*
Y192767D01*
Y192629D01*
Y192491D01*
Y192352D01*
Y192214D01*
Y192076D01*
X233288D01*
Y191938D01*
Y191800D01*
Y191662D01*
Y191523D01*
Y191385D01*
Y191247D01*
X233149D01*
Y191109D01*
Y190971D01*
Y190832D01*
Y190694D01*
Y190556D01*
X233011D01*
Y190418D01*
Y190279D01*
Y190141D01*
Y190003D01*
X232873D01*
Y189865D01*
Y189727D01*
Y189588D01*
Y189450D01*
X232735D01*
Y189312D01*
Y189174D01*
Y189036D01*
X232597D01*
Y188898D01*
Y188759D01*
Y188621D01*
X232458D01*
Y188483D01*
Y188345D01*
Y188207D01*
X232320D01*
Y188068D01*
Y187930D01*
Y187792D01*
X232182D01*
Y187654D01*
Y187515D01*
Y187377D01*
X232044D01*
Y187239D01*
Y187101D01*
X231906D01*
Y186963D01*
Y186825D01*
X231767D01*
Y186686D01*
Y186548D01*
Y186410D01*
X231629D01*
Y186272D01*
Y186133D01*
X231491D01*
Y185995D01*
Y185857D01*
X231353D01*
Y185719D01*
Y185581D01*
X231215D01*
Y185442D01*
Y185304D01*
X231076D01*
Y185166D01*
Y185028D01*
X230938D01*
Y184890D01*
X230800D01*
Y184751D01*
Y184613D01*
X230662D01*
Y184475D01*
Y184337D01*
X230524D01*
Y184199D01*
X230385D01*
Y184060D01*
Y183922D01*
X230247D01*
Y183784D01*
Y183646D01*
X230109D01*
Y183508D01*
X229971D01*
Y183370D01*
Y183231D01*
X229833D01*
Y183093D01*
X229694D01*
Y182955D01*
X229556D01*
Y182817D01*
Y182678D01*
X229418D01*
Y182540D01*
X229280D01*
Y182402D01*
Y182264D01*
X229142D01*
Y182126D01*
X229003D01*
Y181987D01*
X228865D01*
Y181849D01*
X228727D01*
Y181711D01*
X228589D01*
Y181573D01*
Y181435D01*
X228451D01*
Y181297D01*
X228312D01*
Y181158D01*
X228174D01*
Y181020D01*
X228036D01*
Y180882D01*
X227898D01*
Y180744D01*
X227760D01*
Y180605D01*
X227621D01*
Y180467D01*
X227483D01*
Y180329D01*
X227345D01*
Y180191D01*
X227207D01*
Y180053D01*
X227069D01*
Y179914D01*
X226930D01*
Y179776D01*
X226792D01*
Y179638D01*
X226654D01*
Y179500D01*
X226516D01*
Y179362D01*
X226378D01*
Y179223D01*
X226239D01*
Y179085D01*
X225963D01*
Y178947D01*
X225825D01*
Y178809D01*
X225687D01*
Y178671D01*
X225548D01*
Y178532D01*
X225272D01*
Y178394D01*
X225134D01*
Y178256D01*
X224996D01*
Y178118D01*
X224719D01*
Y177980D01*
X224581D01*
Y177841D01*
X224305D01*
Y177703D01*
X224166D01*
Y177565D01*
X223890D01*
Y177427D01*
X223614D01*
Y177289D01*
X223475D01*
Y177150D01*
X223199D01*
Y177012D01*
X222923D01*
Y176874D01*
X222646D01*
Y176736D01*
X222508D01*
Y176598D01*
X222232D01*
Y176459D01*
X221817D01*
Y176321D01*
X221541D01*
Y176183D01*
X221264D01*
Y176045D01*
X220988D01*
Y175907D01*
X220573D01*
Y175768D01*
X220297D01*
Y175630D01*
X219882D01*
Y175492D01*
X219467D01*
Y175354D01*
X219053D01*
Y175216D01*
X218500D01*
Y175077D01*
X218086D01*
Y174939D01*
X217394D01*
Y174801D01*
X216842D01*
Y174663D01*
X216013D01*
Y174525D01*
X214907D01*
Y174386D01*
X209932D01*
Y174525D01*
X208826D01*
Y174663D01*
X207997D01*
Y174801D01*
X207306D01*
Y174939D01*
X206753D01*
Y175077D01*
X206200D01*
Y175216D01*
X205647D01*
Y175354D01*
X205233D01*
Y175492D01*
X204818D01*
Y175630D01*
X204404D01*
Y175768D01*
X203989D01*
Y175907D01*
X203574D01*
Y176045D01*
X203298D01*
Y176183D01*
X202884D01*
Y176321D01*
X202607D01*
Y176459D01*
X202192D01*
Y176598D01*
X201916D01*
Y176736D01*
X201640D01*
Y176874D01*
X201363D01*
Y177012D01*
X201087D01*
Y177150D01*
X200811D01*
Y177289D01*
X200534D01*
Y177427D01*
X200258D01*
Y177565D01*
X199981D01*
Y177703D01*
X199705D01*
Y177841D01*
X199428D01*
Y177980D01*
X199290D01*
Y178118D01*
X199014D01*
Y178256D01*
X198876D01*
Y178394D01*
X198737D01*
Y178532D01*
Y178671D01*
X198599D01*
Y178809D01*
X198461D01*
Y178947D01*
Y179085D01*
X198323D01*
Y179223D01*
Y179362D01*
Y179500D01*
X198185D01*
Y179638D01*
Y179776D01*
Y179914D01*
Y180053D01*
Y180191D01*
X198047D01*
Y180329D01*
Y180467D01*
Y180605D01*
Y180744D01*
Y180882D01*
Y181020D01*
Y181158D01*
Y181297D01*
Y181435D01*
Y181573D01*
Y181711D01*
Y181849D01*
Y181987D01*
Y182126D01*
Y182264D01*
Y182402D01*
Y182540D01*
Y182678D01*
Y182817D01*
Y182955D01*
Y183093D01*
Y183231D01*
Y183370D01*
Y183508D01*
Y183646D01*
Y183784D01*
Y183922D01*
Y184060D01*
Y184199D01*
Y184337D01*
Y184475D01*
Y184613D01*
Y184751D01*
Y184890D01*
Y185028D01*
Y185166D01*
Y185304D01*
Y185442D01*
Y185581D01*
Y185719D01*
Y185857D01*
Y185995D01*
Y186133D01*
Y186272D01*
Y186410D01*
Y186548D01*
Y186686D01*
Y186825D01*
Y186963D01*
Y187101D01*
Y187239D01*
Y187377D01*
Y187515D01*
Y187654D01*
Y187792D01*
Y187930D01*
Y188068D01*
Y188207D01*
Y188345D01*
Y188483D01*
Y188621D01*
Y188759D01*
Y188898D01*
Y189036D01*
Y189174D01*
Y189312D01*
Y189450D01*
Y189588D01*
Y189727D01*
Y189865D01*
Y190003D01*
Y190141D01*
Y190279D01*
Y190418D01*
Y190556D01*
Y190694D01*
Y190832D01*
Y190971D01*
Y191109D01*
Y191247D01*
Y191385D01*
Y191523D01*
Y191662D01*
Y191800D01*
Y191938D01*
Y192076D01*
Y192214D01*
Y192352D01*
Y192491D01*
Y192629D01*
Y192767D01*
Y192905D01*
Y193043D01*
Y193182D01*
Y193320D01*
Y193458D01*
Y193596D01*
Y193735D01*
Y193873D01*
X198185D01*
Y194011D01*
Y194149D01*
Y194287D01*
Y194425D01*
Y194564D01*
X198323D01*
Y194702D01*
Y194840D01*
Y194978D01*
X198461D01*
Y195116D01*
Y195255D01*
X198599D01*
Y195393D01*
X198737D01*
Y195531D01*
X198876D01*
Y195669D01*
Y195808D01*
X199152D01*
Y195946D01*
X199290D01*
Y196084D01*
X199428D01*
Y196222D01*
X199705D01*
Y196360D01*
X200119D01*
Y196499D01*
X200672D01*
Y196637D01*
X211314D01*
Y196499D01*
X212005D01*
Y196360D01*
X212281D01*
Y196222D01*
X212558D01*
Y196084D01*
X212696D01*
Y195946D01*
X212972D01*
Y195808D01*
X213110D01*
Y195669D01*
X213248D01*
Y195531D01*
X213387D01*
Y195393D01*
Y195255D01*
X213525D01*
Y195116D01*
Y194978D01*
X213663D01*
Y194840D01*
Y194702D01*
X213801D01*
Y194564D01*
Y194425D01*
Y194287D01*
Y194149D01*
X213939D01*
Y194011D01*
Y193873D01*
Y193735D01*
Y193596D01*
Y193458D01*
Y193320D01*
X213801D01*
Y193182D01*
Y193043D01*
Y192905D01*
Y192767D01*
X213663D01*
Y192629D01*
Y192491D01*
X213525D01*
Y192352D01*
Y192214D01*
X213387D01*
Y192076D01*
X213248D01*
Y191938D01*
X213110D01*
Y191800D01*
X212972D01*
Y191662D01*
X212834D01*
Y191523D01*
X212696D01*
Y191385D01*
X212419D01*
Y191247D01*
X212143D01*
Y191109D01*
X211866D01*
Y190971D01*
X203851D01*
Y190832D01*
X203713D01*
Y190694D01*
Y190556D01*
Y190418D01*
Y190279D01*
Y190141D01*
Y190003D01*
Y189865D01*
Y189727D01*
Y189588D01*
Y189450D01*
Y189312D01*
Y189174D01*
Y189036D01*
Y188898D01*
Y188759D01*
Y188621D01*
Y188483D01*
Y188345D01*
Y188207D01*
Y188068D01*
Y187930D01*
Y187792D01*
Y187654D01*
Y187515D01*
Y187377D01*
Y187239D01*
Y187101D01*
Y186963D01*
Y186825D01*
Y186686D01*
Y186548D01*
Y186410D01*
Y186272D01*
Y186133D01*
Y185995D01*
Y185857D01*
Y185719D01*
Y185581D01*
Y185442D01*
Y185304D01*
Y185166D01*
Y185028D01*
Y184890D01*
Y184751D01*
Y184613D01*
Y184475D01*
Y184337D01*
Y184199D01*
Y184060D01*
Y183922D01*
Y183784D01*
Y183646D01*
Y183508D01*
Y183370D01*
Y183231D01*
Y183093D01*
Y182955D01*
Y182817D01*
Y182678D01*
Y182540D01*
Y182402D01*
Y182264D01*
Y182126D01*
Y181987D01*
X203989D01*
Y181849D01*
X204265D01*
Y181711D01*
X204542D01*
Y181573D01*
X204957D01*
Y181435D01*
X205233D01*
Y181297D01*
X205647D01*
Y181158D01*
X205924D01*
Y181020D01*
X206339D01*
Y180882D01*
X206753D01*
Y180744D01*
X207306D01*
Y180605D01*
X207859D01*
Y180467D01*
X208412D01*
Y180329D01*
X209103D01*
Y180191D01*
X210070D01*
Y180053D01*
X211866D01*
Y179914D01*
X212972D01*
Y180053D01*
X214769D01*
Y180191D01*
X215736D01*
Y180329D01*
X216427D01*
Y180467D01*
X216980D01*
Y180605D01*
X217394D01*
Y180744D01*
X217809D01*
Y180882D01*
X218224D01*
Y181020D01*
X218638D01*
Y181158D01*
X218915D01*
Y181297D01*
X219191D01*
Y181435D01*
X219467D01*
Y181573D01*
X219744D01*
Y181711D01*
X220020D01*
Y181849D01*
X220297D01*
Y181987D01*
X220573D01*
Y182126D01*
X220849D01*
Y182264D01*
X220988D01*
Y182402D01*
X221264D01*
Y182540D01*
X221402D01*
Y182678D01*
X221679D01*
Y182817D01*
X221817D01*
Y182955D01*
X221955D01*
Y183093D01*
X222232D01*
Y183231D01*
X222370D01*
Y183370D01*
X222508D01*
Y183508D01*
X222646D01*
Y183646D01*
X222784D01*
Y183784D01*
X222923D01*
Y183922D01*
X223199D01*
Y184060D01*
X223337D01*
Y184199D01*
X223475D01*
Y184337D01*
X223614D01*
Y184475D01*
X223752D01*
Y184613D01*
X223890D01*
Y184751D01*
X224028D01*
Y184890D01*
Y185028D01*
X224166D01*
Y185166D01*
X224305D01*
Y185304D01*
X224443D01*
Y185442D01*
X224581D01*
Y185581D01*
X224719D01*
Y185719D01*
Y185857D01*
X224857D01*
Y185995D01*
X224996D01*
Y186133D01*
X225134D01*
Y186272D01*
Y186410D01*
X225272D01*
Y186548D01*
X225410D01*
Y186686D01*
Y186825D01*
X225548D01*
Y186963D01*
X225687D01*
Y187101D01*
Y187239D01*
X225825D01*
Y187377D01*
Y187515D01*
X225963D01*
Y187654D01*
X226101D01*
Y187792D01*
Y187930D01*
X226239D01*
Y188068D01*
Y188207D01*
X226378D01*
Y188345D01*
Y188483D01*
X226516D01*
Y188621D01*
Y188759D01*
X226654D01*
Y188898D01*
Y189036D01*
Y189174D01*
X226792D01*
Y189312D01*
Y189450D01*
X226930D01*
Y189588D01*
Y189727D01*
X227069D01*
Y189865D01*
Y190003D01*
Y190141D01*
X227207D01*
Y190279D01*
Y190418D01*
Y190556D01*
X227345D01*
Y190694D01*
Y190832D01*
Y190971D01*
Y191109D01*
X227483D01*
Y191247D01*
Y191385D01*
Y191523D01*
Y191662D01*
X227621D01*
Y191800D01*
Y191938D01*
Y192076D01*
Y192214D01*
X227760D01*
Y192352D01*
Y192491D01*
Y192629D01*
Y192767D01*
Y192905D01*
Y193043D01*
Y193182D01*
X227898D01*
Y193320D01*
Y193458D01*
Y193596D01*
Y193735D01*
Y193873D01*
Y194011D01*
Y194149D01*
Y194287D01*
Y194425D01*
Y194564D01*
Y194702D01*
Y194840D01*
Y194978D01*
Y195116D01*
X228036D01*
Y195255D01*
Y195393D01*
Y195531D01*
X227898D01*
Y195669D01*
Y195808D01*
Y195946D01*
Y196084D01*
Y196222D01*
Y196360D01*
Y196499D01*
Y196637D01*
Y196775D01*
Y196913D01*
Y197051D01*
Y197189D01*
Y197328D01*
Y197466D01*
X227760D01*
Y197604D01*
Y197742D01*
Y197880D01*
Y198019D01*
Y198157D01*
Y198295D01*
X227621D01*
Y198433D01*
Y198572D01*
Y198710D01*
Y198848D01*
Y198986D01*
X227483D01*
Y199124D01*
Y199262D01*
Y199401D01*
Y199539D01*
X227345D01*
Y199677D01*
Y199815D01*
Y199953D01*
Y200092D01*
X227207D01*
Y200230D01*
Y200368D01*
Y200506D01*
X227069D01*
Y200644D01*
Y200783D01*
X226930D01*
Y200921D01*
Y201059D01*
Y201197D01*
X226792D01*
Y201336D01*
Y201474D01*
X226654D01*
Y201612D01*
Y201750D01*
Y201888D01*
X226516D01*
Y202027D01*
Y202165D01*
X226378D01*
Y202303D01*
Y202441D01*
X226239D01*
Y202579D01*
Y202717D01*
X226101D01*
Y202856D01*
Y202994D01*
X225963D01*
Y203132D01*
X225825D01*
Y203270D01*
Y203409D01*
X225687D01*
Y203547D01*
Y203685D01*
X225548D01*
Y203823D01*
X225410D01*
Y203961D01*
Y204099D01*
X225272D01*
Y204238D01*
X225134D01*
Y204376D01*
Y204514D01*
X224996D01*
Y204652D01*
X224857D01*
Y204790D01*
X224719D01*
Y204929D01*
Y205067D01*
X224581D01*
Y205205D01*
X224443D01*
Y205343D01*
X224305D01*
Y205482D01*
X224166D01*
Y205620D01*
Y205758D01*
X224028D01*
Y205896D01*
X223890D01*
Y206034D01*
X223752D01*
Y206173D01*
X223614D01*
Y206311D01*
X223475D01*
Y206449D01*
X223337D01*
Y206587D01*
X223199D01*
Y206725D01*
X223061D01*
Y206863D01*
X222923D01*
Y207002D01*
X222784D01*
Y207140D01*
X222646D01*
Y207278D01*
X222370D01*
Y207416D01*
X222232D01*
Y207555D01*
X222093D01*
Y207693D01*
X221955D01*
Y207831D01*
X221679D01*
Y207969D01*
X221541D01*
Y208107D01*
X221402D01*
Y208246D01*
X221126D01*
Y208384D01*
X220988D01*
Y208522D01*
X220711D01*
Y208660D01*
X220573D01*
Y208798D01*
X220297D01*
Y208937D01*
X220020D01*
Y209075D01*
X219744D01*
Y209213D01*
X219606D01*
Y209351D01*
X219329D01*
Y209489D01*
X219053D01*
Y209628D01*
X218776D01*
Y209766D01*
X218362D01*
Y209904D01*
X218086D01*
Y210042D01*
X217671D01*
Y210180D01*
X217394D01*
Y210319D01*
X216980D01*
Y210457D01*
X216427D01*
Y210595D01*
X215874D01*
Y210733D01*
X215183D01*
Y210871D01*
X213939D01*
Y211010D01*
X211590D01*
Y210871D01*
X210485D01*
Y210733D01*
X209655D01*
Y210595D01*
X208964D01*
Y210457D01*
X208412D01*
Y210319D01*
X207997D01*
Y210180D01*
X207582D01*
Y210042D01*
X207168D01*
Y209904D01*
X206753D01*
Y209766D01*
X206339D01*
Y209628D01*
X206062D01*
Y209489D01*
X205647D01*
Y209351D01*
X205371D01*
Y209213D01*
X205095D01*
Y209075D01*
X204818D01*
Y208937D01*
X204542D01*
Y208798D01*
X204265D01*
Y208660D01*
X203989D01*
Y208522D01*
X203713D01*
Y208384D01*
X203436D01*
Y208246D01*
X203160D01*
Y208107D01*
X202884D01*
Y207969D01*
X202607D01*
Y207831D01*
X202469D01*
Y207693D01*
X202192D01*
Y207555D01*
X201916D01*
Y207416D01*
X201778D01*
Y207278D01*
X201501D01*
Y207140D01*
X201225D01*
Y207002D01*
X200949D01*
Y206863D01*
X200672D01*
Y206725D01*
X199843D01*
Y206587D01*
X199705D01*
Y206725D01*
X199014D01*
Y206863D01*
X198599D01*
Y207002D01*
X198323D01*
Y207140D01*
X198185D01*
Y207278D01*
X197908D01*
Y207416D01*
X197770D01*
Y207555D01*
X197632D01*
Y207693D01*
Y207831D01*
X197494D01*
Y207969D01*
X197355D01*
Y208107D01*
Y208246D01*
X197217D01*
Y208384D01*
Y208522D01*
X197079D01*
Y208660D01*
Y208798D01*
Y208937D01*
Y209075D01*
X196941D01*
Y209213D01*
Y209351D01*
Y209489D01*
Y209628D01*
Y209766D01*
X197079D01*
Y209904D01*
Y210042D01*
Y210180D01*
Y210319D01*
X197217D01*
Y210457D01*
Y210595D01*
Y210733D01*
X197355D01*
Y210871D01*
Y211010D01*
X197494D01*
Y211148D01*
X197632D01*
Y211286D01*
X197770D01*
Y211424D01*
X197908D01*
Y211562D01*
X198047D01*
Y211701D01*
X198185D01*
Y211839D01*
X198323D01*
Y211977D01*
X198599D01*
Y212115D01*
X198876D01*
Y212253D01*
X199014D01*
Y212392D01*
X199290D01*
Y212530D01*
X199567D01*
Y212668D01*
X199705D01*
Y212806D01*
X199981D01*
Y212944D01*
X200258D01*
Y213083D01*
X200534D01*
Y213221D01*
X200811D01*
Y213359D01*
X201087D01*
Y213497D01*
X201363D01*
Y213635D01*
X201640D01*
Y213774D01*
X201916D01*
Y213912D01*
X202192D01*
Y214050D01*
X202469D01*
Y214188D01*
X202745D01*
Y214326D01*
X203022D01*
Y214465D01*
X203298D01*
Y214603D01*
X203713D01*
Y214741D01*
X203989D01*
Y214879D01*
X204404D01*
Y215017D01*
X204680D01*
Y215156D01*
X205095D01*
Y215294D01*
X205509D01*
Y215432D01*
X205924D01*
Y215570D01*
X206339D01*
Y215708D01*
X206891D01*
Y215847D01*
X207306D01*
Y215985D01*
X207859D01*
Y216123D01*
X208550D01*
Y216261D01*
X209241D01*
Y216399D01*
X210070D01*
Y216538D01*
X211452D01*
Y216676D01*
X214078D01*
Y216538D01*
D02*
G37*
G36*
X156310Y216676D02*
X157692D01*
Y216538D01*
X158659D01*
Y216399D01*
X159350D01*
Y216261D01*
X160041D01*
Y216123D01*
X160594D01*
Y215985D01*
X161147D01*
Y215847D01*
X161562D01*
Y215708D01*
X161976D01*
Y215570D01*
X162391D01*
Y215432D01*
X162805D01*
Y215294D01*
X163220D01*
Y215156D01*
X163635D01*
Y215017D01*
X163911D01*
Y214879D01*
X164325D01*
Y214741D01*
X164602D01*
Y214603D01*
X165016D01*
Y214465D01*
X165293D01*
Y214326D01*
X165569D01*
Y214188D01*
X165846D01*
Y214050D01*
X166122D01*
Y213912D01*
X166399D01*
Y213774D01*
X166675D01*
Y213635D01*
X166951D01*
Y213497D01*
X167228D01*
Y213359D01*
X167504D01*
Y213221D01*
X167780D01*
Y213083D01*
X167919D01*
Y212944D01*
X168195D01*
Y212806D01*
X168472D01*
Y212668D01*
X168610D01*
Y212530D01*
X168886D01*
Y212392D01*
X169162D01*
Y212253D01*
X169301D01*
Y212115D01*
X169577D01*
Y211977D01*
X169715D01*
Y211839D01*
X169992D01*
Y211701D01*
X170130D01*
Y211562D01*
X170406D01*
Y211424D01*
X170545D01*
Y211286D01*
X170821D01*
Y211148D01*
X170959D01*
Y211010D01*
X171236D01*
Y210871D01*
X171374D01*
Y210733D01*
X171512D01*
Y210595D01*
X171788D01*
Y210457D01*
X171927D01*
Y210319D01*
X172065D01*
Y210180D01*
X172341D01*
Y210042D01*
X172479D01*
Y209904D01*
X172618D01*
Y209766D01*
X172894D01*
Y209628D01*
X173032D01*
Y209489D01*
X173170D01*
Y209351D01*
X173309D01*
Y209213D01*
X173585D01*
Y209075D01*
X173723D01*
Y208937D01*
X173861D01*
Y208798D01*
X174000D01*
Y208660D01*
X174276D01*
Y208522D01*
X174414D01*
Y208384D01*
X174552D01*
Y208246D01*
X174690D01*
Y208107D01*
X174829D01*
Y207969D01*
X174967D01*
Y207831D01*
X175243D01*
Y207693D01*
X175382D01*
Y207555D01*
X175520D01*
Y207416D01*
X175658D01*
Y207278D01*
X175796D01*
Y207140D01*
X175934D01*
Y207002D01*
X176073D01*
Y206863D01*
X176349D01*
Y206725D01*
X176487D01*
Y206587D01*
X176625D01*
Y206449D01*
X176764D01*
Y206311D01*
X176902D01*
Y206173D01*
X177040D01*
Y206034D01*
X177178D01*
Y205896D01*
X177316D01*
Y205758D01*
X177454D01*
Y205620D01*
X177593D01*
Y205482D01*
X177731D01*
Y205343D01*
X178007D01*
Y205205D01*
X178146D01*
Y205067D01*
X178284D01*
Y204929D01*
X178422D01*
Y204790D01*
X178560D01*
Y204652D01*
X178698D01*
Y204514D01*
X178837D01*
Y204376D01*
X178975D01*
Y204238D01*
X179113D01*
Y204099D01*
X179251D01*
Y203961D01*
X179389D01*
Y203823D01*
X179528D01*
Y203685D01*
X179666D01*
Y203547D01*
X179804D01*
Y203409D01*
X179942D01*
Y203270D01*
X180080D01*
Y203132D01*
X180219D01*
Y202994D01*
X180357D01*
Y202856D01*
X180495D01*
Y202717D01*
X180633D01*
Y202579D01*
X180771D01*
Y202441D01*
X180910D01*
Y202303D01*
X181048D01*
Y202165D01*
X181186D01*
Y202027D01*
X181324D01*
Y201888D01*
X181462D01*
Y201750D01*
X181601D01*
Y201612D01*
X181739D01*
Y201474D01*
X181877D01*
Y201336D01*
X182015D01*
Y201197D01*
X182153D01*
Y201059D01*
X182292D01*
Y200921D01*
X182430D01*
Y200783D01*
X182568D01*
Y200644D01*
X182706D01*
Y200506D01*
X182844D01*
Y200368D01*
X182983D01*
Y200230D01*
X183121D01*
Y200092D01*
X183259D01*
Y199953D01*
X183397D01*
Y199815D01*
X183535D01*
Y199677D01*
X183812D01*
Y199815D01*
X183950D01*
Y199953D01*
X184088D01*
Y200092D01*
X184226D01*
Y200230D01*
X184365D01*
Y200368D01*
X184503D01*
Y200506D01*
X184641D01*
Y200644D01*
X184779D01*
Y200783D01*
X184917D01*
Y200921D01*
X185056D01*
Y201059D01*
X185194D01*
Y201197D01*
X185332D01*
Y201336D01*
X185470D01*
Y201474D01*
X185608D01*
Y201612D01*
X185747D01*
Y201750D01*
X186023D01*
Y201888D01*
X186161D01*
Y202027D01*
X186299D01*
Y202165D01*
X186438D01*
Y202303D01*
X186576D01*
Y202441D01*
X186714D01*
Y202579D01*
X186852D01*
Y202717D01*
X186990D01*
Y202856D01*
X187129D01*
Y202994D01*
X187267D01*
Y203132D01*
X187405D01*
Y203270D01*
X187543D01*
Y203409D01*
X187820D01*
Y203547D01*
X187958D01*
Y203685D01*
X188096D01*
Y203823D01*
X188234D01*
Y203961D01*
X188372D01*
Y204099D01*
X188511D01*
Y204238D01*
X188649D01*
Y204376D01*
X188787D01*
Y204514D01*
X188925D01*
Y204652D01*
X189063D01*
Y204790D01*
X189340D01*
Y204929D01*
X189478D01*
Y205067D01*
X189616D01*
Y205205D01*
X189754D01*
Y205343D01*
X189893D01*
Y205482D01*
X190031D01*
Y205620D01*
X190169D01*
Y205758D01*
X190307D01*
Y205896D01*
X190584D01*
Y206034D01*
X190722D01*
Y206173D01*
X190860D01*
Y206311D01*
X190998D01*
Y206449D01*
X191136D01*
Y206587D01*
X191275D01*
Y206725D01*
X191413D01*
Y206863D01*
X191689D01*
Y207002D01*
X191827D01*
Y207140D01*
X191966D01*
Y207278D01*
X192104D01*
Y207416D01*
X192242D01*
Y207555D01*
X192380D01*
Y207693D01*
X192657D01*
Y207831D01*
X192795D01*
Y207969D01*
X192933D01*
Y208107D01*
X193071D01*
Y208246D01*
X193209D01*
Y208384D01*
X193486D01*
Y208522D01*
X193624D01*
Y208660D01*
X193762D01*
Y208798D01*
X193901D01*
Y208937D01*
X194177D01*
Y209075D01*
X194315D01*
Y209213D01*
X194453D01*
Y209351D01*
X194591D01*
Y209489D01*
X194868D01*
Y209628D01*
X195006D01*
Y209766D01*
X195144D01*
Y209904D01*
X195421D01*
Y210042D01*
X195559D01*
Y210180D01*
X195697D01*
Y210319D01*
X195974D01*
Y210457D01*
X196112D01*
Y210595D01*
X196250D01*
Y210733D01*
X196526D01*
Y210871D01*
X196664D01*
Y211010D01*
X196803D01*
Y210871D01*
Y210733D01*
X196664D01*
Y210595D01*
Y210457D01*
Y210319D01*
X196526D01*
Y210180D01*
Y210042D01*
Y209904D01*
Y209766D01*
Y209628D01*
Y209489D01*
Y209351D01*
Y209213D01*
Y209075D01*
Y208937D01*
Y208798D01*
Y208660D01*
X196664D01*
Y208522D01*
Y208384D01*
Y208246D01*
X196803D01*
Y208107D01*
Y207969D01*
X196941D01*
Y207831D01*
Y207693D01*
X197079D01*
Y207555D01*
Y207416D01*
X197217D01*
Y207278D01*
X197355D01*
Y207140D01*
X197494D01*
Y207002D01*
X197632D01*
Y206863D01*
X197770D01*
Y206725D01*
X198047D01*
Y206587D01*
X198323D01*
Y206449D01*
X198599D01*
Y206311D01*
X199014D01*
Y206173D01*
X199705D01*
Y206034D01*
X199567D01*
Y205896D01*
X199290D01*
Y205758D01*
X199152D01*
Y205620D01*
X199014D01*
Y205482D01*
X198737D01*
Y205343D01*
X198599D01*
Y205205D01*
X198461D01*
Y205067D01*
X198185D01*
Y204929D01*
X198047D01*
Y204790D01*
X197908D01*
Y204652D01*
X197770D01*
Y204514D01*
X197494D01*
Y204376D01*
X197355D01*
Y204238D01*
X197217D01*
Y204099D01*
X197079D01*
Y203961D01*
X196803D01*
Y203823D01*
X196664D01*
Y203685D01*
X196526D01*
Y203547D01*
X196388D01*
Y203409D01*
X196250D01*
Y203270D01*
X196112D01*
Y203132D01*
X195835D01*
Y202994D01*
X195697D01*
Y202856D01*
X195559D01*
Y202717D01*
X195421D01*
Y202579D01*
X195282D01*
Y202441D01*
X195144D01*
Y202303D01*
X194868D01*
Y202165D01*
X194730D01*
Y202027D01*
X194591D01*
Y201888D01*
X194453D01*
Y201750D01*
X194315D01*
Y201612D01*
X194177D01*
Y201474D01*
X194039D01*
Y201336D01*
X193762D01*
Y201197D01*
X193624D01*
Y201059D01*
X193486D01*
Y200921D01*
X193348D01*
Y200783D01*
X193209D01*
Y200644D01*
X193071D01*
Y200506D01*
X192933D01*
Y200368D01*
X192795D01*
Y200230D01*
X192518D01*
Y200092D01*
X192380D01*
Y199953D01*
X192242D01*
Y199815D01*
X192104D01*
Y199677D01*
X191966D01*
Y199539D01*
X191827D01*
Y199401D01*
X191689D01*
Y199262D01*
X191551D01*
Y199124D01*
X191413D01*
Y198986D01*
X191275D01*
Y198848D01*
X191136D01*
Y198710D01*
X190860D01*
Y198572D01*
X190722D01*
Y198433D01*
X190584D01*
Y198295D01*
X190445D01*
Y198157D01*
X190307D01*
Y198019D01*
X190169D01*
Y197880D01*
X190031D01*
Y197742D01*
X189893D01*
Y197604D01*
X189754D01*
Y197466D01*
X189616D01*
Y197328D01*
X189478D01*
Y197189D01*
X189340D01*
Y197051D01*
X189202D01*
Y196913D01*
X188925D01*
Y196775D01*
X188787D01*
Y196637D01*
X188649D01*
Y196499D01*
X188511D01*
Y196360D01*
X188372D01*
Y196222D01*
X188234D01*
Y196084D01*
X188096D01*
Y195946D01*
X187958D01*
Y195808D01*
X187820D01*
Y195669D01*
X187681D01*
Y195531D01*
Y195393D01*
Y195255D01*
X187820D01*
Y195116D01*
X187958D01*
Y194978D01*
X188096D01*
Y194840D01*
X188234D01*
Y194702D01*
X188372D01*
Y194564D01*
X188511D01*
Y194425D01*
X188649D01*
Y194287D01*
X188787D01*
Y194149D01*
X188925D01*
Y194011D01*
X189063D01*
Y193873D01*
X189202D01*
Y193735D01*
X189340D01*
Y193596D01*
X189478D01*
Y193458D01*
X189616D01*
Y193320D01*
X189754D01*
Y193182D01*
X189893D01*
Y193043D01*
X190031D01*
Y192905D01*
X190169D01*
Y192767D01*
X190307D01*
Y192629D01*
X190445D01*
Y192491D01*
X190584D01*
Y192352D01*
X190722D01*
Y192214D01*
X190860D01*
Y192076D01*
X190998D01*
Y191938D01*
X191136D01*
Y191800D01*
X191275D01*
Y191662D01*
X191413D01*
Y191523D01*
X191551D01*
Y191385D01*
X191689D01*
Y191247D01*
X191827D01*
Y191109D01*
X191966D01*
Y190971D01*
X192104D01*
Y190832D01*
X192242D01*
Y190694D01*
X192380D01*
Y190556D01*
X192518D01*
Y190418D01*
X192657D01*
Y190279D01*
X192795D01*
Y190141D01*
X192933D01*
Y190003D01*
X193071D01*
Y189865D01*
X193209D01*
Y189727D01*
X193348D01*
Y189588D01*
X193486D01*
Y189450D01*
X193624D01*
Y189312D01*
X193762D01*
Y189174D01*
X193901D01*
Y189036D01*
X194039D01*
Y188898D01*
X194177D01*
Y188759D01*
X194315D01*
Y188621D01*
X194591D01*
Y188483D01*
X194730D01*
Y188345D01*
X194868D01*
Y188207D01*
X195006D01*
Y188068D01*
X195144D01*
Y187930D01*
X195282D01*
Y187792D01*
X195421D01*
Y187654D01*
X195559D01*
Y187515D01*
X195697D01*
Y187377D01*
X195974D01*
Y187239D01*
X196112D01*
Y187101D01*
X196250D01*
Y186963D01*
X196388D01*
Y186825D01*
X196526D01*
Y186686D01*
X196664D01*
Y186548D01*
X196941D01*
Y186410D01*
X197079D01*
Y186272D01*
X197217D01*
Y186133D01*
X197355D01*
Y185995D01*
X197632D01*
Y185857D01*
Y185719D01*
Y185581D01*
Y185442D01*
Y185304D01*
Y185166D01*
Y185028D01*
Y184890D01*
Y184751D01*
Y184613D01*
Y184475D01*
Y184337D01*
Y184199D01*
Y184060D01*
Y183922D01*
Y183784D01*
Y183646D01*
Y183508D01*
Y183370D01*
Y183231D01*
Y183093D01*
Y182955D01*
Y182817D01*
Y182678D01*
Y182540D01*
Y182402D01*
Y182264D01*
Y182126D01*
Y181987D01*
Y181849D01*
Y181711D01*
Y181573D01*
Y181435D01*
Y181297D01*
Y181158D01*
Y181020D01*
Y180882D01*
Y180744D01*
Y180605D01*
Y180467D01*
Y180329D01*
Y180191D01*
Y180053D01*
Y179914D01*
Y179776D01*
Y179638D01*
Y179500D01*
X197770D01*
Y179362D01*
Y179223D01*
Y179085D01*
X197908D01*
Y178947D01*
Y178809D01*
X197770D01*
Y178947D01*
X197494D01*
Y179085D01*
X197217D01*
Y179223D01*
X197079D01*
Y179362D01*
X196803D01*
Y179500D01*
X196664D01*
Y179638D01*
X196388D01*
Y179776D01*
X196250D01*
Y179914D01*
X195974D01*
Y180053D01*
X195835D01*
Y180191D01*
X195559D01*
Y180329D01*
X195421D01*
Y180467D01*
X195282D01*
Y180605D01*
X195006D01*
Y180744D01*
X194868D01*
Y180882D01*
X194730D01*
Y181020D01*
X194453D01*
Y181158D01*
X194315D01*
Y181297D01*
X194177D01*
Y181435D01*
X194039D01*
Y181573D01*
X193762D01*
Y181711D01*
X193624D01*
Y181849D01*
X193486D01*
Y181987D01*
X193348D01*
Y182126D01*
X193071D01*
Y182264D01*
X192933D01*
Y182402D01*
X192795D01*
Y182540D01*
X192657D01*
Y182678D01*
X192518D01*
Y182817D01*
X192380D01*
Y182955D01*
X192104D01*
Y183093D01*
X191966D01*
Y183231D01*
X191827D01*
Y183370D01*
X191689D01*
Y183508D01*
X191551D01*
Y183646D01*
X191413D01*
Y183784D01*
X191275D01*
Y183922D01*
X191136D01*
Y184060D01*
X190860D01*
Y184199D01*
X190722D01*
Y184337D01*
X190584D01*
Y184475D01*
X190445D01*
Y184613D01*
X190307D01*
Y184751D01*
X190169D01*
Y184890D01*
X190031D01*
Y185028D01*
X189893D01*
Y185166D01*
X189754D01*
Y185304D01*
X189616D01*
Y185442D01*
X189478D01*
Y185581D01*
X189340D01*
Y185719D01*
X189202D01*
Y185857D01*
X189063D01*
Y185995D01*
X188787D01*
Y186133D01*
X188649D01*
Y186272D01*
X188511D01*
Y186410D01*
X188372D01*
Y186548D01*
X188234D01*
Y186686D01*
X188096D01*
Y186825D01*
X187958D01*
Y186963D01*
X187820D01*
Y187101D01*
X187681D01*
Y187239D01*
X187543D01*
Y187377D01*
X187405D01*
Y187515D01*
X187267D01*
Y187654D01*
X187129D01*
Y187792D01*
X186990D01*
Y187930D01*
X186852D01*
Y188068D01*
X186714D01*
Y188207D01*
X186576D01*
Y188345D01*
X186438D01*
Y188483D01*
X186299D01*
Y188621D01*
X186161D01*
Y188759D01*
X186023D01*
Y188898D01*
X185885D01*
Y189036D01*
X185747D01*
Y189174D01*
X185608D01*
Y189312D01*
X185470D01*
Y189450D01*
X185332D01*
Y189588D01*
Y189727D01*
X185194D01*
Y189865D01*
X185056D01*
Y190003D01*
X184917D01*
Y190141D01*
X184779D01*
Y190279D01*
X184641D01*
Y190418D01*
X184503D01*
Y190556D01*
X184365D01*
Y190694D01*
X184226D01*
Y190832D01*
X184088D01*
Y190971D01*
X183950D01*
Y191109D01*
X183812D01*
Y191247D01*
X183674D01*
Y191385D01*
X183535D01*
Y191523D01*
X183397D01*
Y191385D01*
X183259D01*
Y191247D01*
X183121D01*
Y191109D01*
X182844D01*
Y190971D01*
X182706D01*
Y190832D01*
X182568D01*
Y190694D01*
X182430D01*
Y190556D01*
X182292D01*
Y190418D01*
X182153D01*
Y190279D01*
X182015D01*
Y190141D01*
X181877D01*
Y190003D01*
X181739D01*
Y189865D01*
X181601D01*
Y189727D01*
X181462D01*
Y189588D01*
X181324D01*
Y189450D01*
X181186D01*
Y189312D01*
X181048D01*
Y189174D01*
X180910D01*
Y189036D01*
X180771D01*
Y188898D01*
X180633D01*
Y188759D01*
X180495D01*
Y188621D01*
X180357D01*
Y188483D01*
X180219D01*
Y188345D01*
X180080D01*
Y188207D01*
X179942D01*
Y188068D01*
X179804D01*
Y187930D01*
X179666D01*
Y187792D01*
X179528D01*
Y187654D01*
X179389D01*
Y187515D01*
X179251D01*
Y187377D01*
X178975D01*
Y187239D01*
X178837D01*
Y187101D01*
X178698D01*
Y186963D01*
X178560D01*
Y186825D01*
X178422D01*
Y186686D01*
X178284D01*
Y186548D01*
X178146D01*
Y186410D01*
X178007D01*
Y186272D01*
X177869D01*
Y186133D01*
X177731D01*
Y185995D01*
X177593D01*
Y185857D01*
X177454D01*
Y185719D01*
X177316D01*
Y185581D01*
X177178D01*
Y185442D01*
X176902D01*
Y185304D01*
X176764D01*
Y185166D01*
X176625D01*
Y185028D01*
X176487D01*
Y184890D01*
X176349D01*
Y184751D01*
X176073D01*
Y184613D01*
X175934D01*
Y184475D01*
X175796D01*
Y184337D01*
X175658D01*
Y184199D01*
X175520D01*
Y184060D01*
X175243D01*
Y183922D01*
X175105D01*
Y183784D01*
X174967D01*
Y183646D01*
X174829D01*
Y183508D01*
X174552D01*
Y183370D01*
X174414D01*
Y183231D01*
X174276D01*
Y183093D01*
X174138D01*
Y182955D01*
X173861D01*
Y182817D01*
X173723D01*
Y182678D01*
X173585D01*
Y182540D01*
X173309D01*
Y182402D01*
X173170D01*
Y182264D01*
X173032D01*
Y182126D01*
X172894D01*
Y181987D01*
X172618D01*
Y181849D01*
X172479D01*
Y181711D01*
X172341D01*
Y181573D01*
X172065D01*
Y181435D01*
X171927D01*
Y181297D01*
X171650D01*
Y181158D01*
X171512D01*
Y181020D01*
X171374D01*
Y180882D01*
X171097D01*
Y180744D01*
X170959D01*
Y180605D01*
X170683D01*
Y180467D01*
X170545D01*
Y180329D01*
X170268D01*
Y180191D01*
X170130D01*
Y180053D01*
X169853D01*
Y179914D01*
X169715D01*
Y179776D01*
X169439D01*
Y179638D01*
X169301D01*
Y179500D01*
X169024D01*
Y179362D01*
X168886D01*
Y179223D01*
X168610D01*
Y179085D01*
X168472D01*
Y178947D01*
X168195D01*
Y178809D01*
X167919D01*
Y178671D01*
X167780D01*
Y178532D01*
X167504D01*
Y178394D01*
X167228D01*
Y178256D01*
X166951D01*
Y178118D01*
X166813D01*
Y177980D01*
X166537D01*
Y177841D01*
X166260D01*
Y177703D01*
X165984D01*
Y177565D01*
X165708D01*
Y177427D01*
X165431D01*
Y177289D01*
X165155D01*
Y177150D01*
X164878D01*
Y177012D01*
X164602D01*
Y176874D01*
X164325D01*
Y176736D01*
X163911D01*
Y176598D01*
X163635D01*
Y176459D01*
X163358D01*
Y176321D01*
X162943D01*
Y176183D01*
X162667D01*
Y176045D01*
X162252D01*
Y175907D01*
X161838D01*
Y175768D01*
X161423D01*
Y175630D01*
X161009D01*
Y175492D01*
X160594D01*
Y175354D01*
X160179D01*
Y175216D01*
X159627D01*
Y175077D01*
X159074D01*
Y174939D01*
X158383D01*
Y174801D01*
X157692D01*
Y174663D01*
X156725D01*
Y174525D01*
X154928D01*
Y174386D01*
X153546D01*
Y174525D01*
X151888D01*
Y174663D01*
X150920D01*
Y174801D01*
X150229D01*
Y174939D01*
X149538D01*
Y175077D01*
X148985D01*
Y175216D01*
X148571D01*
Y175354D01*
X148156D01*
Y175492D01*
X147741D01*
Y175630D01*
X147327D01*
Y175768D01*
X146912D01*
Y175907D01*
X146636D01*
Y176045D01*
X146360D01*
Y176183D01*
X145945D01*
Y176321D01*
X145668D01*
Y176459D01*
X145392D01*
Y176598D01*
X145116D01*
Y176736D01*
X144839D01*
Y176874D01*
X144563D01*
Y177012D01*
X144286D01*
Y177150D01*
X144148D01*
Y177289D01*
X143872D01*
Y177427D01*
X143595D01*
Y177565D01*
X143457D01*
Y177703D01*
X143181D01*
Y177841D01*
X143043D01*
Y177980D01*
X142766D01*
Y178118D01*
X142628D01*
Y178256D01*
X142352D01*
Y178394D01*
X142213D01*
Y178532D01*
X141937D01*
Y178671D01*
X141799D01*
Y178809D01*
X141661D01*
Y178947D01*
X141522D01*
Y179085D01*
X141246D01*
Y179223D01*
X141108D01*
Y179362D01*
X140970D01*
Y179500D01*
X140831D01*
Y179638D01*
X140693D01*
Y179776D01*
X140417D01*
Y179914D01*
X140279D01*
Y180053D01*
X140140D01*
Y180191D01*
X140002D01*
Y180329D01*
X139864D01*
Y180467D01*
X139726D01*
Y180605D01*
X139588D01*
Y180744D01*
X139449D01*
Y180882D01*
X139311D01*
Y181020D01*
X139173D01*
Y181158D01*
X139035D01*
Y181297D01*
X138897D01*
Y181435D01*
X138758D01*
Y181573D01*
Y181711D01*
X138620D01*
Y181849D01*
X138482D01*
Y181987D01*
X138344D01*
Y182126D01*
X138206D01*
Y182264D01*
X138067D01*
Y182402D01*
Y182540D01*
X137929D01*
Y182678D01*
X137791D01*
Y182817D01*
X137653D01*
Y182955D01*
X137515D01*
Y183093D01*
Y183231D01*
X137376D01*
Y183370D01*
X137238D01*
Y183508D01*
Y183646D01*
X137100D01*
Y183784D01*
X136962D01*
Y183922D01*
Y184060D01*
X136824D01*
Y184199D01*
X136685D01*
Y184337D01*
Y184475D01*
X136547D01*
Y184613D01*
X136409D01*
Y184751D01*
Y184890D01*
X136271D01*
Y185028D01*
Y185166D01*
X136133D01*
Y185304D01*
X135994D01*
Y185442D01*
Y185581D01*
X135856D01*
Y185719D01*
Y185857D01*
X135718D01*
Y185995D01*
Y186133D01*
X135580D01*
Y186272D01*
Y186410D01*
X135442D01*
Y186548D01*
Y186686D01*
X135303D01*
Y186825D01*
Y186963D01*
X135165D01*
Y187101D01*
Y187239D01*
Y187377D01*
X135027D01*
Y187515D01*
Y187654D01*
X134889D01*
Y187792D01*
Y187930D01*
Y188068D01*
X134751D01*
Y188207D01*
Y188345D01*
Y188483D01*
X134612D01*
Y188621D01*
Y188759D01*
X134474D01*
Y188898D01*
Y189036D01*
Y189174D01*
X134336D01*
Y189312D01*
Y189450D01*
Y189588D01*
Y189727D01*
X134198D01*
Y189865D01*
Y190003D01*
Y190141D01*
X134060D01*
Y190279D01*
Y190418D01*
Y190556D01*
Y190694D01*
X133921D01*
Y190832D01*
Y190971D01*
Y191109D01*
Y191247D01*
X133783D01*
Y191385D01*
Y191523D01*
Y191662D01*
Y191800D01*
Y191938D01*
Y192076D01*
X133645D01*
Y192214D01*
Y192352D01*
Y192491D01*
Y192629D01*
Y192767D01*
Y192905D01*
X133507D01*
Y193043D01*
Y193182D01*
Y193320D01*
Y193458D01*
Y193596D01*
Y193735D01*
Y193873D01*
Y194011D01*
Y194149D01*
X133369D01*
Y194287D01*
Y194425D01*
Y194564D01*
Y194702D01*
Y194840D01*
Y194978D01*
Y195116D01*
Y195255D01*
Y195393D01*
Y195531D01*
Y195669D01*
Y195808D01*
Y195946D01*
Y196084D01*
Y196222D01*
Y196360D01*
Y196499D01*
Y196637D01*
Y196775D01*
Y196913D01*
Y197051D01*
Y197189D01*
Y197328D01*
Y197466D01*
X133507D01*
Y197604D01*
Y197742D01*
Y197880D01*
Y198019D01*
Y198157D01*
Y198295D01*
Y198433D01*
Y198572D01*
Y198710D01*
X133645D01*
Y198848D01*
Y198986D01*
Y199124D01*
Y199262D01*
Y199401D01*
Y199539D01*
X133783D01*
Y199677D01*
Y199815D01*
Y199953D01*
Y200092D01*
Y200230D01*
X133921D01*
Y200368D01*
Y200506D01*
Y200644D01*
Y200783D01*
Y200921D01*
X134060D01*
Y201059D01*
Y201197D01*
Y201336D01*
Y201474D01*
X134198D01*
Y201612D01*
Y201750D01*
Y201888D01*
X134336D01*
Y202027D01*
Y202165D01*
Y202303D01*
X134474D01*
Y202441D01*
Y202579D01*
Y202717D01*
X134612D01*
Y202856D01*
Y202994D01*
Y203132D01*
X134751D01*
Y203270D01*
Y203409D01*
Y203547D01*
X134889D01*
Y203685D01*
Y203823D01*
X135027D01*
Y203961D01*
Y204099D01*
Y204238D01*
X135165D01*
Y204376D01*
Y204514D01*
X135303D01*
Y204652D01*
Y204790D01*
X135442D01*
Y204929D01*
Y205067D01*
X135580D01*
Y205205D01*
Y205343D01*
Y205482D01*
X135718D01*
Y205620D01*
X135856D01*
Y205758D01*
Y205896D01*
X135994D01*
Y206034D01*
Y206173D01*
X136133D01*
Y206311D01*
Y206449D01*
X136271D01*
Y206587D01*
Y206725D01*
X136409D01*
Y206863D01*
X136547D01*
Y207002D01*
Y207140D01*
X136685D01*
Y207278D01*
X136824D01*
Y207416D01*
Y207555D01*
X136962D01*
Y207693D01*
Y207831D01*
X137100D01*
Y207969D01*
X137238D01*
Y208107D01*
X137376D01*
Y208246D01*
Y208384D01*
X137515D01*
Y208522D01*
X137653D01*
Y208660D01*
X137791D01*
Y208798D01*
Y208937D01*
X137929D01*
Y209075D01*
X138067D01*
Y209213D01*
X138206D01*
Y209351D01*
X138344D01*
Y209489D01*
Y209628D01*
X138482D01*
Y209766D01*
X138620D01*
Y209904D01*
X138758D01*
Y210042D01*
X138897D01*
Y210180D01*
X139035D01*
Y210319D01*
X139173D01*
Y210457D01*
X139311D01*
Y210595D01*
X139449D01*
Y210733D01*
X139588D01*
Y210871D01*
X139726D01*
Y211010D01*
X139864D01*
Y211148D01*
X140002D01*
Y211286D01*
X140140D01*
Y211424D01*
X140279D01*
Y211562D01*
X140417D01*
Y211701D01*
X140555D01*
Y211839D01*
X140693D01*
Y211977D01*
X140970D01*
Y212115D01*
X141108D01*
Y212253D01*
X141246D01*
Y212392D01*
X141384D01*
Y212530D01*
X141661D01*
Y212668D01*
X141799D01*
Y212806D01*
X141937D01*
Y212944D01*
X142213D01*
Y213083D01*
X142352D01*
Y213221D01*
X142628D01*
Y213359D01*
X142766D01*
Y213497D01*
X143043D01*
Y213635D01*
X143181D01*
Y213774D01*
X143457D01*
Y213912D01*
X143734D01*
Y214050D01*
X143872D01*
Y214188D01*
X144148D01*
Y214326D01*
X144425D01*
Y214465D01*
X144701D01*
Y214603D01*
X144977D01*
Y214741D01*
X145254D01*
Y214879D01*
X145530D01*
Y215017D01*
X145945D01*
Y215156D01*
X146221D01*
Y215294D01*
X146636D01*
Y215432D01*
X146912D01*
Y215570D01*
X147327D01*
Y215708D01*
X147741D01*
Y215847D01*
X148156D01*
Y215985D01*
X148709D01*
Y216123D01*
X149262D01*
Y216261D01*
X149814D01*
Y216399D01*
X150644D01*
Y216538D01*
X151473D01*
Y216676D01*
X152855D01*
Y216814D01*
X156310D01*
Y216676D01*
D02*
G37*
G36*
X163911Y170793D02*
X163773D01*
Y170655D01*
X163635D01*
Y170517D01*
Y170379D01*
X163496D01*
Y170240D01*
X163358D01*
Y170102D01*
Y169964D01*
X163220D01*
Y169826D01*
Y169688D01*
X163082D01*
Y169549D01*
X162943D01*
Y169411D01*
Y169273D01*
X162805D01*
Y169135D01*
Y168997D01*
X162667D01*
Y168858D01*
X162529D01*
Y168720D01*
Y168582D01*
X162391D01*
Y168444D01*
Y168306D01*
X162252D01*
Y168167D01*
X162114D01*
Y168029D01*
Y167891D01*
X161976D01*
Y167753D01*
X161838D01*
Y167615D01*
Y167476D01*
X161700D01*
Y167338D01*
Y167200D01*
X161562D01*
Y167062D01*
X161423D01*
Y166924D01*
Y166785D01*
X161285D01*
Y166647D01*
Y166509D01*
X161147D01*
Y166371D01*
X161009D01*
Y166233D01*
Y166094D01*
X160871D01*
Y165956D01*
Y165818D01*
X160732D01*
Y165680D01*
X160594D01*
Y165542D01*
Y165403D01*
Y165265D01*
Y165127D01*
Y164989D01*
Y164851D01*
Y164712D01*
Y164574D01*
Y164436D01*
Y164298D01*
Y164160D01*
Y164021D01*
Y163883D01*
Y163745D01*
Y163607D01*
Y163469D01*
Y163330D01*
Y163192D01*
Y163054D01*
Y162916D01*
Y162778D01*
X159903D01*
Y162916D01*
Y163054D01*
Y163192D01*
Y163330D01*
Y163469D01*
Y163607D01*
Y163745D01*
Y163883D01*
Y164021D01*
Y164160D01*
Y164298D01*
Y164436D01*
Y164574D01*
Y164712D01*
Y164851D01*
Y164989D01*
Y165127D01*
Y165265D01*
Y165403D01*
Y165542D01*
X159765D01*
Y165680D01*
Y165818D01*
X159627D01*
Y165956D01*
Y166094D01*
X159488D01*
Y166233D01*
X159350D01*
Y166371D01*
Y166509D01*
X159212D01*
Y166647D01*
Y166785D01*
X159074D01*
Y166924D01*
X158936D01*
Y167062D01*
Y167200D01*
X158798D01*
Y167338D01*
X158659D01*
Y167476D01*
Y167615D01*
X158521D01*
Y167753D01*
Y167891D01*
X158383D01*
Y168029D01*
X158245D01*
Y168167D01*
Y168306D01*
X158107D01*
Y168444D01*
Y168582D01*
X157968D01*
Y168720D01*
X157830D01*
Y168858D01*
Y168997D01*
X157692D01*
Y169135D01*
Y169273D01*
X157554D01*
Y169411D01*
X157415D01*
Y169549D01*
Y169688D01*
X157277D01*
Y169826D01*
X157139D01*
Y169964D01*
Y170102D01*
X157001D01*
Y170240D01*
Y170379D01*
X156863D01*
Y170517D01*
X156725D01*
Y170655D01*
Y170793D01*
X156586D01*
Y170931D01*
X157415D01*
Y170793D01*
Y170655D01*
X157554D01*
Y170517D01*
X157692D01*
Y170379D01*
Y170240D01*
X157830D01*
Y170102D01*
X157968D01*
Y169964D01*
Y169826D01*
X158107D01*
Y169688D01*
Y169549D01*
X158245D01*
Y169411D01*
X158383D01*
Y169273D01*
Y169135D01*
X158521D01*
Y168997D01*
Y168858D01*
X158659D01*
Y168720D01*
X158798D01*
Y168582D01*
Y168444D01*
X158936D01*
Y168306D01*
Y168167D01*
X159074D01*
Y168029D01*
X159212D01*
Y167891D01*
Y167753D01*
X159350D01*
Y167615D01*
Y167476D01*
X159488D01*
Y167338D01*
X159627D01*
Y167200D01*
Y167062D01*
X159765D01*
Y166924D01*
X159903D01*
Y166785D01*
Y166647D01*
X160041D01*
Y166509D01*
Y166371D01*
X160318D01*
Y166509D01*
Y166647D01*
X160456D01*
Y166785D01*
X160594D01*
Y166924D01*
Y167062D01*
X160732D01*
Y167200D01*
X160871D01*
Y167338D01*
Y167476D01*
X161009D01*
Y167615D01*
Y167753D01*
X161147D01*
Y167891D01*
X161285D01*
Y168029D01*
Y168167D01*
X161423D01*
Y168306D01*
Y168444D01*
X161562D01*
Y168582D01*
X161700D01*
Y168720D01*
Y168858D01*
X161838D01*
Y168997D01*
Y169135D01*
X161976D01*
Y169273D01*
X162114D01*
Y169411D01*
Y169549D01*
X162252D01*
Y169688D01*
X162391D01*
Y169826D01*
Y169964D01*
X162529D01*
Y170102D01*
Y170240D01*
X162667D01*
Y170379D01*
X162805D01*
Y170517D01*
Y170655D01*
X162943D01*
Y170793D01*
Y170931D01*
X163911D01*
Y170793D01*
D02*
G37*
G36*
X179528D02*
Y170655D01*
Y170517D01*
Y170379D01*
Y170240D01*
Y170102D01*
Y169964D01*
Y169826D01*
Y169688D01*
Y169549D01*
Y169411D01*
Y169273D01*
Y169135D01*
Y168997D01*
Y168858D01*
Y168720D01*
Y168582D01*
Y168444D01*
Y168306D01*
Y168167D01*
Y168029D01*
Y167891D01*
Y167753D01*
Y167615D01*
Y167476D01*
Y167338D01*
Y167200D01*
Y167062D01*
Y166924D01*
Y166785D01*
Y166647D01*
Y166509D01*
Y166371D01*
Y166233D01*
Y166094D01*
Y165956D01*
Y165818D01*
Y165680D01*
Y165542D01*
Y165403D01*
Y165265D01*
Y165127D01*
Y164989D01*
Y164851D01*
Y164712D01*
Y164574D01*
Y164436D01*
Y164298D01*
Y164160D01*
Y164021D01*
Y163883D01*
Y163745D01*
Y163607D01*
Y163469D01*
Y163330D01*
Y163192D01*
Y163054D01*
Y162916D01*
Y162778D01*
X178698D01*
Y162916D01*
Y163054D01*
Y163192D01*
Y163330D01*
Y163469D01*
Y163607D01*
Y163745D01*
Y163883D01*
Y164021D01*
Y164160D01*
Y164298D01*
Y164436D01*
Y164574D01*
Y164712D01*
Y164851D01*
Y164989D01*
Y165127D01*
Y165265D01*
Y165403D01*
Y165542D01*
Y165680D01*
Y165818D01*
Y165956D01*
Y166094D01*
Y166233D01*
Y166371D01*
Y166509D01*
Y166647D01*
Y166785D01*
Y166924D01*
Y167062D01*
Y167200D01*
Y167338D01*
Y167476D01*
Y167615D01*
Y167753D01*
Y167891D01*
Y168029D01*
Y168167D01*
Y168306D01*
Y168444D01*
Y168582D01*
Y168720D01*
Y168858D01*
Y168997D01*
Y169135D01*
Y169273D01*
Y169411D01*
X178560D01*
Y169273D01*
X178422D01*
Y169135D01*
Y168997D01*
X178284D01*
Y168858D01*
X178146D01*
Y168720D01*
X178007D01*
Y168582D01*
X177869D01*
Y168444D01*
Y168306D01*
X177731D01*
Y168167D01*
X177593D01*
Y168029D01*
X177454D01*
Y167891D01*
Y167753D01*
X177316D01*
Y167615D01*
X177178D01*
Y167476D01*
X177040D01*
Y167338D01*
X176902D01*
Y167200D01*
Y167062D01*
X176764D01*
Y166924D01*
X176625D01*
Y166785D01*
X176487D01*
Y166647D01*
X176349D01*
Y166509D01*
Y166371D01*
X176211D01*
Y166233D01*
X176073D01*
Y166094D01*
X175934D01*
Y165956D01*
X175796D01*
Y165818D01*
Y165680D01*
X175658D01*
Y165542D01*
X175520D01*
Y165403D01*
X175382D01*
Y165265D01*
X175243D01*
Y165127D01*
Y164989D01*
X175105D01*
Y164851D01*
X174967D01*
Y164712D01*
X174829D01*
Y164574D01*
Y164436D01*
X174690D01*
Y164298D01*
X174552D01*
Y164160D01*
X174414D01*
Y164021D01*
X174276D01*
Y163883D01*
Y163745D01*
X174138D01*
Y163607D01*
X174000D01*
Y163469D01*
X173861D01*
Y163330D01*
X173723D01*
Y163192D01*
Y163054D01*
X173585D01*
Y162916D01*
X173447D01*
Y162778D01*
X172756D01*
Y162916D01*
Y163054D01*
Y163192D01*
Y163330D01*
Y163469D01*
Y163607D01*
Y163745D01*
Y163883D01*
Y164021D01*
Y164160D01*
Y164298D01*
Y164436D01*
Y164574D01*
Y164712D01*
Y164851D01*
Y164989D01*
Y165127D01*
Y165265D01*
Y165403D01*
Y165542D01*
Y165680D01*
Y165818D01*
Y165956D01*
Y166094D01*
Y166233D01*
Y166371D01*
Y166509D01*
Y166647D01*
Y166785D01*
Y166924D01*
Y167062D01*
Y167200D01*
Y167338D01*
Y167476D01*
Y167615D01*
Y167753D01*
Y167891D01*
Y168029D01*
Y168167D01*
Y168306D01*
Y168444D01*
Y168582D01*
Y168720D01*
Y168858D01*
Y168997D01*
Y169135D01*
Y169273D01*
Y169411D01*
Y169549D01*
Y169688D01*
Y169826D01*
Y169964D01*
Y170102D01*
Y170240D01*
Y170379D01*
Y170517D01*
Y170655D01*
Y170793D01*
Y170931D01*
X173447D01*
Y170793D01*
Y170655D01*
Y170517D01*
Y170379D01*
Y170240D01*
Y170102D01*
Y169964D01*
Y169826D01*
Y169688D01*
Y169549D01*
Y169411D01*
Y169273D01*
Y169135D01*
Y168997D01*
Y168858D01*
Y168720D01*
Y168582D01*
Y168444D01*
Y168306D01*
Y168167D01*
Y168029D01*
Y167891D01*
Y167753D01*
Y167615D01*
Y167476D01*
Y167338D01*
Y167200D01*
Y167062D01*
Y166924D01*
Y166785D01*
Y166647D01*
Y166509D01*
Y166371D01*
Y166233D01*
Y166094D01*
Y165956D01*
Y165818D01*
Y165680D01*
Y165542D01*
Y165403D01*
Y165265D01*
Y165127D01*
Y164989D01*
Y164851D01*
Y164712D01*
Y164574D01*
Y164436D01*
X173723D01*
Y164574D01*
X173861D01*
Y164712D01*
X174000D01*
Y164851D01*
X174138D01*
Y164989D01*
Y165127D01*
X174276D01*
Y165265D01*
X174414D01*
Y165403D01*
X174552D01*
Y165542D01*
X174690D01*
Y165680D01*
Y165818D01*
X174829D01*
Y165956D01*
X174967D01*
Y166094D01*
X175105D01*
Y166233D01*
X175243D01*
Y166371D01*
Y166509D01*
X175382D01*
Y166647D01*
X175520D01*
Y166785D01*
X175658D01*
Y166924D01*
X175796D01*
Y167062D01*
Y167200D01*
X175934D01*
Y167338D01*
X176073D01*
Y167476D01*
X176211D01*
Y167615D01*
Y167753D01*
X176349D01*
Y167891D01*
X176487D01*
Y168029D01*
X176625D01*
Y168167D01*
X176764D01*
Y168306D01*
Y168444D01*
X176902D01*
Y168582D01*
X177040D01*
Y168720D01*
X177178D01*
Y168858D01*
X177316D01*
Y168997D01*
Y169135D01*
X177454D01*
Y169273D01*
X177593D01*
Y169411D01*
X177731D01*
Y169549D01*
X177869D01*
Y169688D01*
Y169826D01*
X178007D01*
Y169964D01*
X178146D01*
Y170102D01*
X178284D01*
Y170240D01*
X178422D01*
Y170379D01*
Y170517D01*
X178560D01*
Y170655D01*
X178698D01*
Y170793D01*
X178837D01*
Y170931D01*
X179528D01*
Y170793D01*
D02*
G37*
G36*
X192518D02*
Y170655D01*
Y170517D01*
Y170379D01*
Y170240D01*
Y170102D01*
Y169964D01*
Y169826D01*
Y169688D01*
Y169549D01*
Y169411D01*
Y169273D01*
Y169135D01*
Y168997D01*
Y168858D01*
Y168720D01*
Y168582D01*
Y168444D01*
Y168306D01*
Y168167D01*
Y168029D01*
Y167891D01*
Y167753D01*
Y167615D01*
Y167476D01*
Y167338D01*
Y167200D01*
Y167062D01*
Y166924D01*
Y166785D01*
Y166647D01*
Y166509D01*
Y166371D01*
Y166233D01*
Y166094D01*
Y165956D01*
Y165818D01*
Y165680D01*
Y165542D01*
Y165403D01*
Y165265D01*
Y165127D01*
Y164989D01*
Y164851D01*
Y164712D01*
Y164574D01*
Y164436D01*
Y164298D01*
Y164160D01*
Y164021D01*
Y163883D01*
Y163745D01*
Y163607D01*
Y163469D01*
Y163330D01*
Y163192D01*
Y163054D01*
Y162916D01*
Y162778D01*
X191827D01*
Y162916D01*
Y163054D01*
Y163192D01*
Y163330D01*
Y163469D01*
Y163607D01*
Y163745D01*
Y163883D01*
Y164021D01*
Y164160D01*
Y164298D01*
Y164436D01*
Y164574D01*
Y164712D01*
Y164851D01*
Y164989D01*
Y165127D01*
Y165265D01*
Y165403D01*
Y165542D01*
Y165680D01*
Y165818D01*
Y165956D01*
Y166094D01*
Y166233D01*
Y166371D01*
Y166509D01*
Y166647D01*
Y166785D01*
Y166924D01*
Y167062D01*
Y167200D01*
Y167338D01*
Y167476D01*
Y167615D01*
Y167753D01*
Y167891D01*
Y168029D01*
Y168167D01*
Y168306D01*
Y168444D01*
Y168582D01*
Y168720D01*
Y168858D01*
Y168997D01*
Y169135D01*
Y169273D01*
X191551D01*
Y169135D01*
X191413D01*
Y168997D01*
X191275D01*
Y168858D01*
Y168720D01*
X191136D01*
Y168582D01*
X190998D01*
Y168444D01*
X190860D01*
Y168306D01*
X190722D01*
Y168167D01*
Y168029D01*
X190584D01*
Y167891D01*
X190445D01*
Y167753D01*
X190307D01*
Y167615D01*
X190169D01*
Y167476D01*
Y167338D01*
X190031D01*
Y167200D01*
X189893D01*
Y167062D01*
X189754D01*
Y166924D01*
X189616D01*
Y166785D01*
Y166647D01*
X189478D01*
Y166509D01*
X189340D01*
Y166371D01*
X189202D01*
Y166233D01*
Y166094D01*
X189063D01*
Y165956D01*
X188925D01*
Y165818D01*
X188787D01*
Y165680D01*
X188649D01*
Y165542D01*
Y165403D01*
X188511D01*
Y165265D01*
X188372D01*
Y165127D01*
X188234D01*
Y164989D01*
X188096D01*
Y164851D01*
Y164712D01*
X187958D01*
Y164574D01*
X187820D01*
Y164436D01*
X187681D01*
Y164298D01*
X187543D01*
Y164160D01*
Y164021D01*
X187405D01*
Y163883D01*
X187267D01*
Y163745D01*
X187129D01*
Y163607D01*
X186990D01*
Y163469D01*
Y163330D01*
X186852D01*
Y163192D01*
X186714D01*
Y163054D01*
X186576D01*
Y162916D01*
X186438D01*
Y162778D01*
X185747D01*
Y162916D01*
Y163054D01*
Y163192D01*
Y163330D01*
Y163469D01*
Y163607D01*
Y163745D01*
Y163883D01*
Y164021D01*
Y164160D01*
Y164298D01*
Y164436D01*
Y164574D01*
Y164712D01*
Y164851D01*
Y164989D01*
Y165127D01*
Y165265D01*
Y165403D01*
Y165542D01*
Y165680D01*
Y165818D01*
Y165956D01*
Y166094D01*
Y166233D01*
Y166371D01*
Y166509D01*
Y166647D01*
Y166785D01*
Y166924D01*
Y167062D01*
Y167200D01*
Y167338D01*
Y167476D01*
Y167615D01*
Y167753D01*
Y167891D01*
Y168029D01*
Y168167D01*
Y168306D01*
Y168444D01*
Y168582D01*
Y168720D01*
Y168858D01*
Y168997D01*
Y169135D01*
Y169273D01*
Y169411D01*
Y169549D01*
Y169688D01*
Y169826D01*
Y169964D01*
Y170102D01*
Y170240D01*
Y170379D01*
Y170517D01*
Y170655D01*
Y170793D01*
Y170931D01*
X186576D01*
Y170793D01*
Y170655D01*
Y170517D01*
Y170379D01*
Y170240D01*
Y170102D01*
Y169964D01*
Y169826D01*
Y169688D01*
Y169549D01*
Y169411D01*
Y169273D01*
Y169135D01*
Y168997D01*
Y168858D01*
Y168720D01*
Y168582D01*
Y168444D01*
Y168306D01*
Y168167D01*
Y168029D01*
Y167891D01*
Y167753D01*
Y167615D01*
Y167476D01*
Y167338D01*
Y167200D01*
Y167062D01*
Y166924D01*
Y166785D01*
Y166647D01*
Y166509D01*
Y166371D01*
Y166233D01*
Y166094D01*
Y165956D01*
Y165818D01*
Y165680D01*
Y165542D01*
Y165403D01*
Y165265D01*
Y165127D01*
Y164989D01*
Y164851D01*
Y164712D01*
Y164574D01*
Y164436D01*
Y164298D01*
X186714D01*
Y164436D01*
X186852D01*
Y164574D01*
X186990D01*
Y164712D01*
Y164851D01*
X187129D01*
Y164989D01*
X187267D01*
Y165127D01*
X187405D01*
Y165265D01*
Y165403D01*
X187543D01*
Y165542D01*
X187681D01*
Y165680D01*
X187820D01*
Y165818D01*
X187958D01*
Y165956D01*
Y166094D01*
X188096D01*
Y166233D01*
X188234D01*
Y166371D01*
X188372D01*
Y166509D01*
X188511D01*
Y166647D01*
Y166785D01*
X188649D01*
Y166924D01*
X188787D01*
Y167062D01*
X188925D01*
Y167200D01*
X189063D01*
Y167338D01*
Y167476D01*
X189202D01*
Y167615D01*
X189340D01*
Y167753D01*
X189478D01*
Y167891D01*
X189616D01*
Y168029D01*
Y168167D01*
X189754D01*
Y168306D01*
X189893D01*
Y168444D01*
X190031D01*
Y168582D01*
X190169D01*
Y168720D01*
Y168858D01*
X190307D01*
Y168997D01*
X190445D01*
Y169135D01*
X190584D01*
Y169273D01*
X190722D01*
Y169411D01*
Y169549D01*
X190860D01*
Y169688D01*
X190998D01*
Y169826D01*
X191136D01*
Y169964D01*
Y170102D01*
X191275D01*
Y170240D01*
X191413D01*
Y170379D01*
X191551D01*
Y170517D01*
X191689D01*
Y170655D01*
Y170793D01*
X191827D01*
Y170931D01*
X192518D01*
Y170793D01*
D02*
G37*
G36*
X206891D02*
X207444D01*
Y170655D01*
X207720D01*
Y170517D01*
X207997D01*
Y170379D01*
X208273D01*
Y170240D01*
X208550D01*
Y170102D01*
X208688D01*
Y169964D01*
X208826D01*
Y169826D01*
X208964D01*
Y169688D01*
X209103D01*
Y169549D01*
X209241D01*
Y169411D01*
X209379D01*
Y169273D01*
Y169135D01*
X209517D01*
Y168997D01*
X209655D01*
Y168858D01*
Y168720D01*
X209793D01*
Y168582D01*
Y168444D01*
X209932D01*
Y168306D01*
Y168167D01*
Y168029D01*
X210070D01*
Y167891D01*
Y167753D01*
Y167615D01*
Y167476D01*
Y167338D01*
Y167200D01*
Y167062D01*
Y166924D01*
Y166785D01*
Y166647D01*
Y166509D01*
Y166371D01*
Y166233D01*
Y166094D01*
Y165956D01*
Y165818D01*
Y165680D01*
X209932D01*
Y165542D01*
Y165403D01*
Y165265D01*
X209793D01*
Y165127D01*
Y164989D01*
X209655D01*
Y164851D01*
Y164712D01*
X209517D01*
Y164574D01*
Y164436D01*
X209379D01*
Y164298D01*
X209241D01*
Y164160D01*
X209103D01*
Y164021D01*
X208964D01*
Y163883D01*
X208826D01*
Y163745D01*
X208688D01*
Y163607D01*
X208550D01*
Y163469D01*
X208273D01*
Y163330D01*
X208135D01*
Y163192D01*
X207859D01*
Y163054D01*
X207444D01*
Y162916D01*
X207030D01*
Y162778D01*
X204680D01*
Y162916D01*
X204127D01*
Y163054D01*
X203851D01*
Y163192D01*
X203574D01*
Y163330D01*
X203298D01*
Y163469D01*
X203160D01*
Y163607D01*
X202884D01*
Y163745D01*
Y163883D01*
Y164021D01*
Y164160D01*
Y164298D01*
Y164436D01*
Y164574D01*
Y164712D01*
Y164851D01*
Y164989D01*
Y165127D01*
Y165265D01*
Y165403D01*
Y165542D01*
Y165680D01*
Y165818D01*
Y165956D01*
Y166094D01*
Y166233D01*
Y166371D01*
Y166509D01*
Y166647D01*
Y166785D01*
X203574D01*
Y166647D01*
Y166509D01*
Y166371D01*
Y166233D01*
Y166094D01*
Y165956D01*
Y165818D01*
Y165680D01*
Y165542D01*
Y165403D01*
Y165265D01*
Y165127D01*
Y164989D01*
Y164851D01*
Y164712D01*
Y164574D01*
Y164436D01*
Y164298D01*
Y164160D01*
X203713D01*
Y164021D01*
X203851D01*
Y163883D01*
X203989D01*
Y163745D01*
X204404D01*
Y163607D01*
X204818D01*
Y163469D01*
X205647D01*
Y163330D01*
X206062D01*
Y163469D01*
X206891D01*
Y163607D01*
X207306D01*
Y163745D01*
X207582D01*
Y163883D01*
X207859D01*
Y164021D01*
X207997D01*
Y164160D01*
X208135D01*
Y164298D01*
X208273D01*
Y164436D01*
X208412D01*
Y164574D01*
X208550D01*
Y164712D01*
X208688D01*
Y164851D01*
X208826D01*
Y164989D01*
Y165127D01*
X208964D01*
Y165265D01*
X209103D01*
Y165403D01*
Y165542D01*
Y165680D01*
X209241D01*
Y165818D01*
Y165956D01*
Y166094D01*
X209379D01*
Y166233D01*
Y166371D01*
Y166509D01*
Y166647D01*
Y166785D01*
Y166924D01*
Y167062D01*
Y167200D01*
Y167338D01*
Y167476D01*
X209241D01*
Y167615D01*
Y167753D01*
Y167891D01*
Y168029D01*
X209103D01*
Y168167D01*
Y168306D01*
X208964D01*
Y168444D01*
Y168582D01*
X208826D01*
Y168720D01*
Y168858D01*
X208688D01*
Y168997D01*
X208550D01*
Y169135D01*
X208412D01*
Y169273D01*
X208273D01*
Y169411D01*
X208135D01*
Y169549D01*
X207997D01*
Y169688D01*
X207720D01*
Y169826D01*
X207582D01*
Y169964D01*
X207168D01*
Y170102D01*
X206753D01*
Y170240D01*
X204818D01*
Y170102D01*
X204404D01*
Y169964D01*
X204127D01*
Y169826D01*
X203851D01*
Y169688D01*
X203713D01*
Y169549D01*
X203574D01*
Y169411D01*
X203160D01*
Y169549D01*
X203022D01*
Y169688D01*
X202884D01*
Y169826D01*
Y169964D01*
X203022D01*
Y170102D01*
X203160D01*
Y170240D01*
X203436D01*
Y170379D01*
X203713D01*
Y170517D01*
X203989D01*
Y170655D01*
X204265D01*
Y170793D01*
X204818D01*
Y170931D01*
X206891D01*
Y170793D01*
D02*
G37*
G36*
X200396D02*
Y170655D01*
Y170517D01*
Y170379D01*
Y170240D01*
Y170102D01*
Y169964D01*
Y169826D01*
Y169688D01*
Y169549D01*
Y169411D01*
Y169273D01*
Y169135D01*
Y168997D01*
Y168858D01*
Y168720D01*
Y168582D01*
Y168444D01*
Y168306D01*
Y168167D01*
Y168029D01*
Y167891D01*
Y167753D01*
Y167615D01*
Y167476D01*
Y167338D01*
Y167200D01*
Y167062D01*
Y166924D01*
Y166785D01*
Y166647D01*
Y166509D01*
Y166371D01*
Y166233D01*
Y166094D01*
Y165956D01*
Y165818D01*
Y165680D01*
Y165542D01*
Y165403D01*
Y165265D01*
Y165127D01*
Y164989D01*
Y164851D01*
Y164712D01*
Y164574D01*
Y164436D01*
Y164298D01*
Y164160D01*
Y164021D01*
Y163883D01*
Y163745D01*
Y163607D01*
Y163469D01*
Y163330D01*
Y163192D01*
Y163054D01*
Y162916D01*
Y162778D01*
X194730D01*
Y162916D01*
Y163054D01*
Y163192D01*
Y163330D01*
Y163469D01*
X199567D01*
Y163607D01*
Y163745D01*
Y163883D01*
Y164021D01*
Y164160D01*
Y164298D01*
Y164436D01*
Y164574D01*
Y164712D01*
Y164851D01*
Y164989D01*
Y165127D01*
Y165265D01*
Y165403D01*
Y165542D01*
Y165680D01*
Y165818D01*
Y165956D01*
Y166094D01*
Y166233D01*
Y166371D01*
Y166509D01*
X199428D01*
Y166647D01*
X195421D01*
Y166785D01*
Y166924D01*
Y167062D01*
Y167200D01*
X199567D01*
Y167338D01*
Y167476D01*
Y167615D01*
Y167753D01*
Y167891D01*
Y168029D01*
Y168167D01*
Y168306D01*
Y168444D01*
Y168582D01*
Y168720D01*
Y168858D01*
Y168997D01*
Y169135D01*
Y169273D01*
Y169411D01*
Y169549D01*
Y169688D01*
Y169826D01*
Y169964D01*
Y170102D01*
Y170240D01*
X194868D01*
Y170379D01*
Y170517D01*
Y170655D01*
Y170793D01*
Y170931D01*
X200396D01*
Y170793D01*
D02*
G37*
G36*
X182983D02*
Y170655D01*
Y170517D01*
Y170379D01*
Y170240D01*
Y170102D01*
Y169964D01*
Y169826D01*
Y169688D01*
Y169549D01*
Y169411D01*
Y169273D01*
Y169135D01*
Y168997D01*
Y168858D01*
Y168720D01*
Y168582D01*
Y168444D01*
Y168306D01*
Y168167D01*
Y168029D01*
Y167891D01*
Y167753D01*
Y167615D01*
Y167476D01*
Y167338D01*
Y167200D01*
Y167062D01*
Y166924D01*
Y166785D01*
Y166647D01*
Y166509D01*
Y166371D01*
Y166233D01*
Y166094D01*
Y165956D01*
Y165818D01*
Y165680D01*
Y165542D01*
Y165403D01*
Y165265D01*
Y165127D01*
Y164989D01*
Y164851D01*
Y164712D01*
Y164574D01*
Y164436D01*
Y164298D01*
Y164160D01*
Y164021D01*
Y163883D01*
Y163745D01*
Y163607D01*
Y163469D01*
Y163330D01*
Y163192D01*
Y163054D01*
Y162916D01*
Y162778D01*
X182292D01*
Y162916D01*
Y163054D01*
Y163192D01*
Y163330D01*
Y163469D01*
Y163607D01*
Y163745D01*
Y163883D01*
Y164021D01*
Y164160D01*
Y164298D01*
Y164436D01*
Y164574D01*
Y164712D01*
Y164851D01*
Y164989D01*
Y165127D01*
Y165265D01*
Y165403D01*
Y165542D01*
Y165680D01*
Y165818D01*
Y165956D01*
Y166094D01*
Y166233D01*
Y166371D01*
Y166509D01*
Y166647D01*
Y166785D01*
Y166924D01*
Y167062D01*
Y167200D01*
Y167338D01*
Y167476D01*
Y167615D01*
Y167753D01*
Y167891D01*
Y168029D01*
Y168167D01*
Y168306D01*
Y168444D01*
Y168582D01*
Y168720D01*
Y168858D01*
Y168997D01*
Y169135D01*
Y169273D01*
Y169411D01*
Y169549D01*
Y169688D01*
Y169826D01*
Y169964D01*
Y170102D01*
Y170240D01*
Y170379D01*
Y170517D01*
Y170655D01*
Y170793D01*
Y170931D01*
X182983D01*
Y170793D01*
D02*
G37*
G36*
X169992D02*
Y170655D01*
Y170517D01*
Y170379D01*
Y170240D01*
Y170102D01*
Y169964D01*
Y169826D01*
Y169688D01*
Y169549D01*
Y169411D01*
Y169273D01*
Y169135D01*
Y168997D01*
Y168858D01*
Y168720D01*
Y168582D01*
Y168444D01*
Y168306D01*
Y168167D01*
Y168029D01*
Y167891D01*
Y167753D01*
Y167615D01*
Y167476D01*
Y167338D01*
Y167200D01*
Y167062D01*
Y166924D01*
Y166785D01*
Y166647D01*
Y166509D01*
Y166371D01*
Y166233D01*
Y166094D01*
Y165956D01*
Y165818D01*
Y165680D01*
Y165542D01*
Y165403D01*
Y165265D01*
Y165127D01*
Y164989D01*
Y164851D01*
Y164712D01*
Y164574D01*
Y164436D01*
Y164298D01*
Y164160D01*
Y164021D01*
Y163883D01*
Y163745D01*
Y163607D01*
Y163469D01*
Y163330D01*
Y163192D01*
Y163054D01*
Y162916D01*
Y162778D01*
X169162D01*
Y162916D01*
Y163054D01*
Y163192D01*
Y163330D01*
Y163469D01*
Y163607D01*
Y163745D01*
Y163883D01*
Y164021D01*
Y164160D01*
Y164298D01*
Y164436D01*
Y164574D01*
Y164712D01*
Y164851D01*
Y164989D01*
Y165127D01*
Y165265D01*
Y165403D01*
Y165542D01*
Y165680D01*
Y165818D01*
Y165956D01*
Y166094D01*
Y166233D01*
X165016D01*
Y166371D01*
Y166509D01*
Y166647D01*
Y166785D01*
Y166924D01*
X169162D01*
Y167062D01*
Y167200D01*
Y167338D01*
Y167476D01*
Y167615D01*
Y167753D01*
Y167891D01*
Y168029D01*
Y168167D01*
Y168306D01*
Y168444D01*
Y168582D01*
Y168720D01*
Y168858D01*
Y168997D01*
Y169135D01*
Y169273D01*
Y169411D01*
Y169549D01*
Y169688D01*
Y169826D01*
Y169964D01*
Y170102D01*
Y170240D01*
X164464D01*
Y170379D01*
Y170517D01*
Y170655D01*
Y170793D01*
Y170931D01*
X169992D01*
Y170793D01*
D02*
G37*
%LPC*%
G36*
X155757Y211148D02*
X153546D01*
Y211010D01*
X152026D01*
Y210871D01*
X151197D01*
Y210733D01*
X150644D01*
Y210595D01*
X150091D01*
Y210457D01*
X149538D01*
Y210319D01*
X149124D01*
Y210180D01*
X148709D01*
Y210042D01*
X148433D01*
Y209904D01*
X148156D01*
Y209766D01*
X147741D01*
Y209628D01*
X147465D01*
Y209489D01*
X147189D01*
Y209351D01*
X146912D01*
Y209213D01*
X146774D01*
Y209075D01*
X146498D01*
Y208937D01*
X146221D01*
Y208798D01*
X146083D01*
Y208660D01*
X145807D01*
Y208522D01*
X145668D01*
Y208384D01*
X145392D01*
Y208246D01*
X145254D01*
Y208107D01*
X144977D01*
Y207969D01*
X144839D01*
Y207831D01*
X144701D01*
Y207693D01*
X144563D01*
Y207555D01*
X144286D01*
Y207416D01*
X144148D01*
Y207278D01*
X144010D01*
Y207140D01*
X143872D01*
Y207002D01*
X143734D01*
Y206863D01*
X143595D01*
Y206725D01*
X143457D01*
Y206587D01*
X143319D01*
Y206449D01*
X143181D01*
Y206311D01*
X143043D01*
Y206173D01*
X142904D01*
Y206034D01*
X142766D01*
Y205896D01*
Y205758D01*
X142628D01*
Y205620D01*
X142490D01*
Y205482D01*
X142352D01*
Y205343D01*
X142213D01*
Y205205D01*
Y205067D01*
X142075D01*
Y204929D01*
X141937D01*
Y204790D01*
X141799D01*
Y204652D01*
Y204514D01*
X141661D01*
Y204376D01*
X141522D01*
Y204238D01*
Y204099D01*
X141384D01*
Y203961D01*
Y203823D01*
X141246D01*
Y203685D01*
X141108D01*
Y203547D01*
Y203409D01*
X140970D01*
Y203270D01*
Y203132D01*
X140831D01*
Y202994D01*
Y202856D01*
X140693D01*
Y202717D01*
Y202579D01*
X140555D01*
Y202441D01*
Y202303D01*
X140417D01*
Y202165D01*
Y202027D01*
X140279D01*
Y201888D01*
Y201750D01*
X140140D01*
Y201612D01*
Y201474D01*
Y201336D01*
X140002D01*
Y201197D01*
Y201059D01*
Y200921D01*
X139864D01*
Y200783D01*
Y200644D01*
Y200506D01*
X139726D01*
Y200368D01*
Y200230D01*
Y200092D01*
X139588D01*
Y199953D01*
Y199815D01*
Y199677D01*
Y199539D01*
X139449D01*
Y199401D01*
Y199262D01*
Y199124D01*
Y198986D01*
X139311D01*
Y198848D01*
Y198710D01*
Y198572D01*
Y198433D01*
Y198295D01*
Y198157D01*
X139173D01*
Y198019D01*
Y197880D01*
Y197742D01*
Y197604D01*
Y197466D01*
Y197328D01*
Y197189D01*
Y197051D01*
Y196913D01*
Y196775D01*
X139035D01*
Y196637D01*
Y196499D01*
Y196360D01*
Y196222D01*
Y196084D01*
Y195946D01*
Y195808D01*
Y195669D01*
Y195531D01*
Y195393D01*
Y195255D01*
Y195116D01*
Y194978D01*
Y194840D01*
X139173D01*
Y194702D01*
Y194564D01*
Y194425D01*
Y194287D01*
Y194149D01*
Y194011D01*
Y193873D01*
Y193735D01*
Y193596D01*
Y193458D01*
X139311D01*
Y193320D01*
Y193182D01*
Y193043D01*
Y192905D01*
Y192767D01*
Y192629D01*
X139449D01*
Y192491D01*
Y192352D01*
Y192214D01*
Y192076D01*
X139588D01*
Y191938D01*
Y191800D01*
Y191662D01*
Y191523D01*
X139726D01*
Y191385D01*
Y191247D01*
Y191109D01*
Y190971D01*
X139864D01*
Y190832D01*
Y190694D01*
Y190556D01*
X140002D01*
Y190418D01*
Y190279D01*
X140140D01*
Y190141D01*
Y190003D01*
Y189865D01*
X140279D01*
Y189727D01*
Y189588D01*
X140417D01*
Y189450D01*
Y189312D01*
Y189174D01*
X140555D01*
Y189036D01*
Y188898D01*
X140693D01*
Y188759D01*
Y188621D01*
X140831D01*
Y188483D01*
Y188345D01*
X140970D01*
Y188207D01*
X141108D01*
Y188068D01*
Y187930D01*
X141246D01*
Y187792D01*
Y187654D01*
X141384D01*
Y187515D01*
X141522D01*
Y187377D01*
Y187239D01*
X141661D01*
Y187101D01*
Y186963D01*
X141799D01*
Y186825D01*
X141937D01*
Y186686D01*
X142075D01*
Y186548D01*
Y186410D01*
X142213D01*
Y186272D01*
X142352D01*
Y186133D01*
X142490D01*
Y185995D01*
Y185857D01*
X142628D01*
Y185719D01*
X142766D01*
Y185581D01*
X142904D01*
Y185442D01*
X143043D01*
Y185304D01*
X143181D01*
Y185166D01*
X143319D01*
Y185028D01*
X143457D01*
Y184890D01*
Y184751D01*
X143595D01*
Y184613D01*
X143734D01*
Y184475D01*
X143872D01*
Y184337D01*
X144148D01*
Y184199D01*
X144286D01*
Y184060D01*
X144425D01*
Y183922D01*
X144563D01*
Y183784D01*
X144701D01*
Y183646D01*
X144839D01*
Y183508D01*
X145116D01*
Y183370D01*
X145254D01*
Y183231D01*
X145392D01*
Y183093D01*
X145668D01*
Y182955D01*
X145807D01*
Y182817D01*
X145945D01*
Y182678D01*
X146221D01*
Y182540D01*
X146360D01*
Y182402D01*
X146636D01*
Y182264D01*
X146912D01*
Y182126D01*
X147189D01*
Y181987D01*
X147327D01*
Y181849D01*
X147603D01*
Y181711D01*
X147880D01*
Y181573D01*
X148156D01*
Y181435D01*
X148433D01*
Y181297D01*
X148847D01*
Y181158D01*
X149124D01*
Y181020D01*
X149538D01*
Y180882D01*
X149953D01*
Y180744D01*
X150367D01*
Y180605D01*
X150920D01*
Y180467D01*
X151473D01*
Y180329D01*
X152440D01*
Y180191D01*
X156172D01*
Y180329D01*
X157001D01*
Y180467D01*
X157692D01*
Y180605D01*
X158245D01*
Y180744D01*
X158798D01*
Y180882D01*
X159212D01*
Y181020D01*
X159627D01*
Y181158D01*
X160041D01*
Y181297D01*
X160456D01*
Y181435D01*
X160732D01*
Y181573D01*
X161147D01*
Y181711D01*
X161423D01*
Y181849D01*
X161700D01*
Y181987D01*
X162114D01*
Y182126D01*
X162391D01*
Y182264D01*
X162667D01*
Y182402D01*
X162943D01*
Y182540D01*
X163220D01*
Y182678D01*
X163496D01*
Y182817D01*
X163773D01*
Y182955D01*
X163911D01*
Y183093D01*
X164187D01*
Y183231D01*
X164464D01*
Y183370D01*
X164740D01*
Y183508D01*
X164878D01*
Y183646D01*
X165155D01*
Y183784D01*
X165431D01*
Y183922D01*
X165569D01*
Y184060D01*
X165846D01*
Y184199D01*
X166122D01*
Y184337D01*
X166260D01*
Y184475D01*
X166537D01*
Y184613D01*
X166675D01*
Y184751D01*
X166951D01*
Y184890D01*
X167089D01*
Y185028D01*
X167366D01*
Y185166D01*
X167504D01*
Y185304D01*
X167642D01*
Y185442D01*
X167919D01*
Y185581D01*
X168057D01*
Y185719D01*
X168333D01*
Y185857D01*
X168472D01*
Y185995D01*
X168610D01*
Y186133D01*
X168886D01*
Y186272D01*
X169024D01*
Y186410D01*
X169162D01*
Y186548D01*
X169439D01*
Y186686D01*
X169577D01*
Y186825D01*
X169715D01*
Y186963D01*
X169992D01*
Y187101D01*
X170130D01*
Y187239D01*
X170268D01*
Y187377D01*
X170545D01*
Y187515D01*
X170683D01*
Y187654D01*
X170821D01*
Y187792D01*
X170959D01*
Y187930D01*
X171236D01*
Y188068D01*
X171374D01*
Y188207D01*
X171512D01*
Y188345D01*
X171650D01*
Y188483D01*
X171927D01*
Y188621D01*
X172065D01*
Y188759D01*
X172203D01*
Y188898D01*
X172341D01*
Y189036D01*
X172479D01*
Y189174D01*
X172756D01*
Y189312D01*
X172894D01*
Y189450D01*
X173032D01*
Y189588D01*
X173170D01*
Y189727D01*
X173309D01*
Y189865D01*
X173447D01*
Y190003D01*
X173723D01*
Y190141D01*
X173861D01*
Y190279D01*
X174000D01*
Y190418D01*
X174138D01*
Y190556D01*
X174276D01*
Y190694D01*
X174414D01*
Y190832D01*
X174552D01*
Y190971D01*
X174690D01*
Y191109D01*
X174829D01*
Y191247D01*
X174967D01*
Y191385D01*
X175105D01*
Y191523D01*
X175243D01*
Y191662D01*
X175382D01*
Y191800D01*
X175520D01*
Y191938D01*
X175658D01*
Y192076D01*
X175796D01*
Y192214D01*
X175934D01*
Y192352D01*
X176073D01*
Y192491D01*
X176211D01*
Y192629D01*
X176487D01*
Y192767D01*
X176625D01*
Y192905D01*
X176764D01*
Y193043D01*
X176902D01*
Y193182D01*
X177040D01*
Y193320D01*
X177178D01*
Y193458D01*
X177316D01*
Y193596D01*
X177454D01*
Y193735D01*
X177593D01*
Y193873D01*
X177731D01*
Y194011D01*
X177869D01*
Y194149D01*
X178007D01*
Y194287D01*
X178146D01*
Y194425D01*
X178284D01*
Y194564D01*
X178422D01*
Y194702D01*
X178560D01*
Y194840D01*
X178698D01*
Y194978D01*
X178837D01*
Y195116D01*
X178975D01*
Y195255D01*
X179113D01*
Y195393D01*
X179251D01*
Y195531D01*
X179389D01*
Y195669D01*
X179528D01*
Y195808D01*
X179389D01*
Y195946D01*
X179251D01*
Y196084D01*
X179113D01*
Y196222D01*
X178975D01*
Y196360D01*
X178837D01*
Y196499D01*
X178698D01*
Y196637D01*
X178560D01*
Y196775D01*
X178422D01*
Y196913D01*
X178284D01*
Y197051D01*
X178146D01*
Y197189D01*
X178007D01*
Y197328D01*
X177869D01*
Y197466D01*
X177731D01*
Y197604D01*
X177593D01*
Y197742D01*
X177454D01*
Y197880D01*
X177316D01*
Y198019D01*
X177178D01*
Y198157D01*
X177040D01*
Y198295D01*
X176902D01*
Y198433D01*
X176764D01*
Y198572D01*
X176625D01*
Y198710D01*
X176487D01*
Y198848D01*
X176349D01*
Y198986D01*
X176211D01*
Y199124D01*
X176073D01*
Y199262D01*
X175934D01*
Y199401D01*
X175796D01*
Y199539D01*
X175658D01*
Y199677D01*
X175520D01*
Y199815D01*
X175382D01*
Y199953D01*
X175243D01*
Y200092D01*
X175105D01*
Y200230D01*
X174829D01*
Y200368D01*
X174690D01*
Y200506D01*
X174552D01*
Y200644D01*
X174414D01*
Y200783D01*
X174276D01*
Y200921D01*
X174138D01*
Y201059D01*
X174000D01*
Y201197D01*
X173861D01*
Y201336D01*
X173723D01*
Y201474D01*
X173585D01*
Y201612D01*
X173447D01*
Y201750D01*
X173309D01*
Y201888D01*
X173170D01*
Y202027D01*
X173032D01*
Y202165D01*
X172894D01*
Y202303D01*
X172618D01*
Y202441D01*
X172479D01*
Y202579D01*
X172341D01*
Y202717D01*
X172203D01*
Y202856D01*
X172065D01*
Y202994D01*
X171927D01*
Y203132D01*
X171788D01*
Y203270D01*
X171650D01*
Y203409D01*
X171374D01*
Y203547D01*
X171236D01*
Y203685D01*
X171097D01*
Y203823D01*
X170959D01*
Y203961D01*
X170821D01*
Y204099D01*
X170683D01*
Y204238D01*
X170406D01*
Y204376D01*
X170268D01*
Y204514D01*
X170130D01*
Y204652D01*
X169992D01*
Y204790D01*
X169715D01*
Y204929D01*
X169577D01*
Y205067D01*
X169439D01*
Y205205D01*
X169301D01*
Y205343D01*
X169024D01*
Y205482D01*
X168886D01*
Y205620D01*
X168748D01*
Y205758D01*
X168472D01*
Y205896D01*
X168333D01*
Y206034D01*
X168195D01*
Y206173D01*
X167919D01*
Y206311D01*
X167780D01*
Y206449D01*
X167504D01*
Y206587D01*
X167366D01*
Y206725D01*
X167089D01*
Y206863D01*
X166951D01*
Y207002D01*
X166675D01*
Y207140D01*
X166537D01*
Y207278D01*
X166260D01*
Y207416D01*
X166122D01*
Y207555D01*
X165846D01*
Y207693D01*
X165569D01*
Y207831D01*
X165431D01*
Y207969D01*
X165155D01*
Y208107D01*
X164878D01*
Y208246D01*
X164740D01*
Y208384D01*
X164464D01*
Y208522D01*
X164187D01*
Y208660D01*
X163911D01*
Y208798D01*
X163635D01*
Y208937D01*
X163358D01*
Y209075D01*
X163082D01*
Y209213D01*
X162805D01*
Y209351D01*
X162391D01*
Y209489D01*
X162114D01*
Y209628D01*
X161838D01*
Y209766D01*
X161423D01*
Y209904D01*
X161009D01*
Y210042D01*
X160732D01*
Y210180D01*
X160179D01*
Y210319D01*
X159765D01*
Y210457D01*
X159212D01*
Y210595D01*
X158659D01*
Y210733D01*
X157968D01*
Y210871D01*
X157139D01*
Y211010D01*
X155757D01*
Y211148D01*
D02*
G37*
%LPD*%
D12*
X173228Y242913D02*
X185827D01*
Y250000D01*
X173228D02*
X185827D01*
X173228Y242913D02*
Y250000D01*
X210630D02*
X223228D01*
X210630Y242913D02*
Y250000D01*
Y242913D02*
X223228D01*
Y250000D01*
D17*
X214567Y288583D02*
Y300390D01*
X208663D01*
X206696Y298422D01*
Y294486D01*
X208663Y292518D01*
X214567D01*
X196856Y300390D02*
X200792D01*
X202760Y298422D01*
Y290550D01*
X200792Y288583D01*
X196856D01*
X194888Y290550D01*
Y298422D01*
X196856Y300390D01*
X190953D02*
Y288583D01*
X187017Y292518D01*
X183081Y288583D01*
Y300390D01*
X171274D02*
X179145D01*
Y288583D01*
X171274D01*
X179145Y294486D02*
X175210D01*
X167338Y288583D02*
Y300390D01*
X161434D01*
X159467Y298422D01*
Y294486D01*
X161434Y292518D01*
X167338D01*
X163402D02*
X159467Y288583D01*
X143724D02*
Y300390D01*
X139788Y296454D01*
X135852Y300390D01*
Y288583D01*
X126013Y300390D02*
X129949D01*
X131916Y298422D01*
Y290550D01*
X129949Y288583D01*
X126013D01*
X124045Y290550D01*
Y298422D01*
X126013Y300390D01*
X120109D02*
Y288583D01*
X114206D01*
X112238Y290550D01*
Y298422D01*
X114206Y300390D01*
X120109D01*
X108302D02*
Y290550D01*
X106334Y288583D01*
X102399D01*
X100431Y290550D01*
Y300390D01*
X96495D02*
Y288583D01*
X88623D01*
X76816Y300390D02*
X84688D01*
Y288583D01*
X76816D01*
X84688Y294486D02*
X80752D01*
X163386Y277950D02*
X159450Y270079D01*
X155514Y277950D01*
X151579Y270079D02*
X147643D01*
X149611D01*
Y281886D01*
X151579Y279918D01*
X141739Y270079D02*
Y272047D01*
X139771D01*
Y270079D01*
X141739D01*
X131900Y279918D02*
X129932Y281886D01*
X125996D01*
X124029Y279918D01*
Y272047D01*
X125996Y270079D01*
X129932D01*
X131900Y272047D01*
Y279918D01*
X124409Y191335D02*
Y179527D01*
X118506D01*
X116538Y181495D01*
Y183463D01*
X118506Y185431D01*
X124409D01*
X118506D01*
X116538Y187399D01*
Y189367D01*
X118506Y191335D01*
X124409D01*
X112602Y179527D02*
Y187399D01*
X108667Y191335D01*
X104731Y187399D01*
Y179527D01*
Y185431D01*
X112602D01*
X100795Y191335D02*
X92924D01*
X96859D01*
Y179527D01*
X88988Y191335D02*
X81116D01*
X85052D01*
Y179527D01*
X69309Y191335D02*
X77181D01*
Y179527D01*
X69309D01*
X77181Y185431D02*
X73245D01*
X65373Y179527D02*
Y191335D01*
X59470D01*
X57502Y189367D01*
Y185431D01*
X59470Y183463D01*
X65373D01*
X61438D02*
X57502Y179527D01*
X109845Y211020D02*
X111813Y212988D01*
X115749D01*
X117717Y211020D01*
Y209053D01*
X115749Y207085D01*
X111813D01*
X109845Y205117D01*
Y203149D01*
X111813Y201181D01*
X115749D01*
X117717Y203149D01*
X105909Y201181D02*
Y212988D01*
X101974Y209053D01*
X98038Y212988D01*
Y201181D01*
X94102D02*
Y209053D01*
X90166Y212988D01*
X86231Y209053D01*
Y201181D01*
Y207085D01*
X94102D01*
X82295Y201181D02*
Y212988D01*
X76391D01*
X74423Y211020D01*
Y207085D01*
X76391Y205117D01*
X82295D01*
X78359D02*
X74423Y201181D01*
X70488Y212988D02*
X62616D01*
X66552D01*
Y201181D01*
M02*
